Roboto Serif Text-70_VL.ufo
<glyph name="exclam" format="2">
  <advance width="204"/>
  <unicode hex="0021"/>
  <outline>
    <contour>
      <point x="248.88" y="735.0" type="line"/>
      <point x="216.82380023764674" y="540.0840951981597"/>
      <point x="186.68170962919194" y="426.13713520736707"/>
      <point x="141.6" y="168.14" type="curve"/>
      <point x="112.67" y="168.14" type="line"/>
      <point x="157.72664865933976" y="428.99256222417057"/>
      <point x="169.58049999709738" y="543.8836093576749"/>
      <point x="201.67" y="735.0" type="curve"/>
    </contour>
    <component base="period" yxScale="0.029226427420316562" xOffset="17.67"/>
  </outline>
</glyph>
<glyph name="percent" format="2">
  <advance width="611"/>
  <unicode hex="0025"/>
  <outline>
    <contour>
      <point x="249.69" y="720.0" type="curve"/>
      <point x="161.55" y="720.0"/>
      <point x="105.5" y="616.54"/>
      <point x="105.5" y="513.63" type="curve" smooth="yes"/>
      <point x="105.5" y="442.42"/>
      <point x="140.41" y="382.0"/>
      <point x="202.74" y="382.0" type="curve"/>
      <point x="290.88" y="382.0"/>
      <point x="346.93" y="485.46"/>
      <point x="346.93" y="588.37" type="curve" smooth="yes"/>
      <point x="346.93" y="659.58"/>
      <point x="312.02" y="720.0"/>
    </contour>
    <contour>
      <point x="246.9" y="690.93" type="curve"/>
      <point x="285.81" y="690.93"/>
      <point x="310.51" y="652.65"/>
      <point x="310.51" y="591.16" type="curve" smooth="yes"/>
      <point x="310.51" y="517.32"/>
      <point x="274.95" y="411.07"/>
      <point x="205.53" y="411.07" type="curve"/>
      <point x="166.62" y="411.07"/>
      <point x="141.92" y="449.35"/>
      <point x="141.92" y="510.84" type="curve" smooth="yes"/>
      <point x="141.92" y="584.68"/>
      <point x="177.48" y="690.93"/>
    </contour>
    <contour>
      <point x="511.92" y="328.0" type="curve"/>
      <point x="423.78" y="328.0"/>
      <point x="367.73" y="224.54"/>
      <point x="367.73" y="121.63" type="curve" smooth="yes"/>
      <point x="367.73" y="50.42"/>
      <point x="402.64" y="-10.0"/>
      <point x="464.97" y="-10.0" type="curve"/>
      <point x="553.11" y="-10.0"/>
      <point x="609.16" y="93.46"/>
      <point x="609.16" y="196.37" type="curve" smooth="yes"/>
      <point x="609.16" y="267.58"/>
      <point x="574.25" y="328.0"/>
    </contour>
    <contour>
      <point x="509.13" y="298.93" type="curve"/>
      <point x="548.04" y="298.93"/>
      <point x="572.74" y="260.65"/>
      <point x="572.74" y="199.16" type="curve" smooth="yes"/>
      <point x="572.74" y="125.32"/>
      <point x="537.18" y="19.07"/>
      <point x="467.76" y="19.07" type="curve"/>
      <point x="428.85" y="19.07"/>
      <point x="404.15" y="57.35"/>
      <point x="404.15" y="118.84" type="curve" smooth="yes"/>
      <point x="404.15" y="192.68"/>
      <point x="439.71" y="298.93"/>
    </contour>
    <component base="fraction" yxScale="0.029226427420316562" xOffset="140.12"/>
  </outline>
</glyph>
<glyph name="asterisk" format="2">
  <advance width="321"/>
  <unicode hex="002A"/>
  <outline>
    <contour>
      <point x="131.24" y="628.37" type="curve"/>
      <point x="152.45" y="654.65" type="line"/>
      <point x="186.01" y="627.44"/>
      <point x="199.22" y="607.23"/>
      <point x="258.27" y="559.81" type="curve"/>
      <point x="246.13" y="545.67" type="line"/>
      <point x="186.22" y="594.02"/>
      <point x="164.73" y="602.09"/>
    </contour>
    <contour>
      <point x="122.1" y="470.18" type="curve"/>
      <point x="109.96" y="499.46" type="line"/>
      <point x="151.50339863408558" y="520.4856432028243"/>
      <point x="174.08" y="524.53"/>
      <point x="248.27" y="560.81" type="curve"/>
      <point x="255.2" y="543.74" type="line"/>
      <point x="181.08" y="508.46"/>
      <point x="163.55348987232665" y="491.1954460321673"/>
    </contour>
    <contour>
      <point x="242.06" y="395.48" type="curve"/>
      <point x="207.78" y="395.48" type="line"/>
      <point x="217.85" y="450.97"/>
      <point x="228.99" y="469.18"/>
      <point x="243.13" y="552.81" type="curve"/>
      <point x="261.27" y="550.81" type="line"/>
      <point x="247.13" y="468.18"/>
      <point x="250.13" y="443.9"/>
    </contour>
    <contour>
      <point x="261.41" y="710.0" type="curve"/>
      <point x="295.69" y="710.0" type="line"/>
      <point x="287.62" y="653.58"/>
      <point x="275.41" y="643.44"/>
      <point x="261.27" y="550.81" type="curve"/>
      <point x="243.13" y="552.81" type="line"/>
      <point x="257.27" y="641.44"/>
      <point x="254.27" y="663.65"/>
    </contour>
    <contour>
      <point x="352.09" y="447.9" type="line"/>
      <point x="318.53" y="475.11"/>
      <point x="306.11" y="497.32"/>
      <point x="246.13" y="545.67" type="curve"/>
      <point x="258.27" y="559.81" type="line"/>
      <point x="316.32" y="511.46"/>
      <point x="341.6" y="502.39"/>
      <point x="373.23" y="475.18" type="curve"/>
    </contour>
    <contour>
      <point x="397.44" y="605.16" type="line"/>
      <point x="354.7686437094895" y="585.8996245352453"/>
      <point x="330.32" y="579.02"/>
      <point x="255.2" y="543.74" type="curve"/>
      <point x="248.27" y="560.81" type="line"/>
      <point x="321.46" y="596.02"/>
      <point x="343.6043475036979" y="614.2355650642564"/>
      <point x="384.37" y="633.51" type="curve"/>
    </contour>
  </outline>
</glyph>
<glyph name="plus" format="2">
  <advance width="560"/>
  <unicode hex="002B"/>
  <outline>
    <contour>
      <point x="351.64" y="513.47" type="line"/>
      <point x="290.15" y="168.53" type="line"/>
      <point x="322.29" y="168.53" type="line"/>
      <point x="382.85" y="513.47" type="line"/>
    </contour>
    <contour>
      <point x="494.95" y="355.07" type="line"/>
      <point x="184.19" y="355.07" type="line"/>
      <point x="178.19" y="326.93" type="line"/>
      <point x="488.95" y="326.93" type="line"/>
    </contour>
  </outline>
</glyph>
<glyph name="comma" format="2">
  <advance width="168"/>
  <unicode hex="002C"/>
  <outline>
    <contour>
      <point x="30.65" y="-120.14" type="line"/>
      <point x="93.28" y="-82.07"/>
      <point x="121.42" y="-16.0"/>
      <point x="123.28" y="19.07" type="curve" smooth="yes"/>
      <point x="123.28" y="46.14"/>
      <point x="110.07" y="61.21"/>
      <point x="87.93" y="61.21" type="curve" smooth="yes"/>
      <point x="66.72" y="61.21"/>
      <point x="50.72" y="45.14"/>
      <point x="50.72" y="25.07" type="curve" smooth="yes"/>
      <point x="49.79" y="3.07"/>
      <point x="63.93" y="-10.0"/>
      <point x="83.0" y="-10.0" type="curve" smooth="yes"/>
      <point x="95.14" y="-10.0"/>
      <point x="103.28" y="-4.0"/>
      <point x="107.35" y="9.0" type="curve"/>
      <point x="104.28" y="7.0"/>
      <point x="96.21" y="4.0"/>
      <point x="95.28" y="3.0" type="curve"/>
      <point x="90.28" y="-25.07"/>
      <point x="58.07" y="-78.0"/>
      <point x="8.51" y="-102.07" type="curve"/>
    </contour>
  </outline>
</glyph>
<glyph name="hyphen" format="2">
  <advance width="351"/>
  <unicode hex="002D"/>
  <outline>
    <contour>
      <point x="116.9" y="335.0" type="line"/>
      <point x="107.97" y="289.86" type="line"/>
      <point x="327.4" y="289.86" type="line"/>
      <point x="336.33" y="335.0" type="line"/>
    </contour>
  </outline>
</glyph>
<glyph name="period" format="2">
  <advance width="164"/>
  <unicode hex="002E"/>
  <outline>
    <contour>
      <point x="120.56" y="27.93" type="curve" smooth="yes"/>
      <point x="120.56" y="49.07"/>
      <point x="106.42" y="61.21"/>
      <point x="88.14" y="61.21" type="curve"/>
      <point x="68.0" y="61.21"/>
      <point x="51.07" y="47.21"/>
      <point x="51.07" y="23.28" type="curve" smooth="yes"/>
      <point x="51.07" y="2.14"/>
      <point x="65.21" y="-10.0"/>
      <point x="83.49" y="-10.0" type="curve"/>
      <point x="103.63" y="-10.0"/>
      <point x="120.56" y="4.0"/>
    </contour>
  </outline>
</glyph>
<glyph name="zero" format="2">
  <advance width="460"/>
  <unicode hex="0030"/>
  <outline>
    <contour>
      <point x="236.7" y="-9.14" type="curve" smooth="yes"/>
      <point x="388.47" y="-9.14"/>
      <point x="486.22" y="189.69"/>
      <point x="486.22" y="393.85" type="curve"/>
      <point x="486.22" y="526.02"/>
      <point x="428.91" y="617.14"/>
      <point x="324.07" y="617.14" type="curve" smooth="yes"/>
      <point x="171.37" y="617.14"/>
      <point x="74.48" y="418.31"/>
      <point x="74.48" y="214.15" type="curve"/>
      <point x="74.48" y="81.98"/>
      <point x="131.86" y="-9.14"/>
    </contour>
    <contour>
      <point x="235.98" y="18.07" type="curve" smooth="yes"/>
      <point x="157.16" y="18.07"/>
      <point x="114.69" y="88.33"/>
      <point x="114.69" y="203.92" type="curve"/>
      <point x="114.69" y="234.08"/>
      <point x="117.69" y="268.45"/>
      <point x="124.55" y="305.89" type="curve" smooth="yes"/>
      <point x="156.34" y="478.91"/>
      <point x="219.58" y="589.93"/>
      <point x="324.79" y="589.93" type="curve" smooth="yes"/>
      <point x="403.61" y="589.93"/>
      <point x="446.01" y="519.67"/>
      <point x="446.01" y="404.08" type="curve"/>
      <point x="446.01" y="373.92"/>
      <point x="443.01" y="339.55"/>
      <point x="436.15" y="302.11" type="curve" smooth="yes"/>
      <point x="404.36" y="129.09"/>
      <point x="341.19" y="18.07"/>
    </contour>
  </outline>
</glyph>
<glyph name="two" format="2">
  <advance width="460"/>
  <unicode hex="0032"/>
  <guideline x="381.3" y="43.260000000000005" angle="0" identifier="ot1erZPOk0"/>
  <outline>
    <contour>
      <point x="46.71" y="0.0" type="line"/>
      <point x="54.64" y="40.14" type="line"/>
      <point x="281.88" y="209.97"/>
      <point x="411.64" y="302.37"/>
      <point x="411.64" y="458.58" type="curve" smooth="yes"/>
      <point x="411.64" y="548.93"/>
      <point x="368.7831578947368" y="588.93"/>
      <point x="298.77" y="588.93" type="curve" smooth="yes"/>
      <point x="243.88" y="588.93"/>
      <point x="196.32" y="566.09"/>
      <point x="154.9" y="525.09" type="curve"/>
      <point x="170.39" y="554.86"/>
      <point x="173.18" y="559.93"/>
      <point x="185.25" y="559.93" type="curve"/>
      <point x="169.11" y="462.3" type="line"/>
      <point x="125.76" y="462.3" type="line"/>
      <point x="142.76" y="557.37" type="line"/>
      <point x="182.62" y="593.81"/>
      <point x="241.32" y="618.0"/>
      <point x="299.7" y="618.0" type="curve" smooth="yes"/>
      <point x="393.17" y="618.0"/>
      <point x="455.57" y="568.79"/>
      <point x="455.57" y="460.44" type="curve" smooth="yes"/>
      <point x="455.57" y="287.37"/>
      <point x="287.46" y="174.83"/>
      <point x="79.78" y="25.07" type="curve"/>
      <point x="78.85" y="35.14" type="line"/>
      <point x="276.68" y="35.14" type="line" smooth="yes"/>
      <point x="346.94" y="35.14"/>
      <point x="376.43" y="42.14"/>
      <point x="385.5" y="78.14" type="curve" smooth="yes"/>
      <point x="407.64" y="164.07" type="line"/>
      <point x="433.71" y="164.07" type="line"/>
      <point x="405.78" y="0.0" type="line"/>
    </contour>
  </outline>
</glyph>
<glyph name="three" format="2">
  <advance width="460"/>
  <unicode hex="0033"/>
  <guideline x="159.0367429118414" y="551.72" angle="0" identifier="0Gp4yv587y"/>
  <outline>
    <contour>
      <point x="233.75" y="-90.0" type="curve" smooth="yes"/>
      <point x="126.93" y="-90.0"/>
      <point x="52.95" y="-9.77"/>
      <point x="43.41" y="97.44" type="curve"/>
      <point x="71.69" y="103.86" type="line"/>
      <point x="77.88" y="24.72"/>
      <point x="130.93" y="-61.86"/>
      <point x="233.75" y="-61.86" type="curve" smooth="yes"/>
      <point x="330.22" y="-61.86"/>
      <point x="389.13" y="6.5600000000000005"/>
      <point x="389.13" y="114.28" type="curve" smooth="yes"/>
      <point x="389.13" y="204.0"/>
      <point x="333.85" y="269.93"/>
      <point x="239.26" y="269.93" type="curve" smooth="yes"/>
      <point x="189.35" y="269.93" type="line"/>
      <point x="194.35" y="298.07" type="line"/>
      <point x="241.98" y="298.07" type="line" smooth="yes"/>
      <point x="350.94" y="298.07"/>
      <point x="414.78" y="360.0"/>
      <point x="416.64" y="463.0" type="curve" smooth="yes"/>
      <point x="418.5" y="547.72"/>
      <point x="381.24" y="589.86"/>
      <point x="303.19" y="589.86" type="curve" smooth="yes"/>
      <point x="236.0" y="589.86"/>
      <point x="192.51" y="555.93"/>
      <point x="167.09" y="528.86" type="curve"/>
      <point x="174.23" y="553.86"/>
      <point x="192.51" y="570.86"/>
      <point x="197.3" y="572.86" type="curve"/>
      <point x="180.23" y="475.44" type="line"/>
      <point x="138.74" y="475.44" type="line"/>
      <point x="152.88" y="559.0" type="line"/>
      <point x="179.3" y="582.0"/>
      <point x="228.93" y="618.0"/>
      <point x="303.19" y="618.0" type="curve" smooth="yes"/>
      <point x="404.1" y="618.0"/>
      <point x="459.64" y="561.93"/>
      <point x="456.85" y="463.0" type="curve" smooth="yes"/>
      <point x="454.06" y="349.0"/>
      <point x="369.87" y="283.0"/>
      <point x="276.56" y="283.0" type="curve"/>
      <point x="297.03" y="292.0" type="line"/>
      <point x="293.96" y="279.0" type="line"/>
      <point x="277.7" y="289.0" type="line"/>
      <point x="377.41" y="277.86"/>
      <point x="429.34" y="208.51"/>
      <point x="429.34" y="115.21" type="curve" smooth="yes"/>
      <point x="429.34" y="-5.58"/>
      <point x="349.43" y="-90.0"/>
    </contour>
  </outline>
</glyph>
<glyph name="four" format="2">
  <advance width="460"/>
  <unicode hex="0034"/>
  <outline>
    <contour>
      <point x="46.73335987107546" y="112.0" type="line"/>
      <point x="458.2433598710755" y="112.0" type="line"/>
      <point x="464.2778319759459" y="145.14" type="line"/>
      <point x="69.9078319759459" y="145.14" type="line"/>
      <point x="71.26485057269895" y="123.07" type="line"/>
      <point x="412.12121501671186" y="605.86" type="line"/>
      <point x="415.99889429897274" y="609.0" type="line"/>
      <point x="382.71889429897277" y="609.0" type="line"/>
      <point x="52.32" y="144.42" type="line"/>
    </contour>
    <contour>
      <point x="316.01" y="-77.0" type="line"/>
      <point x="437.1388942989728" y="609.0" type="line"/>
      <point x="399.85889429897276" y="609.0" type="line"/>
      <point x="396.5489507425087" y="595.93" type="line"/>
      <point x="277.87" y="-77.0" type="line"/>
    </contour>
  </outline>
</glyph>
<glyph name="six" format="2">
  <advance width="460"/>
  <unicode hex="0036"/>
  <guideline x="257.61" y="271.14" angle="0" identifier="BacsRmRcyo"/>
  <outline>
    <contour>
      <point x="252.38" y="-9.07" type="curve" smooth="yes"/>
      <point x="373.64" y="-9.07"/>
      <point x="464.34" y="112.07"/>
      <point x="464.34" y="267.67" type="curve" smooth="yes"/>
      <point x="464.34" y="385.46"/>
      <point x="408.87" y="459.93"/>
      <point x="315.21" y="459.93" type="curve" smooth="yes"/>
      <point x="226.72" y="459.93"/>
      <point x="150.74" y="389.49"/>
      <point x="110.04" y="270.54" type="curve"/>
      <point x="113.39" y="247.33" type="line"/>
      <point x="167.18" y="366.21"/>
      <point x="238.02" y="431.79"/>
      <point x="315.21" y="431.79" type="curve" smooth="yes"/>
      <point x="384.66" y="431.79"/>
      <point x="424.13" y="372.25"/>
      <point x="424.13" y="268.6" type="curve" smooth="yes"/>
      <point x="424.13" y="219.37"/>
      <point x="415.27" y="173.93"/>
      <point x="400.27" y="135.28" type="curve" smooth="yes"/>
      <point x="371.2" y="65.35"/>
      <point x="319.5" y="20.0"/>
      <point x="253.31" y="20.0" type="curve" smooth="yes"/>
      <point x="167.26" y="20.0"/>
      <point x="118.67" y="93.0"/>
      <point x="118.67" y="212.31" type="curve" smooth="yes"/>
      <point x="118.67" y="255.84"/>
      <point x="123.39" y="298.65"/>
      <point x="132.11" y="341.46" type="curve" smooth="yes"/>
      <point x="171.97" y="521.91"/>
      <point x="295.89" y="678.7"/>
      <point x="487.22" y="712.79" type="curve"/>
      <point x="484.43" y="740.93" type="line"/>
      <point x="233.42" y="702.49"/>
      <point x="79.39" y="455.84"/>
      <point x="79.39" y="217.45" type="curve" smooth="yes"/>
      <point x="79.39" y="78.93"/>
      <point x="142.4" y="-9.07"/>
    </contour>
  </outline>
</glyph>
<glyph name="seven" format="2">
  <advance width="460"/>
  <unicode hex="0037"/>
  <outline>
    <contour>
      <point x="275.28" y="573.86" type="line" smooth="yes"/>
      <point x="204.16" y="573.86"/>
      <point x="174.6" y="566.86"/>
      <point x="164.6" y="530.86" type="curve" smooth="yes"/>
      <point x="140.46" y="440.86" type="line"/>
      <point x="116.32" y="440.86" type="line"/>
      <point x="146.25" y="609.0" type="line"/>
      <point x="523.27" y="609.0" type="line"/>
      <point x="517.27" y="573.86" type="line"/>
      <point x="383.38" y="411.86"/>
      <point x="267.56" y="246.23"/>
      <point x="203.7" y="-77.0" type="curve"/>
      <point x="162.49" y="-77.0" type="line"/>
      <point x="231.35" y="254.16"/>
      <point x="379.89" y="443.14"/>
      <point x="495.13" y="588.86" type="curve"/>
      <point x="502.34" y="573.86" type="line"/>
    </contour>
  </outline>
</glyph>
<glyph name="eight" format="2">
  <advance width="460"/>
  <unicode hex="0038"/>
  <outline>
    <contour>
      <point x="234.66" y="19.07" type="curve" smooth="yes"/>
      <point x="157.35" y="19.07"/>
      <point x="109.18" y="72.33"/>
      <point x="109.18" y="153.52" type="curve" smooth="yes"/>
      <point x="109.18" y="169.17"/>
      <point x="110.18" y="182.89"/>
      <point x="112.18" y="196.68" type="curve" smooth="yes"/>
      <point x="128.25" y="303.7"/>
      <point x="204.25" y="361.93"/>
      <point x="288.3" y="361.93" type="curve" smooth="yes"/>
      <point x="360.66" y="361.93"/>
      <point x="410.78" y="309.53"/>
      <point x="410.78" y="215.6" type="curve" smooth="yes"/>
      <point x="410.78" y="200.88"/>
      <point x="409.71" y="185.67"/>
      <point x="406.64" y="171.67" type="curve" smooth="yes"/>
      <point x="390.01" y="75.37"/>
      <point x="319.57" y="19.07"/>
    </contour>
    <contour>
      <point x="295.89" y="390.07" type="curve" smooth="yes"/>
      <point x="238.63" y="390.07"/>
      <point x="194.67" y="428.19"/>
      <point x="194.67" y="507.1" type="curve" smooth="yes"/>
      <point x="194.67" y="532.84"/>
      <point x="198.46" y="556.65"/>
      <point x="206.04" y="577.81" type="curve" smooth="yes"/>
      <point x="227.62" y="648.0"/>
      <point x="283.39" y="691.86"/>
      <point x="344.79" y="691.86" type="curve" smooth="yes"/>
      <point x="407.26" y="691.86"/>
      <point x="445.22" y="647.09"/>
      <point x="445.22" y="577.04" type="curve" smooth="yes"/>
      <point x="445.22" y="555.88"/>
      <point x="442.36" y="535.44"/>
      <point x="438.5" y="517.0" type="curve" smooth="yes"/>
      <point x="418.85" y="434.86"/>
      <point x="357.08" y="390.07"/>
    </contour>
    <contour>
      <point x="235.59" y="-10.0" type="curve" smooth="yes"/>
      <point x="343.69" y="-10.0"/>
      <point x="450.99" y="65.12"/>
      <point x="450.99" y="215.6" type="curve" smooth="yes"/>
      <point x="450.99" y="306.83"/>
      <point x="400.5" y="370.67"/>
      <point x="329.61" y="382.65" type="curve"/>
      <point x="341.17" y="369.72" type="line"/>
      <point x="343.24" y="384.58" type="line"/>
      <point x="331.26" y="372.72" type="line"/>
      <point x="411.15" y="388.37"/>
      <point x="485.29" y="464.23"/>
      <point x="485.29" y="577.04" type="curve" smooth="yes"/>
      <point x="485.29" y="662.88"/>
      <point x="430.19" y="720.0"/>
      <point x="345.72" y="720.0" type="curve" smooth="yes"/>
      <point x="254.34" y="720.0"/>
      <point x="158.32" y="650.02"/>
      <point x="158.32" y="510.82" type="curve" smooth="yes"/>
      <point x="158.32" y="431.75"/>
      <point x="198.58" y="385.91"/>
      <point x="254.49" y="373.28" type="curve"/>
      <point x="244.58" y="385.42" type="line"/>
      <point x="242.51" y="370.42" type="line"/>
      <point x="252.84" y="383.28" type="line"/>
      <point x="156.69" y="369.84"/>
      <point x="68.04" y="279.77"/>
      <point x="68.04" y="153.52" type="curve" smooth="yes"/>
      <point x="68.04" y="56.33"/>
      <point x="133.56" y="-10.0"/>
    </contour>
  </outline>
</glyph>
<glyph name="nine" format="2">
  <advance width="460"/>
  <unicode hex="0039"/>
  <outline>
    <contour>
      <point x="295.93" y="619.0" type="curve" smooth="yes"/>
      <point x="407.17" y="619.0"/>
      <point x="468.85" y="530.02"/>
      <point x="468.85" y="393.6" type="curve" smooth="yes"/>
      <point x="468.85" y="171.7"/>
      <point x="335.15" y="-85.0"/>
      <point x="63.83" y="-94.86" type="curve"/>
      <point x="60.9" y="-66.72" type="line"/>
      <point x="270.86" y="-60.72"/>
      <point x="379.71" y="103.25"/>
      <point x="416.06" y="269.87" type="curve" smooth="yes"/>
      <point x="424.78" y="312.54"/>
      <point x="429.57" y="355.28"/>
      <point x="429.57" y="398.67" type="curve" smooth="yes"/>
      <point x="429.57" y="516.58"/>
      <point x="381.68" y="589.93"/>
      <point x="295.0" y="589.93" type="curve" smooth="yes"/>
      <point x="221.55" y="589.93"/>
      <point x="165.71" y="535.09"/>
      <point x="143.92" y="451.69" type="curve" smooth="yes"/>
      <point x="137.27" y="425.74"/>
      <point x="133.48" y="397.93"/>
      <point x="133.48" y="368.26" type="curve" smooth="yes"/>
      <point x="133.48" y="264.12"/>
      <point x="178.3" y="205.14"/>
      <point x="254.77" y="205.14" type="curve" smooth="yes"/>
      <point x="323.87" y="205.14"/>
      <point x="387.92" y="261.21"/>
      <point x="435.06" y="364.7" type="curve"/>
      <point x="440.34" y="336.84" type="line"/>
      <point x="400.06" y="239.0"/>
      <point x="331.52" y="177.0"/>
      <point x="250.12" y="177.0" type="curve" smooth="yes"/>
      <point x="152.72" y="177.0"/>
      <point x="93.27" y="250.63"/>
      <point x="93.27" y="369.19" type="curve" smooth="yes"/>
      <point x="93.27" y="509.02"/>
      <point x="179.13" y="619.0"/>
    </contour>
  </outline>
</glyph>
<glyph name="question" format="2">
  <advance width="369"/>
  <unicode hex="003F"/>
  <guideline x="177.63" y="377.62" angle="0" identifier="JZC9ps4qeQ"/>
  <guideline x="181.35" y="226.72" angle="0" identifier="SkDUu8cYM9"/>
  <outline>
    <contour>
      <point x="218.09" y="365.09" type="curve"/>
      <point x="187.3" y="192.07" type="line"/>
      <point x="219.44" y="192.07" type="line"/>
      <point x="246.23" y="344.02" type="line"/>
      <point x="371.81" y="378.11"/>
      <point x="449.1" y="460.71"/>
      <point x="449.1" y="576.88" type="curve" smooth="yes"/>
      <point x="449.1" y="678.0"/>
      <point x="390.7" y="740.0"/>
      <point x="292.3" y="740.0" type="curve" smooth="yes"/>
      <point x="240.43" y="740.0"/>
      <point x="195.66" y="723.46"/>
      <point x="147.2" y="687.72" type="curve"/>
      <point x="131.2" y="591.86" type="line"/>
      <point x="173.62" y="591.86" type="line"/>
      <point x="190.55" y="686.93" type="line"/>
      <point x="176.5" y="685.93"/>
      <point x="165.13" y="670.95"/>
      <point x="159.55" y="648.21" type="curve"/>
      <point x="196.99" y="690.09"/>
      <point x="241.27" y="710.93"/>
      <point x="292.3" y="710.93" type="curve" smooth="yes"/>
      <point x="368.98" y="710.93"/>
      <point x="408.89" y="661.58"/>
      <point x="408.89" y="576.88" type="curve" smooth="yes"/>
      <point x="408.89" y="466.76"/>
      <point x="340.28" y="394.53"/>
    </contour>
    <component base="period" yxScale="0.029226427420316562" xOffset="91.37"/>
  </outline>
</glyph>
<glyph name="at" format="2">
  <advance width="733"/>
  <unicode hex="0040"/>
  <outline>
    <contour>
      <point x="392.13" y="-153.0" type="curve" smooth="yes"/>
      <point x="472.46" y="-153.0"/>
      <point x="532.37" y="-129.0"/>
      <point x="577.65" y="-106.0" type="curve"/>
      <point x="568.93" y="-80.93" type="line"/>
      <point x="527.23" y="-102.93"/>
      <point x="471.39" y="-125.93"/>
      <point x="393.06" y="-125.93" type="curve" smooth="yes"/>
      <point x="244.68" y="-125.93"/>
      <point x="92.67" y="-27.79"/>
      <point x="100.11" y="224.0" type="curve" smooth="yes"/>
      <point x="107.55" y="462.93"/>
      <point x="267.93" y="646.93"/>
      <point x="463.08" y="646.93" type="curve" smooth="yes"/>
      <point x="627.95" y="646.93"/>
      <point x="725.05" y="522.0"/>
      <point x="720.4" y="349.0" type="curve" smooth="yes"/>
      <point x="715.7501560516254" y="203.00455670745836"/>
      <point x="642.63" y="75.07"/>
      <point x="550.53" y="75.07" type="curve" smooth="yes"/>
      <point x="510.97" y="75.07"/>
      <point x="493.689928725359" y="96.06736283828153"/>
      <point x="494.62" y="133.0" type="curve" smooth="yes"/>
      <point x="495.55" y="152.0"/>
      <point x="498.7688832187352" y="165.82432553594333"/>
      <point x="503.62" y="183.07" type="curve" smooth="yes"/>
      <point x="583.32" y="468.0" type="line"/>
      <point x="562.25" y="468.0" type="line"/>
      <point x="529.97" y="398.93" type="line"/>
      <point x="523.04" y="388.0" type="line"/>
      <point x="453.41" y="139.07" type="line"/>
      <point x="459.48" y="138.0" type="line"/>
      <point x="458.55" y="94.0"/>
      <point x="479.9" y="53.0"/>
      <point x="544.02" y="53.0" type="curve" smooth="yes"/>
      <point x="652.35" y="53.0"/>
      <point x="743.89" y="182.93"/>
      <point x="748.54" y="349.0" type="curve" smooth="yes"/>
      <point x="754.12" y="538.07"/>
      <point x="642.02" y="673.0"/>
      <point x="464.01" y="673.0" type="curve" smooth="yes"/>
      <point x="255.79" y="673.0"/>
      <point x="80.34" y="478.0"/>
      <point x="72.9" y="224.0" type="curve" smooth="yes"/>
      <point x="64.53" y="-47.86"/>
      <point x="228.75" y="-153.0"/>
    </contour>
    <contour>
      <point x="358.01" y="49.0" type="curve" smooth="yes"/>
      <point x="405.64" y="49.0"/>
      <point x="443.85" y="82.35"/>
      <point x="481.69" y="161.0" type="curve"/>
      <point x="480.76" y="199.86" type="line"/>
      <point x="440.99" y="118.14"/>
      <point x="404.71" y="75.07"/>
      <point x="358.94" y="75.07" type="curve" smooth="yes"/>
      <point x="314.03" y="75.07"/>
      <point x="289.4" y="118.0"/>
      <point x="291.26" y="196.0" type="curve" smooth="yes"/>
      <point x="294.98" y="323.93"/>
      <point x="361.89" y="447.93"/>
      <point x="445.5" y="447.93" type="curve" smooth="yes"/>
      <point x="491.34" y="447.93"/>
      <point x="518.83" y="415.93"/>
      <point x="525.18" y="322.93" type="curve"/>
      <point x="539.04" y="371.86" type="line"/>
      <point x="535.9" y="433.0"/>
      <point x="500.27" y="474.0"/>
      <point x="446.43" y="474.0" type="curve" smooth="yes"/>
      <point x="342.96" y="474.0"/>
      <point x="258.7" y="335.0"/>
      <point x="254.05" y="195.07" type="curve" smooth="yes"/>
      <point x="251.26" y="103.0"/>
      <point x="295.89" y="49.0"/>
    </contour>
  </outline>
</glyph>
<glyph name="A" format="2">
  <advance width="568"/>
  <unicode hex="0041"/>
  <guideline x="18.6" y="0" angle="0" identifier="uPJPPm6ZN1"/>
  <guideline x="508.71" y="24.18" angle="0" identifier="MbCMqJ6tdC"/>
  <anchor x="358.00675250357654" y="721.0" name="top"/>
  <anchor x="530.6017310443491" y="0" name="right"/>
  <anchor x="336.61675250357655" y="0" name="bottom"/>
  <outline>
    <contour>
      <point x="208.62" y="298.0" type="line"/>
      <point x="198.55" y="268.93" type="line"/>
      <point x="445.82" y="268.93" type="line"/>
      <point x="449.82" y="298.0" type="line"/>
    </contour>
    <contour>
      <point x="394.72" y="695.86" type="line"/>
      <point x="460.8" y="39.07" type="line"/>
      <point x="459.52594627196294" y="30.15162390374041"/>
      <point x="420.17" y="26.28"/>
      <point x="389.61" y="26.28" type="curve" smooth="yes"/>
      <point x="374.47" y="26.28" type="line"/>
      <point x="369.4" y="0.0" type="line"/>
      <point x="545.78" y="0.0" type="line"/>
      <point x="550.85" y="26.28" type="line"/>
      <point x="546.78" y="26.28" type="line" smooth="yes"/>
      <point x="512.78" y="26.28"/>
      <point x="501.01" y="32.93"/>
      <point x="498.87" y="57.07" type="curve" smooth="yes"/>
      <point x="427.93" y="710.0" type="line"/>
      <point x="376.51" y="710.0" type="line"/>
      <point x="89.29" y="72.07" type="line" smooth="yes"/>
      <point x="73.08" y="36.0"/>
      <point x="58.59" y="26.28"/>
      <point x="25.31" y="26.28" type="curve"/>
      <point x="20.31" y="26.28" type="line"/>
      <point x="16.17" y="0.0" type="line"/>
      <point x="187.69" y="0.0" type="line"/>
      <point x="192.76" y="26.28" type="line"/>
      <point x="180.55" y="26.28" type="line" smooth="yes"/>
      <point x="149.99" y="26.28"/>
      <point x="112.12923106279268" y="34.4157708453598"/>
      <point x="114.43" y="47.07" type="curve"/>
      <point x="401.72" y="695.86" type="line"/>
    </contour>
  </outline>
</glyph>
<glyph name="B" format="2">
  <advance width="510"/>
  <unicode hex="0042"/>
  <outline>
    <contour>
      <point x="323.93" y="357.93" type="line"/>
      <point x="422.19" y="357.93"/>
      <point x="471.17" y="286.0"/>
      <point x="469.31" y="203.07" type="curve" smooth="yes"/>
      <point x="466.52" y="87.33"/>
      <point x="414.59" y="29.07"/>
      <point x="309.3" y="29.07" type="curve" smooth="yes"/>
      <point x="148.39" y="29.07" type="line"/>
      <point x="206.32" y="357.93" type="line"/>
    </contour>
    <contour>
      <point x="373.46" y="680.93" type="line" smooth="yes"/>
      <point x="464.56" y="680.93"/>
      <point x="499.68" y="643.09"/>
      <point x="496.89" y="550.21" type="curve" smooth="yes"/>
      <point x="494.1" y="459.07"/>
      <point x="442.47" y="386.07"/>
      <point x="327.72" y="386.07" type="curve"/>
      <point x="211.39" y="386.07" type="line"/>
      <point x="263.32" y="680.93" type="line"/>
    </contour>
    <contour>
      <point x="313.23" y="364.0" type="line"/>
      <point x="471.68" y="364.0"/>
      <point x="535.24" y="450.14"/>
      <point x="538.03" y="553.0" type="curve" smooth="yes"/>
      <point x="540.82" y="656.95"/>
      <point x="488.7" y="710.0"/>
      <point x="377.46" y="710.0" type="curve" smooth="yes"/>
      <point x="150.99" y="710.0" type="line"/>
      <point x="145.92" y="683.72" type="line"/>
      <point x="155.06" y="683.72" type="line" smooth="yes"/>
      <point x="195.69" y="683.72"/>
      <point x="224.18" y="675.79"/>
      <point x="219.18" y="646.79" type="curve" smooth="yes"/>
      <point x="116.25" y="63.21" type="line" smooth="yes"/>
      <point x="111.25" y="34.21"/>
      <point x="80.76" y="26.28"/>
      <point x="40.13" y="26.28" type="curve" smooth="yes"/>
      <point x="30.06" y="26.28" type="line"/>
      <point x="25.92" y="0.0" type="line"/>
      <point x="302.3" y="0.0" type="line" smooth="yes"/>
      <point x="445.96" y="0.0"/>
      <point x="508.73" y="86.21"/>
      <point x="511.52" y="205.86" type="curve" smooth="yes"/>
      <point x="513.3799612314976" y="298.7881972646392"/>
      <point x="451.19" y="381.93"/>
      <point x="321.81" y="382.0" type="curve"/>
      <point x="393.07" y="363.0" type="line"/>
      <point x="397.07" y="379.0" type="line"/>
    </contour>
  </outline>
</glyph>
<glyph name="E" format="2">
  <advance width="487"/>
  <unicode hex="0045"/>
  <anchor x="362.9805772230889" y="741.0" name="top"/>
  <anchor x="401.5211232449298" y="0" name="right"/>
  <anchor x="341.5905772230889" y="0" name="bottom"/>
  <outline>
    <contour>
      <point x="471.29" y="187.07" type="line"/>
      <point x="446.15" y="187.07" type="line"/>
      <point x="418.94" y="78.58" type="line" smooth="yes"/>
      <point x="409.01" y="39.79"/>
      <point x="385.03" y="29.07"/>
      <point x="308.33" y="29.07" type="curve" smooth="yes"/>
      <point x="148.39" y="29.07" type="line"/>
      <point x="263.32" y="680.93" type="line"/>
      <point x="392.12" y="680.93" type="line" smooth="yes"/>
      <point x="472.54" y="680.93"/>
      <point x="490.8" y="671.14"/>
      <point x="486.87" y="628.63" type="curve" smooth="yes"/>
      <point x="479.87" y="547.93" type="line"/>
      <point x="504.01" y="547.93" type="line"/>
      <point x="533.01" y="710.0" type="line"/>
      <point x="150.99" y="710.0" type="line"/>
      <point x="145.92" y="683.72" type="line"/>
      <point x="155.06" y="683.72" type="line" smooth="yes"/>
      <point x="205.92" y="683.72"/>
      <point x="224.18" y="675.79"/>
      <point x="219.18" y="646.79" type="curve" smooth="yes"/>
      <point x="116.25" y="63.21" type="line" smooth="yes"/>
      <point x="111.25" y="34.21"/>
      <point x="80.76" y="26.28"/>
      <point x="40.13" y="26.28" type="curve" smooth="yes"/>
      <point x="30.06" y="26.28" type="line"/>
      <point x="25.92" y="0.0" type="line"/>
      <point x="438.22" y="0.0" type="line"/>
    </contour>
    <contour>
      <point x="193.11" y="377.07" type="curve"/>
      <point x="188.11" y="350.93" type="line"/>
      <point x="261.44" y="349.93"/>
      <point x="332.84" y="347.93"/>
      <point x="404.17" y="346.93" type="curve"/>
      <point x="410.24" y="381.07" type="line"/>
      <point x="337.84" y="380.07"/>
      <point x="265.51" y="378.07"/>
    </contour>
  </outline>
</glyph>
<glyph name="F" format="2">
  <advance width="476"/>
  <unicode hex="0046"/>
  <outline>
    <contour>
      <point x="25.92" y="0.0" type="line"/>
      <point x="241.37" y="0.0" type="line"/>
      <point x="245.51" y="26.28" type="line"/>
      <point x="219.21" y="26.28" type="line" smooth="yes"/>
      <point x="169.7" y="26.28"/>
      <point x="149.32" y="33.79"/>
      <point x="154.39" y="62.28" type="curve" smooth="yes"/>
      <point x="263.32" y="680.93" type="line"/>
      <point x="395.33" y="680.93" type="line" smooth="yes"/>
      <point x="475.75" y="680.93"/>
      <point x="494.01" y="671.14"/>
      <point x="490.08" y="628.63" type="curve" smooth="yes"/>
      <point x="483.08" y="547.93" type="line"/>
      <point x="507.22" y="547.93" type="line"/>
      <point x="536.22" y="710.0" type="line"/>
      <point x="150.99" y="710.0" type="line"/>
      <point x="145.92" y="683.72" type="line"/>
      <point x="155.06" y="683.72" type="line" smooth="yes"/>
      <point x="205.92" y="683.72"/>
      <point x="224.18" y="675.79"/>
      <point x="219.18" y="646.79" type="curve" smooth="yes"/>
      <point x="116.25" y="63.21" type="line" smooth="yes"/>
      <point x="111.25" y="34.21"/>
      <point x="80.76" y="26.28"/>
      <point x="40.13" y="26.28" type="curve" smooth="yes"/>
      <point x="30.06" y="26.28" type="line"/>
    </contour>
    <contour>
      <point x="194.39" y="370.07" type="curve"/>
      <point x="189.39" y="343.93" type="line"/>
      <point x="262.79" y="342.93"/>
      <point x="334.19" y="340.93"/>
      <point x="405.45" y="339.93" type="curve"/>
      <point x="411.52" y="374.07" type="line"/>
      <point x="338.33" y="373.07"/>
      <point x="266.93" y="371.07"/>
    </contour>
  </outline>
</glyph>
<glyph name="G" format="2">
  <advance width="576"/>
  <unicode hex="0047"/>
  <anchor x="351.5457956015524" y="741.0" name="top"/>
  <anchor x="329.2257956015524" y="0" name="bottom"/>
  <outline>
    <contour>
      <point x="507.3" y="80.07" type="curve"/>
      <point x="544.02" y="289.65" type="line" smooth="yes"/>
      <point x="549.02" y="318.79"/>
      <point x="577.23" y="326.72"/>
      <point x="614.79" y="326.72" type="curve" smooth="yes"/>
      <point x="622.51" y="326.72" type="line"/>
      <point x="628.51" y="353.0" type="line"/>
      <point x="440.62" y="353.0" type="line"/>
      <point x="434.62" y="326.72" type="line"/>
      <point x="443.97" y="326.72" type="line" smooth="yes"/>
      <point x="493.32" y="326.72"/>
      <point x="511.02" y="318.58"/>
      <point x="506.09" y="289.79" type="curve" smooth="yes"/>
      <point x="472.3" y="95.07" type="line"/>
      <point x="451.51" y="52.17"/>
      <point x="393.16" y="20.0"/>
      <point x="318.22" y="20.0" type="curve" smooth="yes"/>
      <point x="191.74" y="20.0"/>
      <point x="142.87" y="126.24"/>
      <point x="142.87" y="266.06" type="curve" smooth="yes"/>
      <point x="142.87" y="481.1"/>
      <point x="241.48" y="691.86"/>
      <point x="385.54" y="691.86" type="curve" smooth="yes"/>
      <point x="476.48" y="691.86"/>
      <point x="512.39" y="644.34"/>
      <point x="534.95" y="518.09" type="curve"/>
      <point x="567.88" y="518.09" type="line"/>
      <point x="601.09" y="710.0" type="line"/>
      <point x="576.02" y="710.0" type="line"/>
      <point x="538.74" y="549.0" type="line"/>
      <point x="552.81" y="548.0" type="line"/>
      <point x="537.32" y="665.92"/>
      <point x="489.55" y="720.0"/>
      <point x="387.4" y="720.0" type="curve" smooth="yes"/>
      <point x="223.41" y="720.0"/>
      <point x="101.73" y="505.89"/>
      <point x="102.66" y="270.71" type="curve" smooth="yes"/>
      <point x="103.59" y="104.59"/>
      <point x="166.37" y="-10.0"/>
      <point x="317.29" y="-10.0" type="curve" smooth="yes"/>
      <point x="398.88" y="-10.0"/>
      <point x="467.58" y="23.03"/>
    </contour>
  </outline>
</glyph>
<glyph name="H" format="2">
  <advance width="619"/>
  <unicode hex="0048"/>
  <anchor x="375.9075630252101" y="741.0" name="top"/>
  <anchor x="354.5175630252101" y="0" name="bottom"/>
  <outline>
    <contour>
      <point x="196.74" y="380.07" type="line"/>
      <point x="190.74" y="351.93" type="line"/>
      <point x="556.46" y="351.93" type="line"/>
      <point x="562.46" y="380.07" type="line"/>
    </contour>
    <contour>
      <point x="24.06" y="0.0" type="line"/>
      <point x="220.79" y="0.0" type="line"/>
      <point x="225.86" y="26.28" type="line"/>
      <point x="217.79" y="26.28" type="line" smooth="yes"/>
      <point x="186.3" y="26.28"/>
      <point x="145.67" y="29.28"/>
      <point x="146.67" y="36.28" type="curve" smooth="yes"/>
      <point x="259.53" y="673.72" type="line" smooth="yes"/>
      <point x="260.53" y="680.72"/>
      <point x="300.23" y="683.72"/>
      <point x="331.72" y="683.72" type="curve" smooth="yes"/>
      <point x="341.65" y="683.72" type="line"/>
      <point x="345.79" y="710.0" type="line"/>
      <point x="149.13" y="710.0" type="line"/>
      <point x="144.06" y="683.72" type="line"/>
      <point x="152.27" y="683.72" type="line" smooth="yes"/>
      <point x="202.2" y="683.72"/>
      <point x="221.39" y="675.79"/>
      <point x="216.39" y="646.79" type="curve" smooth="yes"/>
      <point x="113.46" y="63.21" type="line" smooth="yes"/>
      <point x="108.46" y="34.21"/>
      <point x="77.97" y="26.28"/>
      <point x="37.34" y="26.28" type="curve" smooth="yes"/>
      <point x="28.2" y="26.28" type="line"/>
    </contour>
    <contour>
      <point x="390.85" y="0.0" type="line"/>
      <point x="587.51" y="0.0" type="line"/>
      <point x="592.58" y="26.28" type="line"/>
      <point x="583.44" y="26.28" type="line" smooth="yes"/>
      <point x="533.51" y="26.28"/>
      <point x="514.32" y="34.21"/>
      <point x="519.32" y="63.21" type="curve" smooth="yes"/>
      <point x="622.25" y="646.79" type="line" smooth="yes"/>
      <point x="627.25" y="675.79"/>
      <point x="657.74" y="683.72"/>
      <point x="698.37" y="683.72" type="curve" smooth="yes"/>
      <point x="708.44" y="683.72" type="line"/>
      <point x="712.58" y="710.0" type="line"/>
      <point x="515.85" y="710.0" type="line"/>
      <point x="510.78" y="683.72" type="line"/>
      <point x="517.92" y="683.72" type="line" smooth="yes"/>
      <point x="549.41" y="683.72"/>
      <point x="590.04" y="680.72"/>
      <point x="589.04" y="673.72" type="curve" smooth="yes"/>
      <point x="476.18" y="36.28" type="line" smooth="yes"/>
      <point x="475.18" y="29.28"/>
      <point x="435.48" y="26.28"/>
      <point x="403.99" y="26.28" type="curve" smooth="yes"/>
      <point x="394.99" y="26.28" type="line"/>
    </contour>
  </outline>
</glyph>
<glyph name="I" format="2">
  <advance width="254"/>
  <unicode hex="0049"/>
  <anchor x="152.51968" y="741.0" name="top"/>
  <anchor x="182.06192000000001" y="0" name="right"/>
  <anchor x="131.12968" y="0" name="bottom"/>
  <outline>
    <contour>
      <point x="115.32" y="63.21" type="line" smooth="yes"/>
      <point x="110.32" y="34.21"/>
      <point x="79.69" y="26.28"/>
      <point x="39.2" y="26.28" type="curve" smooth="yes"/>
      <point x="29.13" y="26.28" type="line"/>
      <point x="24.99" y="0.0" type="line"/>
      <point x="221.65" y="0.0" type="line"/>
      <point x="226.72" y="26.28" type="line"/>
      <point x="217.58" y="26.28" type="line" smooth="yes"/>
      <point x="167.51" y="26.28"/>
      <point x="148.46" y="34.21"/>
      <point x="153.46" y="63.21" type="curve" smooth="yes"/>
      <point x="256.39" y="646.79" type="line" smooth="yes"/>
      <point x="261.39" y="675.79"/>
      <point x="292.02" y="683.72"/>
      <point x="332.51" y="683.72" type="curve" smooth="yes"/>
      <point x="342.58" y="683.72" type="line"/>
      <point x="346.72" y="710.0" type="line"/>
      <point x="150.06" y="710.0" type="line"/>
      <point x="144.99" y="683.72" type="line"/>
      <point x="154.13" y="683.72" type="line" smooth="yes"/>
      <point x="204.2" y="683.72"/>
      <point x="223.25" y="675.79"/>
      <point x="218.25" y="646.79" type="curve" smooth="yes"/>
    </contour>
  </outline>
</glyph>
<glyph name="N" format="2">
  <advance width="611"/>
  <unicode hex="004E"/>
  <anchor x="373.730625" y="741.0" name="top"/>
  <anchor x="352.340625" y="0" name="bottom"/>
  <outline>
    <contour>
      <point x="24.99" y="0.0" type="line"/>
      <point x="213.7" y="0.0" type="line"/>
      <point x="218.77" y="26.28" type="line"/>
      <point x="206.63" y="26.28" type="line" smooth="yes"/>
      <point x="178.51" y="26.28"/>
      <point x="141.67" y="29.63"/>
      <point x="142.67" y="36.63" type="curve" smooth="yes"/>
      <point x="261.46" y="708.79" type="line"/>
      <point x="251.11" y="699.21" type="line"/>
      <point x="455.92" y="0.0" type="line"/>
      <point x="500.85" y="0.0" type="line"/>
      <point x="614.78" y="646.44" type="line" smooth="yes"/>
      <point x="619.78" y="675.44"/>
      <point x="650.34" y="683.72"/>
      <point x="690.97" y="683.72" type="curve" smooth="yes"/>
      <point x="701.11" y="683.72" type="line"/>
      <point x="705.25" y="710.0" type="line"/>
      <point x="516.54" y="710.0" type="line"/>
      <point x="511.47" y="683.72" type="line"/>
      <point x="523.61" y="683.72" type="line" smooth="yes"/>
      <point x="558.24" y="683.72"/>
      <point x="588.57" y="680.37"/>
      <point x="587.57" y="673.37" type="curve" smooth="yes"/>
      <point x="472.71" y="24.21" type="line"/>
      <point x="479.92" y="39.14" type="line"/>
      <point x="283.6" y="710.0" type="line"/>
      <point x="150.06" y="710.0" type="line"/>
      <point x="144.99" y="683.72" type="line"/>
      <point x="154.13" y="683.72" type="line" smooth="yes"/>
      <point x="204.06" y="683.72"/>
      <point x="223.25" y="675.79"/>
      <point x="218.25" y="646.79" type="curve" smooth="yes"/>
      <point x="115.39" y="63.56" type="line" smooth="yes"/>
      <point x="110.39" y="34.56"/>
      <point x="79.83" y="26.28"/>
      <point x="40.13" y="26.28" type="curve" smooth="yes"/>
      <point x="29.13" y="26.28" type="line"/>
    </contour>
  </outline>
</glyph>
<glyph name="O" format="2">
  <advance width="607"/>
  <unicode hex="004F"/>
  <anchor x="412.78" y="741.0" name="top"/>
  <anchor x="314.2" y="0" name="bottom"/>
  <outline>
    <contour>
      <point x="621.3" y="440.15" type="curve" smooth="yes"/>
      <point x="621.3" y="603.78"/>
      <point x="551.36" y="720.0"/>
      <point x="409.58" y="720.0" type="curve" smooth="yes"/>
      <point x="223.06" y="720.0"/>
      <point x="102.66" y="493.1"/>
      <point x="102.66" y="269.85" type="curve" smooth="yes"/>
      <point x="102.66" y="106.22"/>
      <point x="172.6" y="-9.07"/>
      <point x="314.38" y="-10.0" type="curve"/>
      <point x="500.9" y="-10.0"/>
      <point x="621.3" y="216.9"/>
    </contour>
    <contour>
      <point x="314.38" y="20.0" type="curve"/>
      <point x="197.9" y="20.93"/>
      <point x="142.87" y="125.08"/>
      <point x="142.87" y="267.06" type="curve" smooth="yes"/>
      <point x="142.87" y="317.99"/>
      <point x="149.08" y="368.92"/>
      <point x="160.43" y="417.71" type="curve" smooth="yes"/>
      <point x="196.13" y="566.82"/>
      <point x="283.18" y="690.0"/>
      <point x="409.58" y="690.0" type="curve"/>
      <point x="526.06" y="689.07"/>
      <point x="581.09" y="584.92"/>
      <point x="581.09" y="442.94" type="curve"/>
      <point x="581.09" y="392.01"/>
      <point x="574.88" y="341.08"/>
      <point x="563.53" y="292.29" type="curve" smooth="yes"/>
      <point x="527.83" y="143.18"/>
      <point x="440.78" y="20.0"/>
    </contour>
  </outline>
</glyph>
<glyph name="Q" format="2">
  <advance width="607"/>
  <unicode hex="0051"/>
  <outline>
    <contour>
      <point x="621.3" y="440.15" type="curve" smooth="yes"/>
      <point x="621.3" y="603.78"/>
      <point x="551.36" y="720.0"/>
      <point x="409.58" y="720.0" type="curve" smooth="yes"/>
      <point x="223.06" y="720.0"/>
      <point x="102.66" y="493.1"/>
      <point x="102.66" y="269.85" type="curve" smooth="yes"/>
      <point x="102.66" y="106.22"/>
      <point x="172.6" y="-9.07"/>
      <point x="314.38" y="-10.0" type="curve"/>
      <point x="500.9" y="-10.0"/>
      <point x="621.3" y="216.9"/>
    </contour>
    <contour>
      <point x="314.38" y="20.0" type="curve"/>
      <point x="197.9" y="20.93"/>
      <point x="142.87" y="125.08"/>
      <point x="142.87" y="267.06" type="curve" smooth="yes"/>
      <point x="142.87" y="317.99"/>
      <point x="149.08" y="368.92"/>
      <point x="160.43" y="417.71" type="curve" smooth="yes"/>
      <point x="196.13" y="566.82"/>
      <point x="283.18" y="690.0"/>
      <point x="409.58" y="690.0" type="curve"/>
      <point x="526.06" y="689.07"/>
      <point x="581.09" y="584.92"/>
      <point x="581.09" y="442.94" type="curve"/>
      <point x="581.09" y="392.01"/>
      <point x="574.88" y="341.08"/>
      <point x="563.53" y="292.29" type="curve" smooth="yes"/>
      <point x="527.83" y="143.18"/>
      <point x="440.78" y="20.0"/>
    </contour>
    <contour>
      <point x="408.93" y="-165.98" type="curve" smooth="yes"/>
      <point x="439.33" y="-165.98"/>
      <point x="471.96" y="-160.91"/>
      <point x="500.03" y="-151.91" type="curve"/>
      <point x="507.96" y="-116.42" type="line"/>
      <point x="473.82" y="-128.42"/>
      <point x="440.77" y="-133.84"/>
      <point x="410.16" y="-133.84" type="curve" smooth="yes"/>
      <point x="343.69" y="-133.84"/>
      <point x="314.87" y="-110.56"/>
      <point x="314.87" y="-48.65" type="curve" smooth="yes"/>
      <point x="314.87" y="-30.79"/>
      <point x="316.94" y="-15.37"/>
      <point x="322.87" y="14.0" type="curve"/>
      <point x="292.73" y="1.0" type="line"/>
      <point x="286.87" y="-29.16"/>
      <point x="285.8" y="-38.72"/>
      <point x="285.8" y="-52.86" type="curve" smooth="yes"/>
      <point x="285.8" y="-129.98"/>
      <point x="327.11" y="-165.98"/>
    </contour>
  </outline>
</glyph>
<glyph name="T" format="2">
  <advance width="503"/>
  <unicode hex="0054"/>
  <anchor x="313.50757847533635" y="741.0" name="top"/>
  <anchor x="291.1875784753363" y="0" name="bottom"/>
  <outline>
    <contour>
      <point x="240.56" y="63.21" type="line" smooth="yes"/>
      <point x="235.56" y="34.21"/>
      <point x="205.07" y="26.28"/>
      <point x="164.44" y="26.28" type="curve" smooth="yes"/>
      <point x="154.02" y="26.28" type="line"/>
      <point x="149.88" y="0.0" type="line"/>
      <point x="347.24" y="0.0" type="line"/>
      <point x="352.31" y="26.28" type="line"/>
      <point x="342.82" y="26.28" type="line" smooth="yes"/>
      <point x="292.89" y="26.28"/>
      <point x="273.7" y="34.21"/>
      <point x="278.7" y="63.21" type="curve" smooth="yes"/>
      <point x="387.63" y="680.93" type="line"/>
      <point x="461.38" y="680.93" type="line" smooth="yes"/>
      <point x="539.94" y="680.93"/>
      <point x="559.2" y="673.0"/>
      <point x="555.2" y="632.35" type="curve" smooth="yes"/>
      <point x="547.06" y="539.93" type="line"/>
      <point x="571.2" y="539.93" type="line"/>
      <point x="601.27" y="710.0" type="line"/>
      <point x="144.13" y="710.0" type="line"/>
      <point x="114.06" y="539.93" type="line"/>
      <point x="138.2" y="539.93" type="line"/>
      <point x="161.62" y="632.35" type="line" smooth="yes"/>
      <point x="171.69" y="674.86"/>
      <point x="189.02" y="680.93"/>
      <point x="273.16" y="680.93" type="curve" smooth="yes"/>
      <point x="349.49" y="680.93" type="line"/>
    </contour>
  </outline>
</glyph>
<glyph name="U" format="2">
  <advance width="629"/>
  <unicode hex="0055"/>
  <guideline x="321.78" y="659.6" angle="0" identifier="yLy2GsxFe8"/>
  <guideline x="486.39" y="637.8" angle="0" identifier="HqtkEm9dow"/>
  <anchor x="376.1775092936803" y="741.0" name="top"/>
  <anchor x="407.7748451053284" y="0" name="right"/>
  <anchor x="354.7875092936803" y="0" name="bottom"/>
  <outline>
    <contour>
      <point x="188.72" y="270.77" type="curve" smooth="yes"/>
      <point x="260.25" y="673.72" type="line" smooth="yes"/>
      <point x="261.25" y="680.72"/>
      <point x="301.02" y="683.72"/>
      <point x="332.51" y="683.72" type="curve" smooth="yes"/>
      <point x="340.58" y="683.72" type="line"/>
      <point x="345.58" y="710.0" type="line"/>
      <point x="148.92" y="710.0" type="line"/>
      <point x="143.92" y="683.72" type="line"/>
      <point x="153.06" y="683.72" type="line" smooth="yes"/>
      <point x="202.99" y="683.72"/>
      <point x="222.18" y="675.79"/>
      <point x="217.18" y="646.79" type="curve" smooth="yes"/>
      <point x="150.58" y="270.77" type="line" smooth="yes"/>
      <point x="143.81" y="231.64"/>
      <point x="140.74" y="199.64"/>
      <point x="140.74" y="171.29" type="curve" smooth="yes"/>
      <point x="140.74" y="45.19"/>
      <point x="204.50516666666667" y="-9.07"/>
      <point x="325.38" y="-9.07" type="curve" smooth="yes"/>
      <point x="454.07510729613733" y="-9.07"/>
      <point x="533.602921316721" y="65.59090638616479"/>
      <point x="559.76" y="219.01" type="curve" smooth="yes"/>
      <point x="632.27" y="645.16" type="line" smooth="yes"/>
      <point x="637.34" y="675.44"/>
      <point x="667.9" y="683.72"/>
      <point x="708.53" y="683.72" type="curve" smooth="yes"/>
      <point x="718.6" y="683.72" type="line"/>
      <point x="722.67" y="710.0" type="line"/>
      <point x="531.15" y="710.0" type="line"/>
      <point x="526.15" y="683.72" type="line"/>
      <point x="533.29" y="683.72" type="line" smooth="yes"/>
      <point x="564.78" y="683.72"/>
      <point x="605.27" y="680.37"/>
      <point x="604.2" y="672.88" type="curve" smooth="yes"/>
      <point x="526.83" y="226.01" type="line" smooth="yes"/>
      <point x="501.55" y="82.26"/>
      <point x="440.73" y="20.07"/>
      <point x="327.45" y="20.07" type="curve" smooth="yes"/>
      <point x="226.05" y="20.07"/>
      <point x="177.95" y="66.4"/>
      <point x="177.95" y="171.29" type="curve" smooth="yes"/>
      <point x="177.95" y="199.99"/>
      <point x="182.09" y="231.13"/>
    </contour>
  </outline>
</glyph>
<glyph name="W" format="2">
  <advance width="758"/>
  <unicode hex="0057"/>
  <anchor x="426.16928923988155" y="741.0" name="top"/>
  <outline>
    <contour>
      <point x="126.36" y="710.0" type="line"/>
      <point x="121.29" y="683.72" type="line"/>
      <point x="125.36" y="683.72" type="line" smooth="yes"/>
      <point x="155.85" y="683.72"/>
      <point x="173.27" y="677.93"/>
      <point x="174.41" y="643.93" type="curve" smooth="yes"/>
      <point x="198.42" y="0.0" type="line"/>
      <point x="241.56" y="0.0" type="line"/>
      <point x="499.92" y="686.86" type="line"/>
      <point x="485.85" y="686.86" type="line"/>
      <point x="515.21" y="0.0" type="line"/>
      <point x="561.35" y="0.0" type="line"/>
      <point x="798.29" y="637.93" type="line" smooth="yes"/>
      <point x="811.43" y="671.93"/>
      <point x="832.78" y="683.72"/>
      <point x="861.27" y="683.72" type="curve" smooth="yes"/>
      <point x="866.27" y="683.72" type="line"/>
      <point x="871.34" y="710.0" type="line"/>
      <point x="698.1" y="710.0" type="line"/>
      <point x="693.03" y="683.72" type="line"/>
      <point x="700.59" y="683.72" type="line" smooth="yes"/>
      <point x="737.66" y="683.72"/>
      <point x="773.36" y="673.93"/>
      <point x="771.36" y="662.93" type="curve"/>
      <point x="534.28" y="13.14" type="line"/>
      <point x="550.42" y="13.14" type="line"/>
      <point x="520.06" y="710.0" type="line"/>
      <point x="475.92" y="710.0" type="line"/>
      <point x="217.49" y="18.07" type="line"/>
      <point x="233.56" y="18.07" type="line"/>
      <point x="210.55" y="670.93" type="line"/>
      <point x="211.55" y="677.93"/>
      <point x="251.18" y="683.72"/>
      <point x="282.67" y="683.72" type="curve" smooth="yes"/>
      <point x="295.95" y="683.72" type="line"/>
      <point x="301.02" y="710.0" type="line"/>
    </contour>
  </outline>
</glyph>
<glyph name="X" format="2">
  <advance width="553"/>
  <unicode hex="0058"/>
  <outline>
    <contour>
      <point x="154.87" y="683.72" type="line"/>
      <point x="159.08" y="683.72" type="line" smooth="yes"/>
      <point x="189.57" y="683.72"/>
      <point x="201.34" y="679.93"/>
      <point x="212.62" y="648.93" type="curve" smooth="yes"/>
      <point x="319.63" y="353.93" type="line"/>
      <point x="323.7" y="349.93" type="line"/>
      <point x="434.85" y="36.28" type="line"/>
      <point x="432.92" y="30.21"/>
      <point x="399.94" y="26.28"/>
      <point x="374.17" y="26.28" type="curve" smooth="yes"/>
      <point x="359.96" y="26.28" type="line"/>
      <point x="354.89" y="0.0" type="line"/>
      <point x="522.6" y="0.0" type="line"/>
      <point x="527.67" y="26.28" type="line"/>
      <point x="523.25" y="26.28" type="line" smooth="yes"/>
      <point x="489.97" y="26.28"/>
      <point x="478.27" y="31.07"/>
      <point x="466.92" y="63.07" type="curve" smooth="yes"/>
      <point x="349.7" y="380.0" type="line"/>
      <point x="346.56" y="383.0" type="line"/>
      <point x="244.62" y="673.72" type="line"/>
      <point x="244.69" y="678.86"/>
      <point x="275.81" y="683.72"/>
      <point x="308.09" y="683.72" type="curve" smooth="yes"/>
      <point x="320.44" y="683.72" type="line"/>
      <point x="325.51" y="710.0" type="line"/>
      <point x="159.94" y="710.0" type="line"/>
    </contour>
    <contour>
      <point x="20.38" y="0.0" type="line"/>
      <point x="188.37" y="0.0" type="line"/>
      <point x="193.44" y="26.28" type="line"/>
      <point x="184.95" y="26.28" type="line" smooth="yes"/>
      <point x="153.98046875" y="26.28"/>
      <point x="119.55028839920945" y="33.28201879446613"/>
      <point x="120.62" y="40.56" type="curve"/>
      <point x="334.56" y="346.0" type="line"/>
      <point x="321.56" y="379.0" type="line"/>
      <point x="106.2" y="75.07" type="line" smooth="yes"/>
      <point x="76.99" y="33.35"/>
      <point x="61.22" y="26.28"/>
      <point x="30.8" y="26.28" type="curve" smooth="yes"/>
      <point x="25.45" y="26.28" type="line"/>
    </contour>
    <contour>
      <point x="351.77" y="361.0" type="line"/>
      <point x="544.85" y="635.93" type="line" smooth="yes"/>
      <point x="571.4673033820696" y="673.9042548951008"/>
      <point x="589.587808219178" y="683.72"/>
      <point x="620.46" y="683.72" type="curve" smooth="yes"/>
      <point x="623.6" y="683.72" type="line"/>
      <point x="628.67" y="710.0" type="line"/>
      <point x="465.68" y="710.0" type="line"/>
      <point x="460.61" y="683.72" type="line"/>
      <point x="465.38" y="683.72" type="line" smooth="yes"/>
      <point x="496.87" y="683.72"/>
      <point x="529.71" y="676.72"/>
      <point x="528.64" y="668.51" type="curve"/>
      <point x="331.77" y="382.07" type="line"/>
    </contour>
  </outline>
</glyph>
<glyph name="Y" format="2">
  <advance width="537"/>
  <unicode hex="0059"/>
  <anchor x="281.8253039483228" y="741.0" name="top"/>
  <anchor x="260.16852122986825" y="0" name="bottom"/>
  <outline>
    <contour>
      <point x="164.6" y="0.0" type="line"/>
      <point x="371.26" y="0.0" type="line"/>
      <point x="376.33" y="26.28" type="line"/>
      <point x="362.19" y="26.28" type="line" smooth="yes"/>
      <point x="312.12" y="26.28"/>
      <point x="293.07" y="34.21"/>
      <point x="298.07" y="63.21" type="curve" smooth="yes"/>
      <point x="342.0" y="312.86" type="line"/>
      <point x="327.86" y="277.0" type="line"/>
      <point x="561.87" y="639.93" type="line" smooth="yes"/>
      <point x="585.22" y="676.93"/>
      <point x="600.34" y="683.72"/>
      <point x="633.41" y="683.72" type="curve" smooth="yes"/>
      <point x="638.41" y="683.72" type="line"/>
      <point x="643.48" y="710.0" type="line"/>
      <point x="467.61" y="710.0" type="line"/>
      <point x="462.54" y="683.72" type="line"/>
      <point x="471.03" y="683.72" type="line" smooth="yes"/>
      <point x="505.31" y="683.72"/>
      <point x="544.66" y="681.37"/>
      <point x="543.59" y="668.51" type="curve"/>
      <point x="307.72" y="296.07" type="line"/>
      <point x="335.07" y="308.07" type="line"/>
      <point x="224.2" y="674.65" type="line"/>
      <point x="225.2" y="683.51"/>
      <point x="262.9" y="683.72"/>
      <point x="293.32" y="683.72" type="curve" smooth="yes"/>
      <point x="308.46" y="683.72" type="line"/>
      <point x="313.53" y="710.0" type="line"/>
      <point x="138.59" y="710.0" type="line"/>
      <point x="133.52" y="683.72" type="line"/>
      <point x="137.59" y="683.72" type="line" smooth="yes"/>
      <point x="171.59" y="683.72"/>
      <point x="180.92" y="680.93"/>
      <point x="190.06" y="654.93" type="curve" smooth="yes"/>
      <point x="306.07" y="279.0" type="line"/>
      <point x="303.86" y="311.93" type="line"/>
      <point x="259.93" y="63.21" type="line" smooth="yes"/>
      <point x="254.93" y="34.21"/>
      <point x="222.44" y="26.28"/>
      <point x="183.81" y="26.28" type="curve" smooth="yes"/>
      <point x="168.74" y="26.28" type="line"/>
    </contour>
  </outline>
</glyph>
<glyph name="asciicircum" format="2">
  <advance width="410"/>
  <unicode hex="005E"/>
  <outline>
    <contour>
      <point x="140.48" y="364.0" type="line"/>
      <point x="319.58" y="685.0" type="line"/>
      <point x="326.72" y="710.0" type="line"/>
      <point x="298.44" y="710.0" type="line"/>
      <point x="104.13" y="364.0" type="line"/>
    </contour>
    <contour>
      <point x="375.61" y="364.0" type="line"/>
      <point x="410.96" y="364.0" type="line"/>
      <point x="338.72" y="710.0" type="line"/>
      <point x="313.58" y="710.0" type="line"/>
      <point x="311.51" y="686.0" type="line"/>
    </contour>
  </outline>
</glyph>
<glyph name="grave" format="2">
  <advance width="410"/>
  <unicode hex="0060"/>
  <anchor x="316.3" y="531.0" name="_top"/>
  <outline>
    <contour>
      <point x="309.32" y="711.93" type="curve" smooth="yes"/>
      <point x="362.86" y="590.0" type="line"/>
      <point x="363.0" y="576.93" type="line"/>
      <point x="350.93" y="576.93" type="line"/>
      <point x="271.18" y="681.93" type="line" smooth="yes"/>
      <point x="258.97" y="697.93"/>
      <point x="246.62" y="714.0"/>
      <point x="246.62" y="729.14" type="curve" smooth="yes"/>
      <point x="246.62" y="744.0"/>
      <point x="258.04625" y="754.0"/>
      <point x="271.69" y="754.0" type="curve" smooth="yes"/>
      <point x="289.38947368421054" y="754.0"/>
      <point x="297.5147110322422" y="738.7251010397395"/>
    </contour>
  </outline>
</glyph>
<glyph name="a" format="2">
  <advance width="468"/>
  <unicode hex="0061"/>
  <anchor x="256.3854981549816" y="508.0" name="top"/>
  <anchor x="398.31461254612543" y="-10.0" name="right"/>
  <anchor x="269.4838007380074" y="0" name="bottom"/>
  <outline>
    <contour>
      <point x="406.45" y="-7.0" type="curve" smooth="yes" identifier="9QlleHsNBK"/>
      <point x="429.66" y="-7.0" identifier="AjEdIrV3hA"/>
      <point x="451.22" y="0.28" identifier="0HYr79adUF"/>
      <point x="464.15" y="8.35" type="curve" identifier="rJg23pdVJf"/>
      <point x="469.15" y="39.14" type="line" identifier="hrRO3KP7Gg"/>
      <point x="452.78" y="28.77" identifier="Solf0dE6tL"/>
      <point x="432.29" y="22.07" identifier="ZqkxHOnFWo"/>
      <point x="414.1" y="22.07" type="curve" smooth="yes" identifier="uoRLwRXMCA"/>
      <point x="390.24" y="22.07" identifier="uA2JQmnw8f"/>
      <point x="382.82" y="34.86" identifier="VQTG1qj8J2"/>
      <point x="382.82" y="61.65" type="curve" smooth="yes" identifier="vzDxdHF0VV"/>
      <point x="382.82" y="83.58" identifier="ydXOXQM3la"/>
      <point x="387.89" y="114.86" identifier="LRco58BJ6w"/>
      <point x="391.89" y="137.07" type="curve" smooth="yes" identifier="k3z5uBOvCd"/>
      <point x="456.89" y="508.0" type="line" identifier="G1iVH7WTdK"/>
      <point x="434.89" y="508.0" type="line" identifier="Jbqkl55svm"/>
      <point x="406.68" y="425.58" type="line" identifier="RguSYJWQtd"/>
      <point x="404.54" y="424.81" type="line" identifier="GS8QpMxFXO"/>
      <point x="357.96" y="160.19" type="line" identifier="JWyGyBzR5A"/>
      <point x="356.96" y="153.47" type="line" identifier="1OjAchs0uX"/>
      <point x="350.82" y="118.4" identifier="gqi46HgS7U"/>
      <point x="345.61" y="87.79" identifier="BJ96ZVsYHS"/>
      <point x="345.61" y="61.65" type="curve" smooth="yes" identifier="li14viEeyr"/>
      <point x="345.61" y="11.07" identifier="0pT2JVkP1u"/>
      <point x="367.24" y="-7.0" identifier="TtmQCs7nqj"/>
    </contour>
    <contour>
      <point x="190.09" y="-11.93" type="curve" smooth="yes" identifier="1A7Egre3cS"/>
      <point x="262.84" y="-11.93" identifier="jgEINfkl8f"/>
      <point x="320.75" y="42.38" identifier="5HcF6l5Bmr"/>
      <point x="366.22" y="152.27" type="curve" identifier="MoAENkFKV5"/>
      <point x="369.45" y="197.29" type="line" identifier="G59rOUNiiy"/>
      <point x="316.61" y="70.22" identifier="JiFJrOec8i"/>
      <point x="255.12" y="20.86" identifier="keznGv3pYW"/>
      <point x="195.88" y="20.86" type="curve" smooth="yes" identifier="ThHwrEo78H"/>
      <point x="130.09" y="20.86" identifier="pK2CmH1fEf"/>
      <point x="108.11" y="70.7" identifier="134JmkQku2"/>
      <point x="108.11" y="172.14" type="curve" smooth="yes" identifier="RXW7qavco2"/>
      <point x="108.11" y="340.32" identifier="E51g2oGrdn"/>
      <point x="185.39" y="487.07" identifier="a9QGplALmT"/>
      <point x="297.14" y="487.07" type="curve" smooth="yes" identifier="bVz8q48cJZ"/>
      <point x="361.42" y="487.07" identifier="60VVxAq4Dt"/>
      <point x="400.61" y="438.0" identifier="UtlHBOO40x"/>
      <point x="408.75" y="353.51" type="curve" identifier="VfNuvddiix"/>
      <point x="426.96" y="386.44" type="line" identifier="7VmWvkdt1d"/>
      <point x="417.68" y="468.07" identifier="B082xvsPlJ"/>
      <point x="371.35" y="517.07" identifier="y30qnAgHbM"/>
      <point x="299.0" y="518.0" type="curve" smooth="yes" identifier="fpwg4eEn6g"/>
      <point x="162.6" y="518.93" identifier="95yU2zStLC"/>
      <point x="68.83" y="350.95" identifier="PXaE8ZZSrY"/>
      <point x="68.83" y="172.14" type="curve" smooth="yes" identifier="T52RcMGvPu"/>
      <point x="68.83" y="44.26" identifier="lp2p3ogFvZ"/>
      <point x="114.11" y="-11.93" identifier="2hSm3AFJ9I"/>
    </contour>
  </outline>
</glyph>
<glyph name="b" format="2">
  <advance width="442"/>
  <unicode hex="0062"/>
  <outline>
    <contour>
      <point x="219.66" y="-11.93" type="curve" identifier="kqDUwMZWVb"/>
      <point x="369.64" y="-11.93" identifier="9jwQ6L54Hb"/>
      <point x="455.18" y="153.44" identifier="WC0jV3N2yu"/>
      <point x="455.18" y="334.09" type="curve" smooth="yes" identifier="NJuOKux1ii"/>
      <point x="455.18" y="461.76" identifier="iAyx5j9hwD"/>
      <point x="410.25" y="518.93" identifier="M02KIfaIzZ"/>
      <point x="333.22" y="518.93" type="curve" smooth="yes" identifier="cNhCYTL8kz"/>
      <point x="260.26" y="518.93" identifier="I0kIw4cD44"/>
      <point x="202.14" y="464.62" identifier="YHXMrasxHl"/>
      <point x="156.53" y="355.66" type="curve" identifier="byhQNbahoF"/>
      <point x="153.3" y="309.71" type="line" identifier="zabO5jTLoo"/>
      <point x="206.35" y="436.78" identifier="8H357C1r2P"/>
      <point x="268.05" y="486.14" identifier="LRiaDTy73H"/>
      <point x="327.5" y="486.14" type="curve" smooth="yes" identifier="L10lCleUIw"/>
      <point x="392.41" y="486.14" identifier="Hl4FKiK8VQ"/>
      <point x="415.9" y="435.32" identifier="7HRxbakbLb"/>
      <point x="415.9" y="334.09" type="curve" smooth="yes" identifier="EyfAHyTepH"/>
      <point x="415.9" y="164.86" identifier="DswsT6vspe"/>
      <point x="345.06" y="18.07" identifier="FUWyXacD8g"/>
      <point x="219.66" y="18.07" type="curve" smooth="yes" identifier="2oOX3UlyKn"/>
      <point x="172.98" y="18.07" identifier="nnn4cEvPa9"/>
      <point x="117.14" y="36.54" identifier="BjNxCCuAUO"/>
      <point x="96.07" y="67.38" type="curve" identifier="1FZTLGuWKn"/>
      <point x="94.86" y="51.17" identifier="0bVr5IxdvG"/>
      <point x="99.0" y="39.96" identifier="DM7V4pGyQJ"/>
      <point x="109.42" y="30.96" type="curve" identifier="KjQqnQ9txn"/>
      <point x="234.07" y="735.0" type="line" identifier="88NYkrwW2E"/>
      <point x="123.09" y="735.0" type="line" identifier="WRS2pabqYi"/>
      <point x="119.02" y="713.72" type="line" identifier="77F8NwjnQR"/>
      <point x="129.02" y="712.65" type="line" smooth="yes" identifier="f1H9oVRlHF"/>
      <point x="177.95" y="707.3" identifier="KgQtFzqtAQ"/>
      <point x="188.86" y="695.72" identifier="4gA2lsRuEi"/>
      <point x="182.93" y="663.93" type="curve" smooth="yes" identifier="hFD5EL2YaJ"/>
      <point x="72.28" y="35.89" type="line" identifier="0znsUechls"/>
      <point x="107.86" y="9.33" identifier="80m6OWh4Cd"/>
      <point x="165.56" y="-11.93" identifier="3r7g1JGi4p"/>
    </contour>
  </outline>
</glyph>
<glyph name="c" format="2">
  <advance width="373"/>
  <unicode hex="0063"/>
  <anchor x="261.93162790697676" y="508.0" name="top"/>
  <anchor x="256.0327191413238" y="0" name="bottom"/>
  <outline>
    <contour>
      <point x="296.26" y="518.0" type="curve" smooth="yes" identifier="3D9OVCYB1O"/>
      <point x="164.88" y="518.0" identifier="WeabZq3iWI"/>
      <point x="66.97" y="388.16" identifier="bCOsNa59e7"/>
      <point x="66.97" y="206.7" type="curve" smooth="yes" identifier="s3TQ94vVMV"/>
      <point x="66.97" y="65.12" identifier="uJ9p7MDs3v"/>
      <point x="126.79" y="-12.0" identifier="9n0JvZzvqV"/>
      <point x="224.89" y="-12.0" type="curve" smooth="yes" identifier="FrhuT8kDAF"/>
      <point x="291.85" y="-12.0" identifier="Y8nVJoA3Ez"/>
      <point x="347.27" y="27.91" identifier="diHQuWaXW2"/>
      <point x="384.34" y="111.14" type="curve" identifier="BSiUTIvo6v"/>
      <point x="357.48" y="125.42" type="line" identifier="QNDATRzgPm"/>
      <point x="320.04" y="46.82" identifier="6mFwQnguIE"/>
      <point x="280.27" y="18.93" identifier="ixgKYldOjc"/>
      <point x="227.68" y="18.93" type="curve" smooth="yes" identifier="2IgI3aL8pH"/>
      <point x="150.51" y="18.93" identifier="LRZCBxtUro"/>
      <point x="107.18" y="80.26" identifier="TerCDcmCzu"/>
      <point x="107.18" y="203.91" type="curve" smooth="yes" identifier="geNxhiZwKz"/>
      <point x="107.18" y="366.44" identifier="rOwm3Iy6MR"/>
      <point x="181.37" y="486.14" identifier="4LRm6sUzVh"/>
      <point x="296.26" y="486.14" type="curve" smooth="yes" identifier="EvzBXI7Du1"/>
      <point x="341.94" y="486.14" identifier="HCWuqrq570"/>
      <point x="371.99" y="467.44" identifier="SQg3fKAF8x"/>
      <point x="394.57" y="425.14" type="curve" identifier="SxQ8ENDwU8"/>
      <point x="399.5" y="453.67" identifier="wuWlEgBQA8"/>
      <point x="393.83" y="466.6" identifier="iWbab7s7Mr"/>
      <point x="376.29" y="467.58" type="curve" identifier="ydQSyrPUPj"/>
      <point x="360.43" y="378.21" type="line" identifier="TAANuPtIwf"/>
      <point x="403.78" y="378.21" type="line" identifier="UcCq8ogZ1z"/>
      <point x="418.71" y="461.86" type="line" identifier="7SifR1oJJL"/>
      <point x="390.18" y="497.18" identifier="SWC3vAG6o1"/>
      <point x="349.41" y="518.0" identifier="HjJ2SE3N80"/>
    </contour>
  </outline>
</glyph>
<glyph name="f" format="2">
  <advance width="272"/>
  <unicode hex="0066"/>
  <guideline x="369.21" y="734.09" angle="0" identifier="DxaajV77df"/>
  <outline>
    <contour>
      <point x="93.06" y="508.0" type="line"/>
      <point x="88.13" y="478.93" type="line"/>
      <point x="336.91" y="478.93" type="line"/>
      <point x="341.84" y="508.0" type="line"/>
    </contour>
    <contour>
      <point x="322.0" y="721.07" type="curve" smooth="yes"/>
      <point x="351.84" y="721.07"/>
      <point x="370.89" y="716.23"/>
      <point x="391.98" y="703.93" type="curve"/>
      <point x="397.98" y="735.93" type="line"/>
      <point x="375.17" y="746.44"/>
      <point x="351.61" y="752.0"/>
      <point x="323.86" y="752.0" type="curve" smooth="yes"/>
      <point x="258.95" y="752.0"/>
      <point x="200.32" y="713.93"/>
      <point x="189.11" y="629.32" type="curve" smooth="yes"/>
      <point x="72.88" y="-223.0" type="line"/>
      <point x="105.95" y="-223.0" type="line"/>
      <point x="228.32" y="622.39" type="line" smooth="yes"/>
      <point x="238.53" y="692.93"/>
      <point x="270.95" y="721.07"/>
    </contour>
  </outline>
</glyph>
<glyph name="g" format="2">
  <advance width="458"/>
  <unicode hex="0067"/>
  <anchor x="229.0112676056338" y="508.0" name="top"/>
  <outline>
    <contour>
      <point x="197.3" y="-3.14" type="curve" smooth="yes" identifier="2dAxS5WTgn"/>
      <point x="270.26" y="-3.14" identifier="8YvXCQXqjK"/>
      <point x="330.2686201903367" y="51.27201162313995" identifier="H9Ltz2Nrlj"/>
      <point x="376.06" y="160.13" type="curve" identifier="brIVUnhMQe"/>
      <point x="379.29" y="206.08" type="line" identifier="5Gp8UvCIJl"/>
      <point x="326.24" y="79.01" identifier="uDuoc5HMHa"/>
      <point x="261.54" y="29.65" identifier="70rrRheYqP"/>
      <point x="201.16" y="29.65" type="curve" smooth="yes" identifier="I6sWP0sn7Y"/>
      <point x="134.39" y="29.65" identifier="FdghCcNXkg"/>
      <point x="107.18" y="77.61" identifier="0czR3WlknB"/>
      <point x="107.18" y="173.19" type="curve" identifier="Tys9py2Do9"/>
      <point x="107.18" y="342.28" identifier="Uq3xQL6eFC"/>
      <point x="186.39" y="488.93" identifier="QrJ50MMmYD"/>
      <point x="293.19" y="488.93" type="curve" smooth="yes" identifier="ZEBObS49hh"/>
      <point x="367.12" y="488.93" identifier="latITyQ145"/>
      <point x="408.38" y="439.86" identifier="PS7k50Tl9A"/>
      <point x="416.59" y="353.58" type="curve" identifier="GK1u3r8Lzr"/>
      <point x="434.8" y="386.51" type="line" identifier="vASXKN5ZAy"/>
      <point x="425.45" y="469.93" identifier="wLeRHc7wYo"/>
      <point x="377.05" y="518.93" identifier="ESVDYgKxjf"/>
      <point x="294.12" y="518.93" type="curve" smooth="yes" identifier="tBd7Ao41wk"/>
      <point x="161.81" y="518.93" identifier="INKeVf1PMV"/>
      <point x="67.9" y="353.7" identifier="OCmaYjQmy1"/>
      <point x="67.9" y="173.19" type="curve" identifier="SIF2wsERkT"/>
      <point x="67.9" y="55.82" identifier="9l39gMhXza"/>
      <point x="118.41" y="-3.14" identifier="J91icNwj71"/>
    </contour>
    <contour>
      <point x="329.01" y="-48.06" type="line" smooth="yes" identifier="wBebCxPCe7"/>
      <point x="311.66" y="-145.95" identifier="kE1wD5b2qR"/>
      <point x="260.89" y="-192.93" identifier="YRu5R4uq6S"/>
      <point x="173.72" y="-192.93" type="curve" smooth="yes" identifier="sGcvCnnn3b"/>
      <point x="108.02" y="-192.93" identifier="JUZU7nS2Ij"/>
      <point x="59.62" y="-170.16" identifier="SAKDrTGLhr"/>
      <point x="39.25" y="-131.02" type="curve" identifier="oJ2zieb8J8"/>
      <point x="37.9" y="-150.35" identifier="4NlaCRW3lz"/>
      <point x="44.46" y="-163.07" identifier="XipCpC0F16"/>
      <point x="57.04" y="-165.07" type="curve" identifier="E1yZyp8M4Y"/>
      <point x="73.04" y="-77.93" type="line" identifier="3Sygy86amz"/>
      <point x="28.69" y="-77.93" type="line" identifier="v0oJqc7ypC"/>
      <point x="11.9" y="-161.09" type="line" identifier="DwzcQoJAfp"/>
      <point x="45.2" y="-198.88" identifier="MOKikxlqim"/>
      <point x="105.11" y="-222.0" identifier="TBsFMbgPuf"/>
      <point x="173.72" y="-222.0" type="curve" smooth="yes" identifier="RyWlrbN7Jn"/>
      <point x="278.31" y="-222.0" identifier="x1CMhHlX5J"/>
      <point x="345.94" y="-163.74" identifier="2iGSKoU6RB"/>
      <point x="364.36" y="-59.36" type="curve" smooth="yes" identifier="EIYDvBzvdL"/>
      <point x="464.73" y="511.0" type="line" identifier="GY3vTSTWF4"/>
      <point x="440.52" y="511.0" type="line" identifier="NIDSJvqIe8"/>
      <point x="414.45" y="424.37" type="line" identifier="KZwiEQFunm"/>
      <point x="412.45" y="425.72" type="line" identifier="3SKWDqN0Yt"/>
    </contour>
  </outline>
</glyph>
<glyph name="h" format="2">
  <advance width="459"/>
  <unicode hex="0068"/>
  <anchor x="282.4886377708978" y="755.0" name="top"/>
  <anchor x="251.17448916408668" y="0" name="bottom"/>
  <outline>
    <contour>
      <point x="66.28" y="0.0" type="line" identifier="F4JajglBb8"/>
      <point x="183.35" y="663.93" type="line" smooth="yes" identifier="phkdbeFkWF"/>
      <point x="189.28" y="695.72" identifier="S2twapMBdl"/>
      <point x="178.37" y="707.3" identifier="1JDC367jIW"/>
      <point x="129.44" y="712.65" type="curve" smooth="yes" identifier="gshzYDzNuS"/>
      <point x="119.44" y="713.72" type="line" identifier="e3xxdLYIjW"/>
      <point x="123.51" y="735.0" type="line" identifier="UQZIkVgz6F"/>
      <point x="234.49" y="735.0" type="line" identifier="HOu3Km2uT7"/>
      <point x="104.42" y="0.0" type="line" identifier="PGAjFFytXz"/>
    </contour>
    <contour>
      <point x="379.39" y="117.32" type="line" smooth="yes"/>
      <point x="375.04" y="92.57"/>
      <point x="370.62" y="73.05"/>
      <point x="370.62" y="58.07" type="curve" smooth="yes"/>
      <point x="370.62" y="31.14"/>
      <point x="381.76" y="22.07"/>
      <point x="406.55" y="22.07" type="curve" smooth="yes"/>
      <point x="423.81" y="22.07"/>
      <point x="442.44" y="28.77"/>
      <point x="457.88" y="38.21" type="curve"/>
      <point x="452.88" y="7.42" type="line"/>
      <point x="438.09" y="-1.58"/>
      <point x="417.46" y="-7.0"/>
      <point x="398.9" y="-7.0" type="curve" smooth="yes"/>
      <point x="356.9" y="-7.0"/>
      <point x="335.27" y="11.07"/>
      <point x="335.27" y="56.21" type="curve" smooth="yes"/>
      <point x="335.27" y="70.54"/>
      <point x="337.76" y="93.57"/>
      <point x="342.39" y="117.65" type="curve" smooth="yes"/>
      <point x="385.78" y="346.62" type="line" smooth="yes"/>
      <point x="391.85" y="380.83"/>
      <point x="395.06" y="404.32"/>
      <point x="395.06" y="419.93" type="curve" smooth="yes"/>
      <point x="395.06" y="467.3"/>
      <point x="372.92" y="485.93"/>
      <point x="335.94" y="485.93" type="curve" smooth="yes"/>
      <point x="275.47" y="485.93"/>
      <point x="218.28" y="435.41"/>
      <point x="152.72" y="304.25" type="curve"/>
      <point x="157.74" y="361.94" type="line"/>
      <point x="218.65" y="474.92"/>
      <point x="274.4" y="518.93"/>
      <point x="341.22" y="518.93" type="curve" smooth="yes"/>
      <point x="402.64" y="518.93"/>
      <point x="432.27" y="483.51"/>
      <point x="432.27" y="420.86" type="curve" smooth="yes"/>
      <point x="432.27" y="403.6"/>
      <point x="429.92" y="378.76"/>
      <point x="422.92" y="341.76" type="curve" smooth="yes"/>
    </contour>
  </outline>
</glyph>
<glyph name="k" format="2">
  <advance width="410"/>
  <unicode hex="006B"/>
  <anchor x="217.7771451104101" y="0" name="bottom"/>
  <outline>
    <contour>
      <point x="298.87" y="95.33" type="line" smooth="yes"/>
      <point x="317.78" y="40.63"/>
      <point x="330.41" y="23.93"/>
      <point x="353.62" y="23.93" type="curve" smooth="yes"/>
      <point x="377.69" y="23.93"/>
      <point x="389.81" y="29.7"/>
      <point x="403.11" y="38.14" type="curve"/>
      <point x="398.11" y="7.35" type="line"/>
      <point x="384.32" y="-0.72"/>
      <point x="370.83" y="-7.0"/>
      <point x="346.76" y="-7.0" type="curve" smooth="yes"/>
      <point x="309.2" y="-7.0"/>
      <point x="288.85" y="13.14"/>
      <point x="265.59" y="81.33" type="curve" smooth="yes"/>
      <point x="197.05" y="287.0" type="line"/>
      <point x="197.12" y="292.0" type="line"/>
      <point x="267.03" y="364.0"/>
      <point x="334.22" y="436.0"/>
      <point x="402.27" y="508.0" type="curve"/>
      <point x="443.48" y="508.0" type="line"/>
      <point x="443.48" y="498.0" type="line"/>
      <point x="370.43" y="428.0"/>
      <point x="297.45" y="357.93"/>
      <point x="224.4" y="287.93" type="curve"/>
      <point x="225.26" y="311.0" type="line"/>
    </contour>
    <contour>
      <point x="66.28" y="0.0" type="line"/>
      <point x="183.35" y="663.93" type="line" smooth="yes"/>
      <point x="189.28" y="695.72"/>
      <point x="180.23" y="707.3"/>
      <point x="135.95" y="713.58" type="curve" smooth="yes"/>
      <point x="122.23" y="715.58" type="line"/>
      <point x="126.3" y="735.0" type="line"/>
      <point x="233.56" y="735.0" type="line"/>
      <point x="103.49" y="0.0" type="line"/>
    </contour>
  </outline>
</glyph>
<glyph name="l" format="2">
  <advance width="201"/>
  <unicode hex="006C"/>
  <anchor x="147.7447572815534" y="746.0" name="top"/>
  <anchor x="236.57462783171522" y="735.0" name="right"/>
  <anchor x="273.2261488673139" y="391.0" name="mid"/>
  <anchor x="129.31466019417476" y="0" name="bottom"/>
  <outline>
    <contour>
      <point x="120.56" y="117.18" type="curve" smooth="yes"/>
      <point x="229.65" y="735.0" type="line"/>
      <point x="122.39" y="735.0" type="line"/>
      <point x="118.32" y="715.58" type="line"/>
      <point x="132.04" y="713.58" type="line" smooth="yes"/>
      <point x="176.32" y="707.3"/>
      <point x="185.37" y="695.72"/>
      <point x="179.44" y="663.93" type="curve" smooth="yes"/>
      <point x="82.63" y="112.86" type="line" smooth="yes"/>
      <point x="79.07" y="92.85"/>
      <point x="76.51" y="73.33"/>
      <point x="76.51" y="57.14" type="curve" smooth="yes"/>
      <point x="76.51" y="12.93"/>
      <point x="97.21" y="-7.0"/>
      <point x="141.07" y="-7.0" type="curve" smooth="yes"/>
      <point x="163.35" y="-7.0"/>
      <point x="183.98" y="0.28"/>
      <point x="196.91" y="8.35" type="curve"/>
      <point x="201.91" y="39.14" type="line"/>
      <point x="185.54" y="28.77"/>
      <point x="165.98" y="22.07"/>
      <point x="146.86" y="22.07" type="curve" smooth="yes"/>
      <point x="123.93" y="22.07"/>
      <point x="112.79" y="32.07"/>
      <point x="112.79" y="57.14" type="curve" smooth="yes"/>
      <point x="112.79" y="72.12"/>
      <point x="116.28" y="93.71"/>
    </contour>
  </outline>
</glyph>
<glyph name="p" format="2">
  <advance width="475"/>
  <unicode hex="0070"/>
  <outline>
    <contour>
      <point x="-17.66" y="-223.0" type="line"/>
      <point x="174.93" y="-223.0" type="line"/>
      <point x="178.93" y="-197.86" type="line"/>
      <point x="154.58" y="-197.86" type="line" smooth="yes"/>
      <point x="133.23" y="-197.86"/>
      <point x="94.67" y="-194.86"/>
      <point x="95.67" y="-187.86" type="curve" smooth="yes"/>
      <point x="188.6" y="338.14" type="line"/>
      <point x="187.74" y="344.07" type="line"/>
      <point x="214.81" y="508.0" type="line"/>
      <point x="108.48" y="508.0" type="line"/>
      <point x="104.48" y="488.58" type="line"/>
      <point x="119.13" y="486.58" type="line" smooth="yes"/>
      <point x="159.69" y="481.23"/>
      <point x="172.46" y="468.72"/>
      <point x="166.53" y="436.93" type="curve" smooth="yes"/>
      <point x="62.46" y="-161.86" type="line" smooth="yes"/>
      <point x="57.46" y="-190.86"/>
      <point x="28.9" y="-197.86"/>
      <point x="-10.73" y="-197.86" type="curve" smooth="yes"/>
      <point x="-12.73" y="-197.86" type="line"/>
    </contour>
    <contour>
      <point x="489.01" y="334.09" type="curve" identifier="SIF2wsERkT"/>
      <point x="489.01" y="461.76" identifier="9l39gMhXza"/>
      <point x="440.36" y="518.93" identifier="J91icNwj71"/>
      <point x="366.12" y="518.93" type="curve" smooth="yes" identifier="2dAxS5WTgn"/>
      <point x="289.44" y="518.93" identifier="8YvXCQXqjK"/>
      <point x="225.74" y="465.55" identifier="H9Ltz2Nrlj"/>
      <point x="180.13" y="355.66" type="curve" identifier="brIVUnhMQe"/>
      <point x="176.9" y="309.71" type="line" identifier="5Gp8UvCIJl"/>
      <point x="229.95" y="437.71" identifier="uDuoc5HMHa"/>
      <point x="298.16" y="486.14" identifier="70rrRheYqP"/>
      <point x="360.4" y="486.14" type="curve" smooth="yes" identifier="I6sWP0sn7Y"/>
      <point x="419.73" y="486.14" identifier="FdghCcNXkg"/>
      <point x="449.73" y="439.04" identifier="0czR3WlknB"/>
      <point x="449.73" y="334.09" type="curve" identifier="Tys9py2Do9"/>
      <point x="449.73" y="164.86" identifier="Uq3xQL6eFC"/>
      <point x="366.8" y="18.07" identifier="QrJ50MMmYD"/>
      <point x="257.21" y="18.07" type="curve" smooth="yes" identifier="ZEBObS49hh"/>
      <point x="185.14" y="18.07" identifier="latITyQ145"/>
      <point x="145.74" y="67.14" identifier="PS7k50Tl9A"/>
      <point x="137.53" y="153.42" type="curve" identifier="GK1u3r8Lzr"/>
      <point x="119.32" y="120.49" type="line" identifier="vASXKN5ZAy"/>
      <point x="128.67" y="37.07" identifier="wLeRHc7wYo"/>
      <point x="175.21" y="-11.93" identifier="ESVDYgKxjf"/>
      <point x="256.28" y="-11.93" type="curve" smooth="yes" identifier="tBd7Ao41wk"/>
      <point x="391.38" y="-11.93" identifier="INKeVf1PMV"/>
      <point x="489.01" y="153.44" identifier="OCmaYjQmy1"/>
    </contour>
  </outline>
</glyph>
<glyph name="q" format="2">
  <advance width="453"/>
  <unicode hex="0071"/>
  <outline>
    <contour>
      <point x="210.47" y="-223.0" type="line"/>
      <point x="400.2" y="-223.0" type="line"/>
      <point x="405.13" y="-196.93" type="line"/>
      <point x="404.06" y="-196.93" type="line"/>
      <point x="364.43" y="-196.93"/>
      <point x="338.01" y="-189.93"/>
      <point x="343.01" y="-160.93" type="curve" smooth="yes"/>
      <point x="459.15" y="511.0" type="line"/>
      <point x="433.08" y="511.0" type="line"/>
      <point x="407.94" y="415.07" type="line"/>
      <point x="406.87" y="421.07" type="line"/>
      <point x="300.8" y="-186.93" type="line"/>
      <point x="299.8" y="-193.93"/>
      <point x="260.17" y="-196.93"/>
      <point x="238.82" y="-196.93" type="curve" smooth="yes"/>
      <point x="215.4" y="-196.93" type="line"/>
    </contour>
    <contour>
      <point x="62.32" y="172.91" type="curve" identifier="SIF2wsERkT"/>
      <point x="62.32" y="45.24" identifier="9l39gMhXza"/>
      <point x="110.97" y="-11.93" identifier="J91icNwj71"/>
      <point x="185.21" y="-11.93" type="curve" smooth="yes" identifier="2dAxS5WTgn"/>
      <point x="261.89" y="-11.93" identifier="8YvXCQXqjK"/>
      <point x="325.59" y="41.45" identifier="H9Ltz2Nrlj"/>
      <point x="371.2" y="151.34" type="curve" identifier="brIVUnhMQe"/>
      <point x="374.43" y="197.29" type="line" identifier="5Gp8UvCIJl"/>
      <point x="321.38" y="69.29" identifier="uDuoc5HMHa"/>
      <point x="253.17" y="20.86" identifier="70rrRheYqP"/>
      <point x="190.93" y="20.86" type="curve" smooth="yes" identifier="I6sWP0sn7Y"/>
      <point x="131.6" y="20.86" identifier="FdghCcNXkg"/>
      <point x="101.6" y="67.96" identifier="0czR3WlknB"/>
      <point x="101.6" y="172.91" type="curve" identifier="Tys9py2Do9"/>
      <point x="101.6" y="342.14" identifier="Uq3xQL6eFC"/>
      <point x="184.53" y="488.93" identifier="QrJ50MMmYD"/>
      <point x="294.12" y="488.93" type="curve" smooth="yes" identifier="ZEBObS49hh"/>
      <point x="366.19" y="488.93" identifier="latITyQ145"/>
      <point x="405.59" y="439.86" identifier="PS7k50Tl9A"/>
      <point x="413.8" y="353.58" type="curve" identifier="GK1u3r8Lzr"/>
      <point x="432.01" y="386.51" type="line" identifier="vASXKN5ZAy"/>
      <point x="422.66" y="469.93" identifier="wLeRHc7wYo"/>
      <point x="376.12" y="518.93" identifier="ESVDYgKxjf"/>
      <point x="295.05" y="518.93" type="curve" smooth="yes" identifier="tBd7Ao41wk"/>
      <point x="159.95" y="518.93" identifier="INKeVf1PMV"/>
      <point x="62.32" y="353.56" identifier="OCmaYjQmy1"/>
    </contour>
  </outline>
</glyph>
<glyph name="t" format="2">
  <advance width="289"/>
  <unicode hex="0074"/>
  <anchor x="159.47895442359248" y="675.0" name="top"/>
  <anchor x="282.3680428954424" y="681.0" name="right"/>
  <anchor x="219.84836461126005" y="0" name="bottom"/>
  <outline>
    <contour>
      <point x="185.51" y="-11.0" type="curve" smooth="yes" identifier="wZlrrURc50"/>
      <point x="215.14" y="-11.0" identifier="U1u113OQsx"/>
      <point x="235.98" y="-2.79" identifier="VLTm1pYO0V"/>
      <point x="256.7" y="8.0" type="curve" identifier="rfeW7m5sfR"/>
      <point x="262.63" y="41.79" type="line" identifier="GxAHrLZYu8"/>
      <point x="241.89" y="30.63" identifier="IV0r0TvDu9"/>
      <point x="218.77" y="21.0" identifier="CRaY5AfPtr"/>
      <point x="192.37" y="21.0" type="curve" smooth="yes" identifier="TWeRYztQHm"/>
      <point x="155.88" y="21.0" identifier="jhYF5oJ9lJ"/>
      <point x="142.53" y="39.21" identifier="GUA4RCQbB1"/>
      <point x="142.53" y="80.14" type="curve" smooth="yes" identifier="GPVAIqBPHq"/>
      <point x="142.53" y="92.98" identifier="JssdRPhkx5"/>
      <point x="143.67" y="108.54" identifier="vTvlW1H3lV"/>
      <point x="146.88" y="126.66" type="curve" smooth="yes" identifier="gLovtLGyTZ"/>
      <point x="234.67" y="648.0" type="line" identifier="seroBbMmTO"/>
      <point x="201.46" y="648.0" type="line" identifier="tT1TKd79Ch"/>
      <point x="184.46" y="551.0" type="line" smooth="yes" identifier="l7936evKH7"/>
      <point x="177.46" y="511.0" identifier="NUb2G7AQwj"/>
      <point x="151.48" y="503.0" identifier="pjn3NAh26Z"/>
      <point x="99.13" y="503.0" type="curve" smooth="yes" identifier="eSj3biCQ7N"/>
      <point x="96.13" y="503.0" type="line" identifier="9bBatiYnuk"/>
      <point x="91.2" y="478.93" type="line" identifier="lWxzQZhNVz"/>
      <point x="327.77" y="478.93" type="line" identifier="771wNGfAOX"/>
      <point x="332.77" y="508.0" type="line" identifier="sfLJZvyBlP"/>
      <point x="188.67" y="508.0" type="line" identifier="D8d1np41Ua"/>
      <point x="170.46" y="496.0" type="line" identifier="dvWA3iVZlX"/>
      <point x="108.74" y="129.52" type="line" smooth="yes" identifier="9d7Nwit1cl"/>
      <point x="105.53" y="108.54" identifier="cFRoVVbgoR"/>
      <point x="103.46" y="92.05" identifier="PhZOGUxhyk"/>
      <point x="103.46" y="75.49" type="curve" smooth="yes" identifier="hiIZneK9k1"/>
      <point x="103.46" y="17.72" identifier="oNqqH3Gdhl"/>
      <point x="131.51" y="-11.0" identifier="ZOCmj5ykiY"/>
    </contour>
  </outline>
</glyph>
<glyph name="x" format="2">
  <advance width="386"/>
  <unicode hex="0078"/>
  <outline>
    <contour>
      <point x="243.84" y="251.0" type="line"/>
      <point x="421.08" y="503.0" type="line"/>
      <point x="421.08" y="508.0" type="line"/>
      <point x="380.8" y="508.0" type="line"/>
      <point x="239.84" y="284.07" type="line"/>
    </contour>
    <contour>
      <point x="32.46" y="0.0" type="line"/>
      <point x="73.67" y="0.0" type="line"/>
      <point x="227.84" y="243.93" type="line"/>
      <point x="222.84" y="278.0" type="line"/>
      <point x="32.46" y="5.0" type="line"/>
    </contour>
    <contour>
      <point x="345.5" y="-7.0" type="curve"/>
      <point x="363.64" y="-7.0"/>
      <point x="381.85" y="2.0"/>
      <point x="391.85" y="9.14" type="curve"/>
      <point x="395.92" y="37.14" type="line"/>
      <point x="386.27" y="28.7"/>
      <point x="371.57" y="22.07"/>
      <point x="352.29" y="22.07" type="curve" smooth="yes"/>
      <point x="328.01" y="22.07"/>
      <point x="314.8" y="44.07"/>
      <point x="302.68" y="83.1" type="curve" smooth="yes"/>
      <point x="177.95" y="508.0" type="line"/>
      <point x="100.25" y="508.0" type="line"/>
      <point x="96.18" y="487.65" type="line"/>
      <point x="105.25" y="485.65" type="line" smooth="yes"/>
      <point x="146.88" y="476.58"/>
      <point x="153.16" y="467.65"/>
      <point x="162.3" y="436.93" type="curve" smooth="yes"/>
      <point x="265.82" y="80.4" type="line" smooth="yes"/>
      <point x="285.01" y="13.07"/>
      <point x="305.01" y="-7.0"/>
    </contour>
  </outline>
</glyph>
<glyph name="z" format="2">
  <advance width="399"/>
  <unicode hex="007A"/>
  <anchor x="242.7536170212766" y="508.0" name="top"/>
  <anchor x="247.87436170212766" y="0" name="bottom"/>
  <outline>
    <contour>
      <point x="290.4" y="-12.0" type="curve" smooth="yes"/>
      <point x="370.52" y="-12.0"/>
      <point x="414.36" y="54.07"/>
      <point x="412.59" y="151.35" type="curve"/>
      <point x="387.52" y="157.42" type="line"/>
      <point x="380.8" y="74.07"/>
      <point x="349.38" y="24.14"/>
      <point x="291.33" y="24.14" type="curve" smooth="yes"/>
      <point x="240.56" y="24.14"/>
      <point x="198.86" y="54.14"/>
      <point x="142.53" y="116.14" type="curve"/>
      <point x="121.11" y="97.63" type="line"/>
      <point x="177.79" y="29.42"/>
      <point x="228.42" y="-12.0"/>
    </contour>
    <contour>
      <point x="68.55" y="0.0" type="line"/>
      <point x="432.38" y="479.93" type="line"/>
      <point x="437.38" y="508.0" type="line"/>
      <point x="146.69" y="508.0" type="line"/>
      <point x="120.69" y="363.93" type="line"/>
      <point x="146.83" y="363.93" type="line"/>
      <point x="168.04" y="435.93" type="line" smooth="yes"/>
      <point x="179.11" y="471.93"/>
      <point x="206.53" y="478.93"/>
      <point x="277.72" y="478.93" type="curve" smooth="yes"/>
      <point x="410.45" y="478.93" type="line"/>
      <point x="399.24" y="493.93" type="line"/>
      <point x="53.34" y="33.07" type="line"/>
      <point x="47.48" y="0.0" type="line"/>
    </contour>
  </outline>
</glyph>
<glyph name="braceleft" format="2">
  <advance width="257"/>
  <unicode hex="007B"/>
  <guideline x="77.53" y="283.39" angle="0" identifier="GuzelN8LUO"/>
  <guideline x="270.63" y="415.38" angle="0" identifier="wsxRJC3MfT"/>
  <guideline x="95.78999999999999" y="280.62" angle="0" identifier="USEQlNU1aK"/>
  <outline>
    <contour>
      <point x="212.12" y="251.86" type="curve" smooth="yes"/>
      <point x="213.04989131760706" y="268.92815239931997"/>
      <point x="200.69074523153753" y="275.88407209812345"/>
      <point x="126.37" y="307.93" type="curve"/>
      <point x="126.44" y="311.93" type="line"/>
      <point x="221.58017879129696" y="337.22900675597623"/>
      <point x="231.0500641150087" y="343.93128230017385"/>
      <point x="231.98" y="364.0" type="curve" smooth="yes"/>
      <point x="232.909939005915" y="395.06810918336475"/>
      <point x="184.23020434237438" y="518.9359940429824"/>
      <point x="187.02" y="606.86" type="curve" smooth="yes"/>
      <point x="190.74" y="680.86"/>
      <point x="241.51" y="728.79"/>
      <point x="324.56" y="727.86" type="curve" smooth="yes"/>
      <point x="332.84" y="727.86"/>
      <point x="342.12" y="727.86"/>
      <point x="351.4" y="725.86" type="curve"/>
      <point x="349.33" y="750.93" type="line"/>
      <point x="339.05" y="752.93"/>
      <point x="329.7" y="753.93"/>
      <point x="319.42" y="753.93" type="curve" smooth="yes"/>
      <point x="227.58" y="753.93"/>
      <point x="154.46" y="707.86"/>
      <point x="149.81" y="606.86" type="curve" smooth="yes"/>
      <point x="147.02022437457367" y="529.8657589473912"/>
      <point x="182.2010495263745" y="441.61580189450194"/>
      <point x="203.91" y="357.93" type="curve"/>
      <point x="212.98" y="369.65" type="line"/>
      <point x="79.6" y="321.0" type="line"/>
      <point x="76.6" y="304.93" type="line"/>
      <point x="192.05" y="244.93" type="line"/>
      <point x="185.98" y="253.93" type="line"/>
      <point x="120.22647391846152" y="155.5581679681183"/>
      <point x="42.94984254662391" y="70.99657538907005"/>
      <point x="39.23" y="-16.0" type="curve" smooth="yes"/>
      <point x="35.51" y="-96.07"/>
      <point x="89.21" y="-142.07"/>
      <point x="198.03" y="-143.07" type="curve"/>
      <point x="198.03" y="-143.07" type="line"/>
      <point x="205.1" y="-119.0" type="line"/>
      <point x="205.1" y="-119.0" type="line"/>
      <point x="111.35" y="-117.0"/>
      <point x="73.72" y="-77.0"/>
      <point x="76.51" y="-15.0" type="curve" smooth="yes"/>
      <point x="80.22986868594506" y="83.99674997714037"/>
      <point x="211.1900223554179" y="221.79067066253745"/>
    </contour>
  </outline>
</glyph>
<glyph name="currency" format="2">
  <advance width="460"/>
  <unicode hex="00A4"/>
  <outline>
    <contour>
      <point x="73.13" y="126.93" type="line"/>
      <point x="179.67" y="234.93" type="line"/>
      <point x="152.32" y="255.07" type="line"/>
      <point x="51.92" y="155.0" type="line"/>
    </contour>
    <contour>
      <point x="128.99" y="601.93" type="line"/>
      <point x="192.25" y="504.93" type="line"/>
      <point x="221.39" y="528.0" type="line"/>
      <point x="157.13" y="626.0" type="line"/>
    </contour>
    <contour>
      <point x="415.06" y="132.53" type="curve"/>
      <point x="409.04" y="132.53"/>
      <point x="430.04" y="158.12"/>
      <point x="430.04" y="165.19" type="curve"/>
      <point x="430.04" y="172.26"/>
      <point x="380.14" y="262.42"/>
      <point x="387.7" y="262.42" type="curve"/>
      <point x="393.72" y="262.42"/>
      <point x="369.93" y="238.69"/>
      <point x="369.93" y="231.62" type="curve"/>
      <point x="369.93" y="224.55"/>
      <point x="422.62" y="132.53"/>
    </contour>
    <contour>
      <point x="512.71" y="568.11" type="curve"/>
      <point x="521.46" y="568.11"/>
      <point x="509.44" y="601.01"/>
      <point x="509.44" y="609.2" type="curve"/>
      <point x="509.44" y="617.53"/>
      <point x="403.77" y="521.55"/>
      <point x="396.07" y="521.55" type="curve"/>
      <point x="387.32" y="521.55"/>
      <point x="406.78" y="495.16"/>
      <point x="406.78" y="486.97" type="curve"/>
      <point x="406.78" y="478.64"/>
      <point x="505.01" y="568.11"/>
    </contour>
    <contour>
      <point x="290.58" y="198.54" type="curve" smooth="yes"/>
      <point x="223.62" y="198.54"/>
      <point x="182.94" y="246.79"/>
      <point x="182.94" y="343.51" type="curve" smooth="yes"/>
      <point x="182.94" y="430.93"/>
      <point x="220.47" y="527.51"/>
      <point x="312.54" y="527.51" type="curve" smooth="yes"/>
      <point x="379.5" y="527.51"/>
      <point x="419.97" y="479.47"/>
      <point x="419.97" y="382.75" type="curve" smooth="yes"/>
      <point x="419.97" y="295.33"/>
      <point x="382.65" y="198.54"/>
    </contour>
    <contour>
      <point x="297.28" y="200.82" type="curve" smooth="yes"/>
      <point x="406.09" y="200.82"/>
      <point x="463.93" y="305.15"/>
      <point x="463.93" y="411.17" type="curve" smooth="yes"/>
      <point x="463.93" y="520.91"/>
      <point x="397.31" y="577.45"/>
      <point x="313.61" y="577.45" type="curve" smooth="yes"/>
      <point x="204.8" y="577.45"/>
      <point x="147.52" y="473.61"/>
      <point x="147.52" y="367.59" type="curve" smooth="yes"/>
      <point x="147.52" y="257.85"/>
      <point x="213.58" y="200.82"/>
    </contour>
  </outline>
</glyph>
<glyph name="yen" format="2">
  <advance width="460"/>
  <unicode hex="00A5"/>
  <outline>
    <contour>
      <point x="50.860644048585215" y="206.07" type="line"/>
      <point x="45.01307765339603" y="177.0" type="line"/>
      <point x="377.1230776533961" y="177.0" type="line"/>
      <point x="382.0406440485852" y="206.07" type="line"/>
    </contour>
    <contour>
      <point x="74.24389103258889" y="344.0" type="line"/>
      <point x="69.32632463739971" y="314.93" type="line"/>
      <point x="400.5063246373997" y="314.93" type="line"/>
      <point x="405.4238910325889" y="344.0" type="line"/>
    </contour>
    <contour>
      <point x="222.93924959711077" y="350.07" type="line"/>
      <point x="172.97971778232056" y="65.07" type="line" smooth="yes"/>
      <point x="168.9921513871314" y="36.07"/>
      <point x="136.2975663951892" y="29.07"/>
      <point x="96.59756639518919" y="29.07" type="curve" smooth="yes"/>
      <point x="84.45756639518919" y="29.07" type="line"/>
      <point x="78.54" y="0.0" type="line"/>
      <point x="282.41" y="0.0" type="line"/>
      <point x="288.32756639518914" y="29.07" type="line"/>
      <point x="273.11756639518916" y="29.07" type="line" smooth="yes"/>
      <point x="233.41756639518917" y="29.07"/>
      <point x="206.20215138713138" y="36.07"/>
      <point x="211.11971778232058" y="65.07" type="curve" smooth="yes"/>
      <point x="260.1492495971108" y="350.07" type="line"/>
    </contour>
    <contour>
      <point x="245.00400391966068" y="318.0" type="line"/>
      <point x="439.5649135490026" y="639.93" type="line" smooth="yes"/>
      <point x="462.99629136355435" y="676.93"/>
      <point x="487.6031970732356" y="680.93"/>
      <point x="515.0931970732356" y="680.93" type="curve" smooth="yes"/>
      <point x="519.1631970732356" y="680.93" type="line"/>
      <point x="526.0107634684248" y="710.0" type="line"/>
      <point x="349.2107634684248" y="710.0" type="line"/>
      <point x="343.2931970732356" y="680.93" type="line"/>
      <point x="355.5031970732356" y="680.93" type="line" smooth="yes"/>
      <point x="386.0631970732356" y="680.93"/>
      <point x="421.48861208129335" y="673.93"/>
      <point x="419.1671213796699" y="662.93" type="curve"/>
      <point x="227.32007961322637" y="336.07" type="line"/>
      <point x="254.92157031484984" y="347.07" type="line"/>
      <point x="172.85093279903242" y="670.93" type="line"/>
      <point x="174.05551779097462" y="677.93"/>
      <point x="211.8431970732356" y="680.93"/>
      <point x="241.33319707323557" y="680.93" type="curve" smooth="yes"/>
      <point x="254.61319707323557" y="680.93" type="line"/>
      <point x="260.53076346842477" y="710.0" type="line"/>
      <point x="81.80076346842476" y="710.0" type="line"/>
      <point x="75.88319707323558" y="680.93" type="line"/>
      <point x="79.95319707323559" y="680.93" type="line" smooth="yes"/>
      <point x="107.44319707323558" y="680.93"/>
      <point x="128.8924235006559" y="681.93"/>
      <point x="137.24330996030736" y="654.93" type="curve" smooth="yes"/>
      <point x="226.00400391966068" y="318.0" type="line"/>
    </contour>
  </outline>
</glyph>
<glyph name="dieresis" format="2">
  <advance width="410"/>
  <unicode hex="00A8"/>
  <anchor x="217.94310082308652" y="526.0" name="_top"/>
  <outline>
    <contour>
      <point x="157.56" y="652.35" type="curve" smooth="yes"/>
      <point x="179.63" y="652.35"/>
      <point x="196.63" y="665.42"/>
      <point x="196.63" y="694.21" type="curve" smooth="yes"/>
      <point x="196.63" y="720.21"/>
      <point x="181.49" y="737.0"/>
      <point x="160.35" y="737.0" type="curve" smooth="yes"/>
      <point x="138.28" y="737.0"/>
      <point x="121.28" y="720.21"/>
      <point x="121.28" y="694.21" type="curve" smooth="yes"/>
      <point x="121.28" y="665.42"/>
      <point x="136.42" y="652.35"/>
    </contour>
    <contour>
      <point x="311.73" y="652.35" type="curve" smooth="yes"/>
      <point x="333.8" y="652.35"/>
      <point x="350.8" y="665.42"/>
      <point x="350.8" y="694.21" type="curve" smooth="yes"/>
      <point x="350.8" y="720.21"/>
      <point x="335.66" y="737.0"/>
      <point x="314.52" y="737.0" type="curve" smooth="yes"/>
      <point x="292.45" y="737.0"/>
      <point x="275.45" y="720.21"/>
      <point x="275.45" y="694.21" type="curve" smooth="yes"/>
      <point x="275.45" y="665.42"/>
      <point x="290.59" y="652.35"/>
    </contour>
  </outline>
</glyph>
<glyph name="copyright" format="2">
  <advance width="689"/>
  <unicode hex="00A9"/>
  <outline>
    <contour>
      <point x="366.486912242449" y="533.93" type="curve" smooth="yes"/>
      <point x="419.326912242449" y="533.93"/>
      <point x="453.90476085531765" y="497.93"/>
      <point x="465.33194878267835" y="436.93" type="curve"/>
      <point x="498.82194878267836" y="436.93" type="line"/>
      <point x="502.18298793601474" y="552.0" type="line"/>
      <point x="479.9729879360147" y="552.0" type="line"/>
      <point x="469.73498662946116" y="446.0" type="line"/>
      <point x="483.9511187665628" y="450.93" type="line"/>
      <point x="472.81619511340523" y="522.0"/>
      <point x="422.2444786376382" y="563.0"/>
      <point x="366.40447863763825" y="563.0" type="curve" smooth="yes"/>
      <point x="275.9344786376382" y="563.0"/>
      <point x="207.34177945207068" y="476.0"/>
      <point x="203.77615530679205" y="354.0" type="curve" smooth="yes"/>
      <point x="200.18130473409312" y="231.0"/>
      <point x="266.84628483078654" y="147.0"/>
      <point x="362.3862848307865" y="147.0" type="curve" smooth="yes"/>
      <point x="433.4362848307865" y="147.0"/>
      <point x="488.8545119114836" y="201.07"/>
      <point x="503.0811354034855" y="270.07" type="curve"/>
      <point x="481.2218525325293" y="282.07" type="line"/>
      <point x="465.141361177629" y="218.07"/>
      <point x="424.21385122597576" y="176.07"/>
      <point x="366.30385122597573" y="176.07" type="curve" smooth="yes"/>
      <point x="285.83385122597576" y="176.07"/>
      <point x="238.87047471797757" y="245.07"/>
      <point x="242.05615530679205" y="354.0" type="curve" smooth="yes"/>
      <point x="245.27106232302688" y="464.0"/>
      <point x="296.22691224244903" y="533.93"/>
    </contour>
    <contour>
      <point x="78.35538173421239" y="355.0" type="curve" smooth="yes"/>
      <point x="84.22989364569601" y="555.93"/>
      <point x="206.66153704100444" y="708.93"/>
      <point x="369.4615370410044" y="708.93" type="curve" smooth="yes"/>
      <point x="531.3315370410045" y="708.93"/>
      <point x="643.889893645696" y="555.93"/>
      <point x="638.0153817342124" y="355.0" type="curve" smooth="yes"/>
      <point x="632.1408698227287" y="154.07"/>
      <point x="510.63922642742034" y="1.07"/>
      <point x="348.76922642742034" y="1.07" type="curve" smooth="yes"/>
      <point x="185.96922642742032" y="1.07"/>
      <point x="72.48086982272875" y="154.07"/>
    </contour>
    <contour>
      <point x="47.00538173421238" y="355.0" type="curve" smooth="yes"/>
      <point x="40.663246984003685" y="138.0"/>
      <point x="171.05166003223113" y="-28.0"/>
      <point x="347.92166003223116" y="-28.0" type="curve" smooth="yes"/>
      <point x="523.8616600322312" y="-28.0"/>
      <point x="663.9532469840036" y="138.0"/>
      <point x="670.2953817342124" y="355.0" type="curve" smooth="yes"/>
      <point x="676.6375164844211" y="572.0"/>
      <point x="546.2491034361936" y="738.0"/>
      <point x="370.3091034361936" y="738.0" type="curve" smooth="yes"/>
      <point x="193.43910343619362" y="738.0"/>
      <point x="53.34751648442108" y="572.0"/>
    </contour>
  </outline>
</glyph>
<glyph name="ordfeminine" format="2">
  <advance width="375"/>
  <unicode hex="00AA"/>
  <outline>
    <contour>
      <point x="380.4" y="324.93" type="curve" smooth="yes"/>
      <point x="398.61" y="324.93"/>
      <point x="417.89" y="332.0"/>
      <point x="425.96" y="339.0" type="curve"/>
      <point x="429.96" y="363.07" type="line"/>
      <point x="424.89" y="361.07"/>
      <point x="408.61" y="349.07"/>
      <point x="389.33" y="349.07" type="curve" smooth="yes"/>
      <point x="374.12" y="349.07"/>
      <point x="366.84" y="358.0"/>
      <point x="366.84" y="374.07" type="curve" smooth="yes"/>
      <point x="366.84" y="392.07"/>
      <point x="370.84" y="413.07"/>
      <point x="373.84" y="432.07" type="curve" smooth="yes"/>
      <point x="423.2184427506857" y="713.0" type="line"/>
      <point x="401.0784427506857" y="713.0" type="line"/>
      <point x="381.42" y="646.0" type="line"/>
      <point x="375.67646069416196" y="638.0" type="line"/>
      <point x="345.56" y="466.65" type="line"/>
      <point x="345.0133830407659" y="460.93" type="line"/>
      <point x="339.1250430729971" y="432.93"/>
      <point x="330.63" y="393.0"/>
      <point x="330.63" y="372.0" type="curve" smooth="yes"/>
      <point x="330.63" y="337.07"/>
      <point x="349.98" y="324.93"/>
    </contour>
    <contour>
      <point x="218.78090962934195" y="321.93" type="curve" smooth="yes"/>
      <point x="277.83090962934193" y="321.93"/>
      <point x="320.35" y="381.28"/>
      <point x="360.98" y="482.35" type="curve"/>
      <point x="357.871610121463" y="515.0" type="line"/>
      <point x="317.14" y="414.28"/>
      <point x="274.53234388742953" y="346.07"/>
      <point x="223.55234388742954" y="346.07" type="curve" smooth="yes"/>
      <point x="185.78234388742953" y="346.07"/>
      <point x="168.34" y="389.0"/>
      <point x="168.7641566133456" y="460.0" type="curve" smooth="yes"/>
      <point x="168.34" y="569.93"/>
      <point x="223.47236705712" y="694.93"/>
      <point x="303.01236705712" y="694.93" type="curve" smooth="yes"/>
      <point x="343.64236705712" y="694.93"/>
      <point x="374.091762815148" y="656.93"/>
      <point x="377.2151393231461" y="587.93" type="curve"/>
      <point x="396.0042528634947" y="615.0" type="line"/>
      <point x="388.9508763554965" y="683.93"/>
      <point x="353.3730277426279" y="720.0"/>
      <point x="303.74302774262793" y="720.0" type="curve" smooth="yes"/>
      <point x="205.13302774262792" y="720.0"/>
      <point x="131.13" y="583.07"/>
      <point x="131.5541566133456" y="460.0" type="curve" smooth="yes"/>
      <point x="131.13" y="376.86"/>
      <point x="158.94090962934195" y="321.93"/>
    </contour>
  </outline>
</glyph>
<glyph name="registered" format="2">
  <advance width="689"/>
  <unicode hex="00AE"/>
  <outline>
    <contour>
      <point x="47.00538173421238" y="355.0" type="curve" smooth="yes"/>
      <point x="40.663246984003685" y="138.0"/>
      <point x="171.05166003223113" y="-28.0"/>
      <point x="347.92166003223116" y="-28.0" type="curve" smooth="yes"/>
      <point x="523.8616600322312" y="-28.0"/>
      <point x="663.9532469840036" y="138.0"/>
      <point x="670.2953817342124" y="355.0" type="curve" smooth="yes"/>
      <point x="676.6375164844211" y="572.0"/>
      <point x="546.2491034361936" y="738.0"/>
      <point x="370.3091034361936" y="738.0" type="curve" smooth="yes"/>
      <point x="193.43910343619362" y="738.0"/>
      <point x="53.34751648442108" y="572.0"/>
    </contour>
    <contour>
      <point x="223.25164339530843" y="153.0" type="line"/>
      <point x="359.35164339530843" y="153.0" type="line"/>
      <point x="360.1115305082366" y="179.07" type="line"/>
      <point x="341.6215305082366" y="179.07" type="line" smooth="yes"/>
      <point x="325.41153050823664" y="179.07"/>
      <point x="305.09075693565694" y="180.07"/>
      <point x="305.20766264533825" y="184.07" type="curve" smooth="yes"/>
      <point x="309.2701360567623" y="322.93" type="line"/>
      <point x="362.3901360567623" y="322.93" type="line" smooth="yes"/>
      <point x="435.5101360567623" y="322.93"/>
      <point x="488.6245517180968" y="369.0"/>
      <point x="490.7873073472002" y="443.0" type="curve" smooth="yes"/>
      <point x="492.89161012146303" y="515.0"/>
      <point x="446.41912007311635" y="557.0"/>
      <point x="372.2291200731163" y="557.0" type="curve" smooth="yes"/>
      <point x="235.0591200731163" y="557.0" type="line"/>
      <point x="234.2992329601881" y="530.93" type="line"/>
      <point x="239.3692329601881" y="530.93" type="line" smooth="yes"/>
      <point x="261.78923296018814" y="530.93"/>
      <point x="278.95232725050687" y="526.93"/>
      <point x="278.48470441178176" y="510.93" type="curve" smooth="yes"/>
      <point x="269.366059056643" y="199.07" type="line" smooth="yes"/>
      <point x="268.89843621791795" y="183.07"/>
      <point x="251.50153050823667" y="179.07"/>
      <point x="229.08153050823668" y="179.07" type="curve" smooth="yes"/>
      <point x="224.01153050823666" y="179.07" type="line"/>
    </contour>
    <contour>
      <point x="371.3815536779272" y="527.93" type="line" smooth="yes"/>
      <point x="427.4315536779272" y="527.93"/>
      <point x="453.2901194198395" y="503.93"/>
      <point x="451.5073073472002" y="443.0" type="curve" smooth="yes"/>
      <point x="449.7829481294015" y="384.0"/>
      <point x="422.2877024519514" y="352.0"/>
      <point x="363.2377024519514" y="352.0" type="curve" smooth="yes"/>
      <point x="310.1177024519514" y="352.0" type="line"/>
      <point x="315.26155367792717" y="527.93" type="line"/>
    </contour>
    <contour>
      <point x="78.35538173421239" y="355.0" type="curve" smooth="yes"/>
      <point x="84.22989364569601" y="555.93"/>
      <point x="206.66153704100444" y="708.93"/>
      <point x="369.4615370410044" y="708.93" type="curve" smooth="yes"/>
      <point x="531.3315370410045" y="708.93"/>
      <point x="643.889893645696" y="555.93"/>
      <point x="638.0153817342124" y="355.0" type="curve" smooth="yes"/>
      <point x="632.1408698227287" y="154.07"/>
      <point x="510.63922642742034" y="1.07"/>
      <point x="348.76922642742034" y="1.07" type="curve" smooth="yes"/>
      <point x="185.96922642742032" y="1.07"/>
      <point x="72.48086982272875" y="154.07"/>
    </contour>
    <contour>
      <point x="367.986211750328" y="341.0" type="line"/>
      <point x="439.8624169678881" y="152.0" type="line"/>
      <point x="500.5624169678881" y="152.0" type="line"/>
      <point x="501.3223040808163" y="178.07" type="line"/>
      <point x="494.1823040808163" y="178.07" type="line" smooth="yes"/>
      <point x="481.04230408081634" y="178.07"/>
      <point x="468.9899833630773" y="181.07"/>
      <point x="464.2299269195414" y="194.07" type="curve" smooth="yes"/>
      <point x="401.5407967422701" y="348.0" type="line"/>
    </contour>
  </outline>
</glyph>
<glyph name="degree" format="2">
  <advance width="330"/>
  <unicode hex="00B0"/>
  <outline>
    <contour>
      <point x="184.85321371015826" y="499.79" type="curve" smooth="yes"/>
      <point x="135.08321371015828" y="499.79"/>
      <point x="102.76227080697095" y="539.79"/>
      <point x="104.51585645218995" y="599.86" type="curve" smooth="yes"/>
      <point x="106.29866852482924" y="660.86"/>
      <point x="140.9577256216419" y="700.86"/>
      <point x="190.72772562164192" y="700.86" type="curve" smooth="yes"/>
      <point x="239.56772562164193" y="700.86"/>
      <point x="271.88866852482926" y="660.86"/>
      <point x="270.1058564521899" y="599.86" type="curve" smooth="yes"/>
      <point x="268.3522708069709" y="539.79"/>
      <point x="233.69321371015826" y="499.79"/>
    </contour>
    <contour>
      <point x="184.0348737423894" y="471.65" type="curve" smooth="yes"/>
      <point x="248.80487374238942" y="471.65"/>
      <point x="301.95464796824587" y="523.72"/>
      <point x="304.1758564521899" y="599.86" type="curve" smooth="yes"/>
      <point x="306.42629136355436" y="676.93"/>
      <point x="256.31606558941075" y="729.0"/>
      <point x="191.54606558941077" y="729.0" type="curve" smooth="yes"/>
      <point x="126.77606558941078" y="729.0"/>
      <point x="73.62629136355432" y="676.93"/>
      <point x="71.37585645218995" y="599.86" type="curve" smooth="yes"/>
      <point x="69.15464796824588" y="523.72"/>
      <point x="119.26487374238943" y="471.65"/>
    </contour>
  </outline>
</glyph>
<glyph name="AE" format="2">
  <advance width="797"/>
  <unicode hex="00C6"/>
  <anchor x="584.5838297872341" y="741.0" name="top"/>
  <outline>
    <contour>
      <point x="266.09" y="298.0" type="line"/>
      <point x="243.95" y="268.93" type="line"/>
      <point x="475.73" y="268.93" type="line"/>
      <point x="480.73" y="298.0" type="line"/>
    </contour>
    <contour>
      <point x="506.59" y="377.07" type="curve"/>
      <point x="501.59" y="350.93" type="line"/>
      <point x="575.78" y="349.93"/>
      <point x="645.18" y="347.93"/>
      <point x="715.51" y="346.93" type="curve"/>
      <point x="721.58" y="381.07" type="line"/>
      <point x="649.32" y="380.07"/>
      <point x="579.78" y="378.07"/>
    </contour>
    <contour>
      <point x="14.66" y="0.0" type="line"/>
      <point x="183.11" y="0.0" type="line"/>
      <point x="188.18" y="26.28" type="line"/>
      <point x="175.04" y="26.28" type="line" smooth="yes"/>
      <point x="144.48" y="26.28"/>
      <point x="108.78" y="33.28"/>
      <point x="109.85" y="47.07" type="curve"/>
      <point x="538.45" y="675.86" type="line"/>
      <point x="540.52" y="675.86" type="line"/>
      <point x="432.52" y="63.21" type="line" smooth="yes"/>
      <point x="427.52" y="34.21"/>
      <point x="397.03" y="26.28"/>
      <point x="356.4" y="26.28" type="curve" smooth="yes"/>
      <point x="347.26" y="26.28" type="line"/>
      <point x="342.19" y="0.0" type="line"/>
      <point x="749.56" y="0.0" type="line"/>
      <point x="782.63" y="187.07" type="line"/>
      <point x="757.49" y="187.07" type="line"/>
      <point x="730.28" y="78.58" type="line" smooth="yes"/>
      <point x="720.35" y="39.79"/>
      <point x="696.37" y="29.07"/>
      <point x="619.67" y="29.07" type="curve" smooth="yes"/>
      <point x="463.73" y="29.07" type="line"/>
      <point x="579.59" y="680.93" type="line"/>
      <point x="703.46" y="680.93" type="line" smooth="yes"/>
      <point x="783.88" y="680.93"/>
      <point x="802.14" y="671.14"/>
      <point x="798.21" y="627.7" type="curve" smooth="yes"/>
      <point x="791.21" y="547.93" type="line"/>
      <point x="815.35" y="547.93" type="line"/>
      <point x="844.35" y="710.0" type="line"/>
      <point x="414.56" y="710.0" type="line"/>
      <point x="409.49" y="683.72" type="line"/>
      <point x="419.7" y="683.72" type="line" smooth="yes"/>
      <point x="471.7" y="683.72"/>
      <point x="490.89" y="677.65"/>
      <point x="492.68" y="658.72" type="curve"/>
      <point x="89.64" y="72.07" type="line" smooth="yes"/>
      <point x="62.57" y="32.49"/>
      <point x="50.29" y="26.28"/>
      <point x="24.73" y="26.28" type="curve" smooth="yes"/>
      <point x="18.8" y="26.28" type="line"/>
    </contour>
  </outline>
</glyph>
<glyph name="icircumflex" format="2">
  <advance width="222"/>
  <unicode hex="00EE"/>
  <outline>
    <contour>
      <point x="201.18832986361394" y="739.0" type="line"/>
      <point x="261.3396678715524" y="607.93" type="line"/>
      <point x="259.04740359734933" y="597.93" type="line"/>
      <point x="238.90740359734932" y="597.93" type="line"/>
      <point x="157.23683916199045" y="727.86" type="line"/>
      <point x="187.93683916199046" y="727.86" type="line"/>
      <point x="57.89740359734931" y="597.93" type="line"/>
      <point x="39.75740359734931" y="597.93" type="line"/>
      <point x="42.04966787155247" y="607.93" type="line"/>
      <point x="148.41832986361393" y="739.0" type="line"/>
    </contour>
    <component base="dotlessi" yxScale="0.029226427420316562"/>
  </outline>
</glyph>
<glyph name="idieresis" format="2">
  <advance width="222"/>
  <unicode hex="00EF"/>
  <outline>
    <contour>
      <point x="80.03021566998862" y="658.86" type="curve" smooth="yes"/>
      <point x="100.24021566998861" y="658.86"/>
      <point x="114.85938565387305" y="672.86"/>
      <point x="115.59004633938096" y="697.93" type="curve" smooth="yes"/>
      <point x="116.34993345230919" y="723.93"/>
      <point x="102.5198770087733" y="737.0"/>
      <point x="82.30987700877331" y="737.0" type="curve" smooth="yes"/>
      <point x="62.099877008773305" y="737.0"/>
      <point x="46.57993345230919" y="723.93"/>
      <point x="45.820046339380966" y="697.93" type="curve" smooth="yes"/>
      <point x="45.08938565387305" y="672.86"/>
      <point x="59.82021566998862" y="658.86"/>
    </contour>
    <contour>
      <point x="232.3402156699886" y="658.86" type="curve" smooth="yes"/>
      <point x="252.5502156699886" y="658.86"/>
      <point x="268.09938565387307" y="672.86"/>
      <point x="268.830046339381" y="697.93" type="curve" smooth="yes"/>
      <point x="269.5899334523092" y="723.93"/>
      <point x="254.8298770087733" y="737.0"/>
      <point x="234.6198770087733" y="737.0" type="curve" smooth="yes"/>
      <point x="214.4098770087733" y="737.0"/>
      <point x="198.88993345230918" y="723.93"/>
      <point x="198.13004633938095" y="697.93" type="curve" smooth="yes"/>
      <point x="197.39938565387305" y="672.86"/>
      <point x="212.13021566998862" y="658.86"/>
    </contour>
    <component base="dotlessi" yxScale="0.029226427420316562"/>
  </outline>
</glyph>
<glyph name="thorn" format="2">
  <advance width="448"/>
  <unicode hex="00FE"/>
  <outline>
    <contour>
      <point x="-39.05" y="-223.0" type="line"/>
      <point x="153.54" y="-223.0" type="line"/>
      <point x="157.54" y="-197.86" type="line"/>
      <point x="133.19" y="-197.86" type="line" smooth="yes"/>
      <point x="111.84" y="-197.86"/>
      <point x="73.263739141288" y="-194.85740031214"/>
      <point x="74.28" y="-187.86" type="curve" smooth="yes"/>
      <point x="235.42" y="735.0" type="line"/>
      <point x="124.44" y="735.0" type="line"/>
      <point x="120.37" y="713.72" type="line"/>
      <point x="130.37" y="712.65" type="line" smooth="yes"/>
      <point x="179.30549230598" y="707.32690153879"/>
      <point x="190.21981690549" y="695.71828296706"/>
      <point x="184.28" y="663.93" type="curve" smooth="yes"/>
      <point x="41.07" y="-161.86" type="line" smooth="yes"/>
      <point x="36.060183094538" y="-190.85828296706"/>
      <point x="7.51" y="-197.86"/>
      <point x="-32.12" y="-197.86" type="curve" smooth="yes"/>
      <point x="-34.12" y="-197.86" type="line"/>
    </contour>
    <contour>
      <point x="332.54" y="480.97" type="curve" smooth="yes"/>
      <point x="271.41" y="480.97"/>
      <point x="223.96" y="422.21"/>
      <point x="173.74" y="319.21" type="curve"/>
      <point x="173.74" y="326.91"/>
      <point x="171.59" y="292.94"/>
      <point x="164.31" y="292.94" type="curve"/>
      <point x="210.39" y="406.4"/>
      <point x="261.08" y="482.29"/>
      <point x="321.49" y="472.84" type="curve" smooth="yes"/>
      <point x="372.64" y="472.84"/>
      <point x="401.96" y="425.03"/>
      <point x="401.96" y="341.33" type="curve" smooth="yes"/>
      <point x="406.65" y="192.19"/>
      <point x="320.48" y="49.970000000000006"/>
      <point x="230.2" y="49.970000000000006" type="curve" smooth="yes"/>
      <point x="182.58" y="50.900000000000006"/>
      <point x="149.34" y="91.22"/>
      <point x="141.9" y="162.97" type="curve"/>
      <point x="141.9" y="151.84"/>
      <point x="119.42" y="111.07"/>
      <point x="109.34" y="111.07" type="curve"/>
      <point x="112.6" y="35.74"/>
      <point x="149.46" y="-6.329999999999999"/>
      <point x="210.07" y="-0.9599999999999991" type="curve" smooth="yes"/>
      <point x="329.11" y="-0.9599999999999991"/>
      <point x="434.59" y="153.97"/>
      <point x="434.59" y="329.74" type="curve" smooth="yes"/>
      <point x="435.57" y="425.81"/>
      <point x="399.34" y="480.97"/>
    </contour>
  </outline>
</glyph>
<glyph name="eogonek" format="2">
  <advance width="371"/>
  <unicode hex="0119"/>
  <outline>
    <contour>
      <point x="200.94" y="-233.0" type="curve" smooth="yes"/>
      <point x="235.29" y="-233.0"/>
      <point x="264.5" y="-216.65"/>
      <point x="294.5" y="-181.93" type="curve"/>
      <point x="278.43" y="-163.65" type="line"/>
      <point x="256.22" y="-191.44"/>
      <point x="232.15" y="-203.93"/>
      <point x="203.73" y="-203.93" type="curve" smooth="yes"/>
      <point x="175.45" y="-203.93"/>
      <point x="158.24" y="-184.72"/>
      <point x="158.24" y="-145.28" type="curve" smooth="yes"/>
      <point x="158.24" y="-78.56510204081633"/>
      <point x="197.91" y="-37.58"/>
      <point x="287.28" y="4.36" type="curve"/>
      <point x="326.6" y="23.22"/>
      <point x="357.27" y="59.82"/>
      <point x="379.43" y="104.0" type="curve"/>
      <point x="358.15" y="116.42" type="line"/>
      <point x="322.87" y="56.93"/>
      <point x="287.96" y="18.93"/>
      <point x="224.84" y="18.93" type="curve" smooth="yes"/>
      <point x="154.3" y="18.93"/>
      <point x="107.18" y="73.56"/>
      <point x="107.18" y="184.68" type="curve" smooth="yes"/>
      <point x="107.18" y="351.05"/>
      <point x="186.88" y="486.14"/>
      <point x="290.21" y="486.14" type="curve" smooth="yes"/>
      <point x="341.26" y="486.14"/>
      <point x="366.1" y="452.07"/>
      <point x="366.1" y="398.93" type="curve" smooth="yes"/>
      <point x="366.1" y="291.07"/>
      <point x="287.26" y="244.0"/>
      <point x="92.83" y="241.0" type="curve"/>
      <point x="88.62" y="216.07" type="line"/>
      <point x="290.98" y="214.07"/>
      <point x="403.24" y="272.72"/>
      <point x="403.24" y="398.93" type="curve" smooth="yes"/>
      <point x="403.24" y="468.0"/>
      <point x="366.33" y="518.0"/>
      <point x="291.14" y="518.0" type="curve" smooth="yes"/>
      <point x="138.86" y="518.0"/>
      <point x="66.97" y="323.87"/>
      <point x="66.97" y="187.47" type="curve" smooth="yes"/>
      <point x="66.97" y="57.49"/>
      <point x="131.44" y="-12.0"/>
      <point x="221.12" y="-12.0" type="curve" smooth="yes"/>
      <point x="234.52" y="-12.0"/>
      <point x="246.78" y="-10.58"/>
      <point x="258.83" y="-7.02" type="curve"/>
      <point x="278.2" y="22.14" type="line"/>
      <point x="178.73" y="-14.91"/>
      <point x="118.1" y="-72.63"/>
      <point x="118.1" y="-145.28" type="curve" smooth="yes"/>
      <point x="118.1" y="-199.86"/>
      <point x="148.45" y="-233.0"/>
    </contour>
  </outline>
</glyph>
<glyph name="ibreve" format="2">
  <advance width="222"/>
  <unicode hex="012D"/>
  <outline>
    <contour>
      <point x="154.34972431508834" y="594.93" type="curve" smooth="yes"/>
      <point x="95.50972431508835" y="594.93"/>
      <point x="62.1595549844807" y="634.0"/>
      <point x="64.40998989584509" y="711.0" type="curve" smooth="yes"/>
      <point x="64.55612203294665" y="716.0"/>
      <point x="64.84838630714982" y="726.0"/>
      <point x="66.14065058135299" y="736.0" type="curve"/>
      <point x="92.28065058135299" y="736.0" type="line"/>
      <point x="88.32247994419177" y="669.07"/>
      <point x="103.66723426674166" y="637.0"/>
      <point x="158.64723426674166" y="637.0" type="curve" smooth="yes"/>
      <point x="199.27723426674166" y="637.0"/>
      <point x="227.60866852482926" y="661.07"/>
      <point x="243.940650581353" y="736.0" type="curve"/>
      <point x="269.08065058135304" y="736.0" type="line"/>
      <point x="252.00646069416197" y="637.93"/>
      <point x="207.11972431508835" y="594.93"/>
    </contour>
    <component base="dotlessi" yxScale="0.029226427420316562"/>
  </outline>
</glyph>
<glyph name="Iogonek" format="2">
  <advance width="267"/>
  <unicode hex="012E"/>
  <outline>
    <contour>
      <point x="192.6" y="19.21" type="curve"/>
      <point x="184.48" y="15.99"/>
      <point x="187.02" y="-3.95"/>
      <point x="187.02" y="-8.500000000000002" type="curve"/>
      <point x="98.67" y="-50.27"/>
      <point x="69.5" y="-91.64"/>
      <point x="73.63" y="-151.16" type="curve" smooth="yes"/>
      <point x="76.36" y="-188.36"/>
      <point x="94.41" y="-204.56"/>
      <point x="122.55" y="-202.39" type="curve" smooth="yes"/>
      <point x="148.59" y="-202.39"/>
      <point x="169.72" y="-189.69"/>
      <point x="190.18" y="-163.65" type="curve"/>
      <point x="188.43" y="-165.4"/>
      <point x="201.56" y="-183.47"/>
      <point x="199.18" y="-183.47" type="curve"/>
      <point x="169.04" y="-216.02"/>
      <point x="140.67" y="-229.5"/>
      <point x="109.05" y="-227.05" type="curve" smooth="yes"/>
      <point x="60.69" y="-223.34"/>
      <point x="35.66" y="-189.5"/>
      <point x="43.78" y="-134.71" type="curve" smooth="yes"/>
      <point x="43.78" y="-66.82"/>
      <point x="98.67" y="-11.48"/>
    </contour>
    <component base="I" yxScale="0.029226427420316562"/>
  </outline>
</glyph>
<glyph name="iogonek" format="2">
  <advance width="208"/>
  <unicode hex="012F"/>
  <outline>
    <contour>
      <point x="186.91" y="21.93" type="line"/>
      <point x="88.28" y="-14.7"/>
      <point x="27.58" y="-72.56"/>
      <point x="27.58" y="-145.0" type="curve" smooth="yes"/>
      <point x="27.58" y="-199.79"/>
      <point x="57.93" y="-233.0"/>
      <point x="110.42" y="-233.0" type="curve" smooth="yes"/>
      <point x="144.77" y="-233.0"/>
      <point x="173.98" y="-216.65"/>
      <point x="203.98" y="-181.93" type="curve"/>
      <point x="187.91" y="-163.65" type="line"/>
      <point x="165.7" y="-191.44"/>
      <point x="141.63" y="-203.93"/>
      <point x="113.21" y="-203.93" type="curve" smooth="yes"/>
      <point x="84.93" y="-203.93"/>
      <point x="67.72" y="-184.65"/>
      <point x="67.72" y="-145.0" type="curve" smooth="yes"/>
      <point x="67.72" y="-81.63"/>
      <point x="102.21" y="-39.63"/>
      <point x="197.98" y="2.2800000000000002" type="curve"/>
    </contour>
    <component base="i" yxScale="0.029226427420316562" xOffset="-13.95"/>
  </outline>
</glyph>
<glyph name="dotlessi" format="2">
  <advance width="222"/>
  <unicode hex="0131"/>
  <anchor x="175.42557993730406" y="508.0" name="top"/>
  <outline>
    <contour>
      <point x="166.18" y="419.43" type="curve" smooth="yes"/>
      <point x="129.25" y="209.47" type="line" smooth="yes"/>
      <point x="122.74" y="170.41"/>
      <point x="104.76" y="122.98"/>
      <point x="104.76" y="92.29" type="curve" smooth="yes"/>
      <point x="104.76" y="45.790000000000006"/>
      <point x="123.94" y="27.300000000000004"/>
      <point x="160.21" y="27.300000000000004" type="curve" smooth="yes"/>
      <point x="181.6" y="27.300000000000004"/>
      <point x="201.82999999999998" y="33.67"/>
      <point x="213.92" y="41.11000000000001" type="curve"/>
      <point x="217.28" y="40.410000000000004"/>
      <point x="223.54" y="68.82000000000001"/>
      <point x="223.19" y="66.79" type="curve"/>
      <point x="207.38" y="56.56"/>
      <point x="185.91" y="34.74"/>
      <point x="170.1" y="34.74" type="curve" smooth="yes"/>
      <point x="147.94" y="30.54"/>
      <point x="139.8" y="38.92"/>
      <point x="139.8" y="61.79" type="curve" smooth="yes"/>
      <point x="139.8" y="85.47"/>
      <point x="150.27" y="128.78"/>
      <point x="160.65" y="168.77" type="curve" smooth="yes"/>
      <point x="162.47" y="168.77"/>
      <point x="217.51" y="472.72"/>
      <point x="218.35" y="473.35" type="curve"/>
      <point x="120.12" y="475.31" type="line"/>
      <point x="119.56" y="475.17"/>
      <point x="113.95" y="456.38"/>
      <point x="111.57" y="456.38" type="curve"/>
      <point x="110.03" y="456.38"/>
      <point x="122.14" y="455.21999999999997"/>
      <point x="122.14" y="457.04" type="curve" smooth="yes"/>
      <point x="163.06" y="453.42"/>
      <point x="171.2" y="446.18"/>
    </contour>
  </outline>
</glyph>
<glyph name="Lslash" format="2">
  <advance width="491"/>
  <unicode hex="0141"/>
  <outline>
    <contour>
      <point x="58.29" y="208.93" type="line"/>
      <point x="404.77" y="480.93" type="line"/>
      <point x="410.84" y="520.0" type="line"/>
      <point x="65.29" y="248.0" type="line"/>
    </contour>
    <component base="L" yxScale="0.029226427420316562" xOffset="-0.9299999999999999"/>
  </outline>
</glyph>
<glyph name="Tbar" format="2">
  <advance width="507"/>
  <unicode hex="0166"/>
  <outline>
    <contour>
      <point x="149.32" y="370.0" type="line"/>
      <point x="143.32" y="340.93" type="line"/>
      <point x="462.57" y="340.93" type="line"/>
      <point x="467.64" y="370.0" type="line"/>
    </contour>
    <component base="T" yxScale="0.029226427420316562" xOffset="-15.81"/>
  </outline>
</glyph>
<glyph name="tbar" format="2">
  <advance width="266"/>
  <unicode hex="0167"/>
  <guideline x="115.75" y="500.69" angle="80.0" identifier="LboNXTgaHt"/>
  <outline>
    <contour>
      <point x="298.77" y="312.07" type="line"/>
      <point x="62.2" y="312.07" type="line"/>
      <point x="57.2" y="283.93" type="line"/>
      <point x="293.7" y="283.93" type="line"/>
    </contour>
    <component base="t" yxScale="0.029226427420316562" xOffset="-13.95"/>
  </outline>
</glyph>
<glyph name="Uogonek" format="2">
  <advance width="629"/>
  <unicode hex="0172"/>
  <outline>
    <contour>
      <point x="393.69" y="-2.360000000000003" type="curve"/>
      <point x="305.28" y="-35.84"/>
      <point x="249.86" y="-84.36317073170731"/>
      <point x="251.96" y="-147.52" type="curve" smooth="yes"/>
      <point x="251.96" y="-198.67"/>
      <point x="278.67" y="-227.82"/>
      <point x="327.03" y="-227.82" type="curve" smooth="yes"/>
      <point x="356.9" y="-229.57"/>
      <point x="382.12" y="-216.02"/>
      <point x="407.64" y="-183.47" type="curve"/>
      <point x="405.4" y="-183.47"/>
      <point x="389.12" y="-165.12"/>
      <point x="389.12" y="-162.67" type="curve"/>
      <point x="368.66" y="-181.36"/>
      <point x="356.84" y="-190.49"/>
      <point x="335.7" y="-185.59" type="curve" smooth="yes"/>
      <point x="312.74" y="-182.51"/>
      <point x="299.17" y="-160.22"/>
      <point x="300.29" y="-116.72" type="curve" smooth="yes"/>
      <point x="300.29" y="-57.93937888198758"/>
      <point x="338.39" y="4.390000000000008"/>
      <point x="445.34000000000003" y="58.330000000000005" type="curve"/>
      <point x="509.0" y="92.33000000000001"/>
      <point x="552.5118276246448" y="162.0015879104142"/>
      <point x="573.68" y="266.15" type="curve" smooth="yes"/>
      <point x="639.55" y="648.38" type="line" smooth="yes"/>
      <point x="644.2" y="676.28"/>
      <point x="672.45" y="685.82"/>
      <point x="709.65" y="685.82" type="curve" smooth="yes"/>
      <point x="703.2" y="685.82" type="line"/>
      <point x="706.57" y="707.9" type="line"/>
      <point x="531.43" y="707.9" type="line"/>
      <point x="534.09" y="707.9"/>
      <point x="532.73" y="683.16"/>
      <point x="532.59" y="682.18" type="curve"/>
      <point x="534.27" y="654.74" type="line" smooth="yes"/>
      <point x="561.07" y="643.05"/>
      <point x="592.32" y="634.8"/>
      <point x="583.2" y="628.29" type="curve" smooth="yes"/>
      <point x="574.8" y="628.29"/>
      <point x="499.73" y="231.01"/>
      <point x="499.73" y="240.11" type="curve" smooth="yes"/>
      <point x="474.62" y="99.55"/>
      <point x="419.24" y="38.620000000000005"/>
      <point x="311.48" y="44.78" type="curve" smooth="yes"/>
      <point x="224.06" y="44.78"/>
      <point x="184.92" y="109.21000000000001"/>
      <point x="184.92" y="211.51" type="curve" smooth="yes"/>
      <point x="184.99" y="240.83"/>
      <point x="192.21" y="272.66"/>
      <point x="201.38" y="309.86" type="curve" smooth="yes"/>
      <point x="267.11" y="674.42" type="line" smooth="yes"/>
      <point x="268.04" y="680.93"/>
      <point x="304.66" y="685.82"/>
      <point x="333.49" y="685.82" type="curve" smooth="yes"/>
      <point x="324.69" y="685.82" type="line"/>
      <point x="328.99" y="707.9" type="line"/>
      <point x="149.34" y="707.9" type="line"/>
      <point x="152.77" y="707.9"/>
      <point x="150.57" y="683.23"/>
      <point x="150.22" y="681.2" type="curve"/>
      <point x="155.23" y="662.3" type="line" smooth="yes"/>
      <point x="200.54" y="655.72"/>
      <point x="217.0" y="646.04"/>
      <point x="212.35" y="616.76" type="curve" smooth="yes"/>
      <point x="212.35" y="605.98"/>
      <point x="158.62" y="261.56"/>
      <point x="168.21" y="261.56" type="curve" smooth="yes"/>
      <point x="163.94" y="224.36"/>
      <point x="163.25" y="192.16"/>
      <point x="165.21" y="164.96" type="curve" smooth="yes"/>
      <point x="165.21" y="49.64"/>
      <point x="222.5" y="-6.83"/>
      <point x="327.59" y="-6.83" type="curve" smooth="yes"/>
      <point x="340.86" y="-9.63"/>
      <point x="355.49" y="-11.690000000000001"/>
      <point x="374.09" y="-12.010000000000002" type="curve"/>
      <point x="374.09" y="-15.650000000000002"/>
      <point x="389.56" y="-2.360000000000003"/>
    </contour>
  </outline>
</glyph>
<glyph name="Ohorn" format="2">
  <advance width="611"/>
  <unicode hex="01A0"/>
  <anchor x="316.16127230376964" y="742.0" name="top"/>
  <outline>
    <contour>
      <point x="286.10530212098604" y="19.07" type="curve" smooth="yes"/>
      <point x="144.515302120986" y="19.07"/>
      <point x="82.62158695177254" y="166.0"/>
      <point x="87.15168320192161" y="321.0" type="curve" smooth="yes"/>
      <point x="88.58377814551713" y="370.07"/>
      <point x="98.08587308911264" y="419.14"/>
      <point x="113.5702887504472" y="465.14" type="curve" smooth="yes"/>
      <point x="154.8128186054071" y="591.0"/>
      <point x="237.37468777485907" y="691.86"/>
      <point x="353.5446877748591" y="691.86" type="curve" smooth="yes"/>
      <point x="495.13468777485906" y="691.86"/>
      <point x="556.0691765166522" y="544.0"/>
      <point x="551.5390802665032" y="389.0" type="curve" smooth="yes"/>
      <point x="550.1069853229077" y="339.93"/>
      <point x="541.5348903793121" y="290.86"/>
      <point x="526.0504747179775" y="244.86" type="curve" smooth="yes"/>
      <point x="484.80794486301767" y="119.0"/>
      <point x="401.345302120986" y="19.07"/>
    </contour>
    <contour>
      <point x="284.32773572579686" y="-10.0" type="curve" smooth="yes"/>
      <point x="466.19773572579686" y="-10.0"/>
      <point x="587.7930212098602" y="189.93"/>
      <point x="593.6090802665032" y="389.0" type="curve" smooth="yes"/>
      <point x="597.6131008230865" y="525.93"/>
      <point x="545.6078949522496" y="661.86"/>
      <point x="426.5892727668013" y="698.93" type="curve"/>
      <point x="449.5477820651778" y="687.86" type="line"/>
      <point x="449.8692727668013" y="698.86" type="line"/>
      <point x="426.5308199119607" y="696.93" type="line"/>
      <point x="449.7462349200184" y="689.93"/>
      <point x="477.04932921033713" y="685.86"/>
      <point x="502.60932921033714" y="685.86" type="curve" smooth="yes"/>
      <point x="579.8693292103372" y="685.86"/>
      <point x="649.3337448716717" y="731.93"/>
      <point x="676.9508032750379" y="878.0" type="curve"/>
      <point x="638.7408032750379" y="878.0" type="line"/>
      <point x="613.8836319846" y="758.07"/>
      <point x="567.4538577587435" y="706.0"/>
      <point x="494.40385775874347" y="706.0" type="curve" smooth="yes"/>
      <point x="455.7038577587435" y="706.0"/>
      <point x="412.3430277426279" y="720.0"/>
      <point x="354.3630277426279" y="720.0" type="curve"/>
      <point x="173.42302774262794" y="720.0"/>
      <point x="51.82774225856461" y="520.07"/>
      <point x="46.01168320192161" y="321.0" type="curve" smooth="yes"/>
      <point x="41.013964113047486" y="149.93"/>
      <point x="127.66773572579683" y="-10.0"/>
    </contour>
  </outline>
</glyph>
<glyph name="ohorn" format="2">
  <advance width="446"/>
  <unicode hex="01A1"/>
  <anchor x="223.9317375895847" y="508.0" name="top"/>
  <outline>
    <contour>
      <point x="199.72928287095618" y="-12.0" type="curve" smooth="yes"/>
      <point x="323.7592828709562" y="-12.0"/>
      <point x="415.38556770174273" y="134.93"/>
      <point x="419.8572110970512" y="288.0" type="curve" smooth="yes"/>
      <point x="422.57526884714065" y="381.0"/>
      <point x="385.62796803270817" y="467.93"/>
      <point x="310.89476085531766" y="497.93" type="curve"/>
      <point x="324.8417230085348" y="488.93" type="line"/>
      <point x="325.01708157305666" y="494.93" type="line"/>
      <point x="311.86553442789733" y="496.93" type="line"/>
      <point x="328.0809494359551" y="489.93"/>
      <point x="345.24404372627384" y="485.93"/>
      <point x="358.5240437262739" y="485.93" type="curve" smooth="yes"/>
      <point x="430.78404372627386" y="485.93"/>
      <point x="479.5006672182757" y="554.93"/>
      <point x="508.72010278291685" y="685.0" type="curve"/>
      <point x="472.4401027829168" y="685.0" type="line"/>
      <point x="448.4952522102179" y="562.0"/>
      <point x="410.21702512952083" y="508.0"/>
      <point x="348.1670251295208" y="508.0" type="curve" smooth="yes"/>
      <point x="320.6770251295208" y="508.0"/>
      <point x="298.689289403724" y="518.0"/>
      <point x="259.98928940372394" y="518.0" type="curve" smooth="yes"/>
      <point x="135.95928940372397" y="518.0"/>
      <point x="44.33300457293745" y="371.07"/>
      <point x="39.86136117762901" y="218.0" type="curve" smooth="yes"/>
      <point x="36.178831322669126" y="91.93"/>
      <point x="101.1892828709562" y="-12.0"/>
    </contour>
    <contour>
      <point x="201.50684926614537" y="17.07" type="curve" smooth="yes"/>
      <point x="121.10684926614537" y="17.07"/>
      <point x="76.68109559687228" y="102.0"/>
      <point x="80.10058760504933" y="218.93" type="curve" smooth="yes"/>
      <point x="81.2988711292823" y="259.93"/>
      <point x="88.6663810809356" y="302.0"/>
      <point x="103.01621175032795" y="341.0" type="curve" smooth="yes"/>
      <point x="130.93200522621424" y="423.93"/>
      <point x="184.8117230085348" y="488.93"/>
      <point x="259.1417230085348" y="488.93" type="curve" smooth="yes"/>
      <point x="338.6117230085348" y="488.93"/>
      <point x="383.0374766778079" y="404.0"/>
      <point x="379.61798466963086" y="287.07" type="curve" smooth="yes"/>
      <point x="378.4197011453979" y="246.07"/>
      <point x="371.0521911937446" y="204.0"/>
      <point x="356.70236052435223" y="165.0" type="curve" smooth="yes"/>
      <point x="328.786567048466" y="82.07"/>
      <point x="274.9068492661454" y="17.07"/>
    </contour>
  </outline>
</glyph>
<glyph name="Uhorn" format="2">
  <advance width="671"/>
  <unicode hex="01AF"/>
  <anchor x="337.51475136757796" y="663.0" name="top"/>
  <outline>
    <contour>
      <point x="291.6077357257969" y="-10.0" type="curve" smooth="yes"/>
      <point x="401.28773572579684" y="-10.0"/>
      <point x="488.00275562910343" y="74.0"/>
      <point x="520.8004182744417" y="258.07" type="curve" smooth="yes"/>
      <point x="584.798781411901" y="634.93" type="line" smooth="yes"/>
      <point x="591.8801592264527" y="671.93"/>
      <point x="604.3062913635544" y="676.93"/>
      <point x="653.8354613474388" y="690.86" type="curve" smooth="yes"/>
      <point x="728.6215370410044" y="708.93"/>
      <point x="779.8236319846" y="757.86"/>
      <point x="798.5408032750379" y="878.0" type="curve"/>
      <point x="761.3308032750379" y="878.0" type="line"/>
      <point x="734.7314241539326" y="735.0"/>
      <point x="694.0907634684247" y="710.0"/>
      <point x="564.5707634684247" y="710.0" type="curve" smooth="yes"/>
      <point x="489.59076346842477" y="710.0" type="line"/>
      <point x="484.6731970732356" y="680.93" type="line"/>
      <point x="491.8131970732356" y="680.93" type="line" smooth="yes"/>
      <point x="522.3731970732356" y="680.93"/>
      <point x="560.7693856538731" y="672.93"/>
      <point x="559.2902156699886" y="658.93" type="curve" smooth="yes"/>
      <point x="491.7950032663839" y="265.07" type="line" smooth="yes"/>
      <point x="462.56418988719105" y="98.07"/>
      <point x="392.92530212098603" y="19.14"/>
      <point x="297.315302120986" y="19.14" type="curve" smooth="yes"/>
      <point x="200.56530212098602" y="19.14"/>
      <point x="141.3450199033066" y="84.07"/>
      <point x="145.20290832278837" y="215.93" type="curve" smooth="yes"/>
      <point x="146.3135125647604" y="253.93"/>
      <point x="152.31875824221052" y="286.0"/>
      <point x="166.25836313745936" y="376.79" type="curve" smooth="yes"/>
      <point x="217.5509327990324" y="670.93" type="line" smooth="yes"/>
      <point x="218.7555177909746" y="677.93"/>
      <point x="260.4731970732356" y="680.93"/>
      <point x="291.0331970732356" y="680.93" type="curve" smooth="yes"/>
      <point x="299.1031970732356" y="680.93" type="line"/>
      <point x="304.0207634684248" y="710.0" type="line"/>
      <point x="108.29076346842476" y="710.0" type="line"/>
      <point x="102.44319707323558" y="680.93" type="line"/>
      <point x="111.58319707323558" y="680.93" type="line" smooth="yes"/>
      <point x="152.2131970732356" y="680.93"/>
      <point x="180.49861208129337" y="673.93"/>
      <point x="175.58104568610418" y="644.93" type="curve" smooth="yes"/>
      <point x="128.089136710039" y="375.86" type="line" smooth="yes"/>
      <point x="112.00339967768863" y="280.0"/>
      <point x="107.99815400023851" y="248.0"/>
      <point x="107.06290832278839" y="215.93" type="curve" smooth="yes"/>
      <point x="102.53281207263932" y="61.0"/>
      <point x="179.71773572579684" y="-10.0"/>
    </contour>
  </outline>
</glyph>
<glyph name="uhorn" format="2">
  <advance width="503"/>
  <unicode hex="01B0"/>
  <anchor x="230.75240974490544" y="508.0" name="top"/>
  <outline>
    <contour>
      <point x="71.82702512952082" y="508.0" type="line"/>
      <point x="66.12559087143322" y="483.93" type="line"/>
      <point x="75.13713801659259" y="481.93" type="line" smooth="yes"/>
      <point x="114.47487374238942" y="471.93"/>
      <point x="132.64951517786753" y="465.93"/>
      <point x="128.66194878267834" y="436.93" type="curve" smooth="yes"/>
      <point x="85.20451191148364" y="200.93" type="line" smooth="yes"/>
      <point x="77.99468124209127" y="161.93"/>
      <point x="73.68562414527862" y="122.0"/>
      <point x="72.89651060493007" y="95.07" type="curve" smooth="yes"/>
      <point x="71.05524567745013" y="32.0"/>
      <point x="101.40541500805779" y="-7.0"/>
      <point x="156.2454150080578" y="-7.0" type="curve" smooth="yes"/>
      <point x="231.3654150080578" y="-7.0"/>
      <point x="296.8704349113644" y="77.0"/>
      <point x="359.64987047600556" y="207.0" type="curve"/>
      <point x="351.53821044377435" y="234.93" type="line"/>
      <point x="289.8349070162348" y="110.0"/>
      <point x="230.3006606855079" y="25.07"/>
      <point x="167.1106606855079" y="25.07" type="curve" smooth="yes"/>
      <point x="127.41066068550792" y="25.07"/>
      <point x="109.72132137101582" y="50.07"/>
      <point x="111.03651060493007" y="95.07" type="curve" smooth="yes"/>
      <point x="111.91330342753957" y="125.0"/>
      <point x="116.01777553241001" y="158.0"/>
      <point x="123.25683262922269" y="197.93" type="curve" smooth="yes"/>
      <point x="180.08702512952084" y="508.0" type="line"/>
    </contour>
    <contour>
      <point x="425.866308000477" y="495.93" type="line"/>
      <point x="405.5563644440129" y="482.93" type="line"/>
      <point x="486.5832701536942" y="486.93"/>
      <point x="561.2984593876084" y="531.93"/>
      <point x="583.0501027829168" y="685.0" type="curve"/>
      <point x="546.7701027829169" y="685.0" type="line"/>
      <point x="525.1645915247101" y="537.0"/>
      <point x="464.9870251295208" y="508.0"/>
      <point x="396.21702512952083" y="508.0" type="curve" smooth="yes"/>
      <point x="391.0070251295208" y="508.0" type="line"/>
      <point x="331.48694551629444" y="171.93" type="line"/>
      <point x="332.5046247985554" y="174.86" type="line"/>
      <point x="325.2832469840037" y="137.93"/>
      <point x="317.5942463307269" y="85.0"/>
      <point x="316.7466799355377" y="56.07" type="curve" smooth="yes"/>
      <point x="315.4314907016235" y="11.07"/>
      <point x="340.25541500805775" y="-7.0"/>
      <point x="375.74541500805776" y="-7.0" type="curve" smooth="yes"/>
      <point x="398.0254150080578" y="-7.0"/>
      <point x="422.6969057096813" y="4.0"/>
      <point x="433.0999435564641" y="13.0" type="curve"/>
      <point x="438.85983066939235" y="39.14" type="line"/>
      <point x="431.7313778145517" y="37.14"/>
      <point x="408.01298140324695" y="22.07"/>
      <point x="381.45298140324695" y="22.07" type="curve" smooth="yes"/>
      <point x="363.172981403247" y="22.07"/>
      <point x="353.2552456774501" y="32.07"/>
      <point x="353.95667993553775" y="56.07" type="curve" smooth="yes"/>
      <point x="354.5704349113644" y="77.07"/>
      <point x="359.76258629849576" y="113.0"/>
      <point x="364.46402055658336" y="137.07" type="curve" smooth="yes"/>
    </contour>
  </outline>
</glyph>
<glyph name="iinvertedbreve" format="2">
  <advance width="222"/>
  <unicode hex="020B"/>
  <outline>
    <contour>
      <point x="156.540650581353" y="736.0" type="curve" smooth="yes"/>
      <point x="102.84065058135299" y="736.0"/>
      <point x="58.88391420227938" y="693.0"/>
      <point x="41.80972431508835" y="594.93" type="curve"/>
      <point x="66.94972431508835" y="594.93" type="line"/>
      <point x="82.32247994419177" y="668.93"/>
      <point x="110.6831406296997" y="693.93"/>
      <point x="152.2431406296997" y="693.93" type="curve" smooth="yes"/>
      <point x="206.2931406296997" y="693.93"/>
      <point x="221.60866852482926" y="660.93"/>
      <point x="217.67972431508835" y="594.93" type="curve"/>
      <point x="243.81972431508834" y="594.93" type="line"/>
      <point x="245.1119885892915" y="604.93"/>
      <point x="245.4042528634947" y="614.93"/>
      <point x="245.5503850005963" y="619.93" type="curve" smooth="yes"/>
      <point x="247.80081991196064" y="696.93"/>
      <point x="215.380650581353" y="736.0"/>
    </contour>
    <component base="dotlessi" yxScale="0.029226427420316562"/>
  </outline>
</glyph>
<glyph name="dotlessj" format="2">
  <advance width="212"/>
  <unicode hex="0237"/>
  <anchor x="174.38395973154363" y="508.0" name="top"/>
  <outline>
    <contour>
      <point x="74.37" y="-97.16" type="line" smooth="yes"/>
      <point x="61.37" y="-176.58"/>
      <point x="33.32" y="-204.93"/>
      <point x="-22.82" y="-204.93" type="curve" smooth="yes"/>
      <point x="-49.15" y="-204.93"/>
      <point x="-75.71" y="-196.44"/>
      <point x="-100.15" y="-182.93" type="curve"/>
      <point x="-108.08" y="-215.0" type="line"/>
      <point x="-82.85" y="-228.51"/>
      <point x="-52.43" y="-236.0"/>
      <point x="-22.03" y="-236.0" type="curve" smooth="yes"/>
      <point x="50.76" y="-236.0"/>
      <point x="95.37" y="-194.84"/>
      <point x="110.65" y="-106.53" type="curve" smooth="yes"/>
      <point x="216.74" y="508.0" type="line"/>
      <point x="109.41" y="508.0" type="line"/>
      <point x="105.41" y="488.58" type="line"/>
      <point x="119.13" y="486.58" type="line" smooth="yes"/>
      <point x="163.41" y="480.3"/>
      <point x="172.46" y="468.72"/>
      <point x="166.53" y="436.93" type="curve" smooth="yes"/>
    </contour>
  </outline>
</glyph>
<glyph name="circumflex" format="2">
  <advance width="410"/>
  <unicode hex="02C6"/>
  <anchor x="215.82078010534747" y="529.0" name="_top"/>
  <outline>
    <contour>
      <point x="271.3083298636139" y="739.0" type="line"/>
      <point x="330.5296678715525" y="607.93" type="line"/>
      <point x="329.36" y="597.93" type="line"/>
      <point x="309.22" y="597.93" type="line"/>
      <point x="228.28683916199046" y="727.86" type="line"/>
      <point x="258.9868391619905" y="727.86" type="line"/>
      <point x="130.07" y="597.93" type="line"/>
      <point x="110.07" y="597.93" type="line"/>
      <point x="112.16966787155248" y="607.93" type="line"/>
      <point x="218.53832986361394" y="739.0" type="line"/>
    </contour>
  </outline>
</glyph>
<glyph name="verticallinelowmod" format="2">
  <advance width="411"/>
  <unicode hex="02CC"/>
  <outline>
    <contour>
      <point x="175.63339314492086" y="-250.0" type="line"/>
      <point x="227.68339314492087" y="-250.0" type="line"/>
      <point x="233.61635791124513" y="-47.0" type="line"/>
      <point x="181.56635791124512" y="-47.0" type="line"/>
    </contour>
  </outline>
</glyph>
<glyph name="breve" format="2">
  <advance width="410"/>
  <unicode hex="02D8"/>
  <anchor x="215.8200629763037" y="517.0" name="_top"/>
  <outline>
    <contour>
      <point x="234.89" y="594.93" type="curve" smooth="yes"/>
      <point x="287.66" y="594.93"/>
      <point x="333.15" y="630.49"/>
      <point x="347.36" y="736.0" type="curve"/>
      <point x="322.22" y="736.0" type="line"/>
      <point x="309.94" y="660.14"/>
      <point x="277.67723426674166" y="637.0"/>
      <point x="237.97723426674165" y="637.0" type="curve" smooth="yes"/>
      <point x="182.06723426674165" y="637.0"/>
      <point x="168.56" y="669.07"/>
      <point x="170.56" y="736.0" type="curve"/>
      <point x="145.35" y="736.0" type="line"/>
      <point x="144.35" y="726.0"/>
      <point x="144.35" y="718.79"/>
      <point x="144.35" y="711.0" type="curve" smooth="yes"/>
      <point x="144.35" y="627.49"/>
      <point x="175.12" y="594.93"/>
    </contour>
  </outline>
</glyph>
<glyph name="ring" format="2">
  <advance width="411"/>
  <unicode hex="02DA"/>
  <anchor x="219.31" y="526.0" name="_top"/>
  <outline>
    <contour>
      <point x="227.75" y="612.0" type="curve"/>
      <point x="201.01666666666665" y="612.0"/>
      <point x="179.84" y="631.14"/>
      <point x="179.84" y="668.21" type="curve" smooth="yes"/>
      <point x="179.84" y="709.42"/>
      <point x="199.73571428571427" y="742.0"/>
      <point x="234.82" y="742.0" type="curve"/>
      <point x="261.5533333333333" y="742.0"/>
      <point x="282.73" y="722.86"/>
      <point x="282.73" y="685.79" type="curve" smooth="yes"/>
      <point x="282.73" y="644.58"/>
      <point x="262.8342857142857" y="612.0"/>
    </contour>
    <contour>
      <point x="224.96" y="586.0" type="curve"/>
      <point x="279.73" y="586.0"/>
      <point x="317.15" y="627.86"/>
      <point x="317.15" y="687.65" type="curve" smooth="yes"/>
      <point x="317.15" y="739.0"/>
      <point x="278.31" y="768.0"/>
      <point x="237.61" y="768.0" type="curve"/>
      <point x="182.84" y="768.0"/>
      <point x="145.42" y="726.14"/>
      <point x="145.42" y="666.35" type="curve" smooth="yes"/>
      <point x="145.42" y="615.0"/>
      <point x="184.26" y="586.0"/>
    </contour>
  </outline>
</glyph>
<glyph name="tilde" format="2">
  <advance width="410"/>
  <unicode hex="02DC"/>
  <anchor x="218.58083654888335" y="516.0" name="_top"/>
  <outline>
    <contour>
      <point x="279.19193214575563" y="617.93" type="curve" smooth="yes"/>
      <point x="322.8219321457556" y="617.93"/>
      <point x="343.29" y="653.93"/>
      <point x="362.71" y="720.72" type="curve"/>
      <point x="337.57" y="728.0" type="line"/>
      <point x="320.43" y="679.0"/>
      <point x="311.61717782320574" y="650.07"/>
      <point x="286.1271778232058" y="650.07" type="curve" smooth="yes"/>
      <point x="248.42717782320577" y="650.07"/>
      <point x="239.60761273457015" y="727.0"/>
      <point x="183.62761273457014" y="727.0" type="curve" smooth="yes"/>
      <point x="144.06761273457013" y="727.0"/>
      <point x="116.28" y="698.0"/>
      <point x="101.86" y="622.49" type="curve"/>
      <point x="126.0" y="617.93" type="line"/>
      <point x="140.07" y="668.93"/>
      <point x="152.1731406296997" y="693.93"/>
      <point x="176.59314062969972" y="693.93" type="curve" smooth="yes"/>
      <point x="214.4331406296997" y="693.93"/>
      <point x="221.21193214575564" y="617.93"/>
    </contour>
  </outline>
</glyph>
<glyph name="mu" format="2">
  <advance width="460"/>
  <unicode hex="03BC"/>
  <outline>
    <contour>
      <point x="374.81" y="-9.0" type="curve" smooth="yes"/>
      <point x="411.3" y="-9.0"/>
      <point x="439.72" y="20.07"/>
      <point x="460.72" y="60.93" type="curve"/>
      <point x="441.65" y="76.14" type="line"/>
      <point x="425.51" y="42.35"/>
      <point x="406.95" y="20.07"/>
      <point x="379.6" y="20.07" type="curve" smooth="yes"/>
      <point x="363.25" y="20.07"/>
      <point x="354.04" y="33.07"/>
      <point x="354.04" y="56.07" type="curve" smooth="yes"/>
      <point x="354.04" y="84.07"/>
      <point x="360.04" y="114.86"/>
      <point x="364.04" y="139.86" type="curve" smooth="yes"/>
      <point x="429.04" y="508.0" type="line"/>
      <point x="391.83" y="508.0" type="line"/>
      <point x="331.9" y="171.93" type="line"/>
      <point x="332.83" y="174.86" type="line"/>
      <point x="325.76" y="137.93"/>
      <point x="317.76" y="93.0"/>
      <point x="317.76" y="56.07" type="curve" smooth="yes"/>
      <point x="317.76" y="11.07"/>
      <point x="335.18" y="-9.0"/>
    </contour>
    <contour>
      <point x="7.35" y="-250.0" type="line"/>
      <point x="46.7" y="-250.0" type="line"/>
      <point x="70.7" y="-116.0"/>
      <point x="68.77" y="-36.0"/>
      <point x="95.7" y="146.0" type="curve"/>
      <point x="82.7" y="108.93" type="line"/>
      <point x="75.63" y="16.07"/>
      <point x="111.47" y="-7.0"/>
      <point x="161.17" y="-7.0" type="curve" smooth="yes"/>
      <point x="234.22" y="-7.0"/>
      <point x="300.99" y="74.21"/>
      <point x="359.97" y="207.0" type="curve"/>
      <point x="351.97" y="234.93" type="line"/>
      <point x="292.06" y="108.14"/>
      <point x="232.22" y="25.07"/>
      <point x="168.1" y="25.07" type="curve" smooth="yes"/>
      <point x="128.4" y="25.07"/>
      <point x="109.98" y="50.07"/>
      <point x="110.91" y="95.07" type="curve" smooth="yes"/>
      <point x="111.84" y="125.0"/>
      <point x="116.84" y="158.0"/>
      <point x="123.84" y="197.93" type="curve" smooth="yes"/>
      <point x="179.05" y="508.0" type="line"/>
      <point x="141.84" y="508.0" type="line"/>
    </contour>
  </outline>
</glyph>
<glyph name="idieresisacute" format="2">
  <advance width="222"/>
  <unicode hex="1E2F"/>
  <outline>
    <contour>
      <point x="79.10021566998861" y="658.86" type="curve" smooth="yes"/>
      <point x="58.89021566998862" y="658.86"/>
      <point x="45.08938565387305" y="672.86"/>
      <point x="45.820046339380966" y="697.93" type="curve" smooth="yes"/>
      <point x="46.57993345230919" y="723.93"/>
      <point x="61.169877008773305" y="737.0"/>
      <point x="81.3798770087733" y="737.0" type="curve" smooth="yes"/>
      <point x="101.5898770087733" y="737.0"/>
      <point x="116.34993345230919" y="723.93"/>
      <point x="115.59004633938096" y="697.93" type="curve" smooth="yes"/>
      <point x="114.85938565387305" y="672.86"/>
      <point x="99.31021566998862" y="658.86"/>
    </contour>
    <contour>
      <point x="232.3402156699886" y="658.86" type="curve" smooth="yes"/>
      <point x="213.0602156699886" y="658.86"/>
      <point x="198.32938565387306" y="672.86"/>
      <point x="199.06004633938096" y="697.93" type="curve" smooth="yes"/>
      <point x="199.8199334523092" y="723.93"/>
      <point x="215.3398770087733" y="737.0"/>
      <point x="234.6198770087733" y="737.0" type="curve" smooth="yes"/>
      <point x="254.8298770087733" y="737.0"/>
      <point x="269.5899334523092" y="723.93"/>
      <point x="268.830046339381" y="697.93" type="curve" smooth="yes"/>
      <point x="268.09938565387307" y="672.86"/>
      <point x="252.5502156699886" y="658.86"/>
    </contour>
    <contour>
      <point x="207.1330111057052" y="900.93" type="curve" smooth="yes"/>
      <point x="144.4473869604266" y="779.0" type="line"/>
      <point x="142.03821697654217" y="765.0" type="line"/>
      <point x="155.03821697654217" y="765.0" type="line"/>
      <point x="242.53621828309574" y="870.93" type="line" smooth="yes"/>
      <point x="256.1438411218208" y="886.93"/>
      <point x="269.9206903879662" y="903.93"/>
      <point x="270.4175396541116" y="920.93" type="curve" smooth="yes"/>
      <point x="270.7682567831554" y="933.0"/>
      <point x="261.9205210573585" y="943.0"/>
      <point x="248.78052105735853" y="943.0" type="curve" smooth="yes"/>
      <point x="231.57052105735852" y="943.0"/>
      <point x="223.03289821863348" y="927.0"/>
    </contour>
    <component base="dotlessi" yxScale="0.029226427420316562"/>
  </outline>
</glyph>
<glyph name="Germandbls" format="2">
  <advance width="629"/>
  <unicode hex="1E9E"/>
  <outline>
    <contour>
      <point x="313.84" y="211.0" type="curve"/>
      <point x="278.56" y="211.0" type="line"/>
      <point x="241.56" y="0.0" type="line"/>
      <point x="267.7" y="0.0" type="line"/>
      <point x="303.84" y="160.93" type="line"/>
      <point x="291.7" y="181.07" type="line"/>
      <point x="299.33" y="70.0"/>
      <point x="354.45" y="-10.0"/>
      <point x="464.34" y="-10.0" type="curve" smooth="yes"/>
      <point x="575.97" y="-10.0"/>
      <point x="637.44" y="79.16"/>
      <point x="637.44" y="194.16" type="curve" smooth="yes"/>
      <point x="637.44" y="318.14"/>
      <point x="563.01" y="367.68"/>
      <point x="439.59" y="413.0" type="curve"/>
      <point x="445.52" y="403.93" type="line"/>
      <point x="640.04" y="684.86" type="line"/>
      <point x="644.11" y="710.0" type="line"/>
      <point x="403.01" y="710.0" type="line" smooth="yes"/>
      <point x="273.51" y="710.0"/>
      <point x="213.53" y="640.93"/>
      <point x="192.04" y="517.06" type="curve" smooth="yes"/>
      <point x="112.53" y="63.21" type="line" smooth="yes"/>
      <point x="107.53" y="34.21"/>
      <point x="77.04" y="26.28"/>
      <point x="36.41" y="26.28" type="curve" smooth="yes"/>
      <point x="26.34" y="26.28" type="line"/>
      <point x="22.2" y="0.0" type="line"/>
      <point x="140.53" y="0.0" type="line"/>
      <point x="232.18" y="526.34" type="line" smooth="yes"/>
      <point x="247.67" y="617.14"/>
      <point x="290.65" y="680.93"/>
      <point x="398.01" y="680.93" type="curve" smooth="yes"/>
      <point x="608.97" y="680.93" type="line"/>
      <point x="603.9" y="695.93" type="line"/>
      <point x="412.17" y="413.07" type="line"/>
      <point x="407.24" y="386.93" type="line"/>
      <point x="535.94" y="347.47"/>
      <point x="599.3" y="300.21"/>
      <point x="599.3" y="192.3" type="curve" smooth="yes"/>
      <point x="599.3" y="92.44"/>
      <point x="553.04" y="19.07"/>
      <point x="465.27" y="19.07" type="curve" smooth="yes"/>
      <point x="369.38" y="19.07"/>
      <point x="318.4" y="100.07"/>
    </contour>
  </outline>
</glyph>
<glyph name="endash" format="2">
  <advance width="485"/>
  <unicode hex="2013"/>
  <outline>
    <contour>
      <point x="113.34" y="329.07" type="line"/>
      <point x="106.41" y="300.93" type="line"/>
      <point x="474.5" y="300.93" type="line"/>
      <point x="481.43" y="329.07" type="line"/>
    </contour>
  </outline>
</glyph>
<glyph name="emdash" format="2">
  <advance width="763"/>
  <unicode hex="2014"/>
  <outline>
    <contour>
      <point x="113.34" y="329.07" type="line"/>
      <point x="106.41" y="300.93" type="line"/>
      <point x="754.05" y="300.93" type="line"/>
      <point x="760.05" y="329.07" type="line"/>
    </contour>
  </outline>
</glyph>
<glyph name="horizontalbar" format="2">
  <advance width="775"/>
  <unicode hex="2015"/>
  <outline>
    <contour>
      <point x="52.43" y="329.07" type="line"/>
      <point x="52.43" y="300.93" type="line"/>
      <point x="827.24" y="300.93" type="line"/>
      <point x="827.24" y="329.07" type="line"/>
    </contour>
  </outline>
</glyph>
<glyph name="quoteright" format="2">
  <advance width="162"/>
  <unicode hex="2019"/>
  <outline>
    <contour>
      <point x="165.1" y="552.76" type="line"/>
      <point x="214.71" y="586.6"/>
      <point x="238.55" y="637.02"/>
      <point x="238.55" y="674.0" type="curve" smooth="yes"/>
      <point x="238.55" y="699.14"/>
      <point x="226.34" y="715.0"/>
      <point x="205.27" y="715.0" type="curve" smooth="yes"/>
      <point x="186.06" y="715.0"/>
      <point x="172.06" y="699.93"/>
      <point x="172.06" y="680.93" type="curve" smooth="yes"/>
      <point x="172.06" y="662.0"/>
      <point x="184.99" y="649.86"/>
      <point x="203.13" y="649.86" type="curve" smooth="yes"/>
      <point x="213.41" y="649.86"/>
      <point x="222.41" y="655.0"/>
      <point x="227.41" y="668.21" type="curve"/>
      <point x="223.69" y="666.35"/>
      <point x="215.41" y="663.42"/>
      <point x="214.48" y="661.56" type="curve"/>
      <point x="210.62" y="633.23"/>
      <point x="185.22" y="597.39"/>
      <point x="144.96" y="571.9" type="curve"/>
    </contour>
  </outline>
</glyph>
<glyph name="daggerdbl" format="2">
  <advance width="332"/>
  <unicode hex="2021"/>
  <outline>
    <contour>
      <point x="44.92" y="177.86" type="line"/>
      <point x="72.41" y="177.86" type="line"/>
      <point x="187.58" y="188.93" type="line"/>
      <point x="196.51" y="188.93" type="line"/>
      <point x="313.54" y="177.86" type="line"/>
      <point x="337.96" y="177.86" type="line"/>
      <point x="345.03" y="216.14" type="line"/>
      <point x="317.54" y="216.14" type="line"/>
      <point x="200.51" y="207.0" type="line"/>
      <point x="191.58" y="207.0" type="line"/>
      <point x="77.34" y="216.14" type="line"/>
      <point x="51.99" y="216.14" type="line"/>
    </contour>
    <contour>
      <point x="198.3" y="346.07" type="line"/>
      <point x="199.37" y="309.86"/>
      <point x="195.44" y="262.0"/>
      <point x="185.44" y="204.93" type="curve" smooth="yes"/>
      <point x="173.44" y="137.0"/>
      <point x="151.58" y="69.0"/>
      <point x="146.51" y="37.0" type="curve" smooth="yes"/>
      <point x="138.58" y="0.0" type="line"/>
      <point x="177.65" y="0.0" type="line"/>
      <point x="185.58" y="36.0" type="line" smooth="yes"/>
      <point x="190.65" y="69.0"/>
      <point x="194.58" y="135.93"/>
      <point x="205.58" y="202.93" type="curve" smooth="yes"/>
      <point x="215.58" y="261.0"/>
      <point x="228.58" y="304.0"/>
      <point x="244.58" y="342.93" type="curve"/>
      <point x="247.65" y="363.07" type="line"/>
      <point x="247.58" y="404.0"/>
      <point x="251.44" y="448.0"/>
      <point x="261.44" y="505.07" type="curve" smooth="yes"/>
      <point x="273.44" y="573.0"/>
      <point x="294.37" y="640.0"/>
      <point x="300.37" y="672.0" type="curve" smooth="yes"/>
      <point x="307.37" y="710.0" type="line"/>
      <point x="268.3" y="710.0" type="line"/>
      <point x="261.3" y="673.0" type="line" smooth="yes"/>
      <point x="254.37" y="640.0"/>
      <point x="252.3" y="575.0"/>
      <point x="240.37" y="507.07" type="curve" smooth="yes"/>
      <point x="230.37" y="449.0"/>
      <point x="216.44" y="403.28"/>
      <point x="201.37" y="366.21" type="curve"/>
    </contour>
    <contour>
      <point x="100.92" y="493.86" type="line"/>
      <point x="129.41" y="493.86" type="line"/>
      <point x="246.37" y="502.0" type="line"/>
      <point x="254.37" y="502.0" type="line"/>
      <point x="371.4" y="493.86" type="line"/>
      <point x="396.75" y="493.86" type="line"/>
      <point x="402.89" y="532.14" type="line"/>
      <point x="374.4" y="532.14" type="line"/>
      <point x="259.3" y="520.07" type="line"/>
      <point x="250.37" y="520.07" type="line"/>
      <point x="132.41" y="532.14" type="line"/>
      <point x="107.99" y="532.14" type="line"/>
    </contour>
  </outline>
</glyph>
<glyph name="fraction" format="2">
  <advance width="348"/>
  <unicode hex="2044"/>
  <outline>
    <contour>
      <point x="456.71" y="710.0" type="line"/>
      <point x="-80.59" y="0.0" type="line"/>
      <point x="-41.31" y="0.0" type="line"/>
      <point x="495.06" y="710.0" type="line"/>
    </contour>
  </outline>
</glyph>
<glyph name="colonmonetary" format="2">
  <advance width="460"/>
  <unicode hex="20A1"/>
  <outline>
    <contour>
      <point x="289.6388776620501" y="790.0" type="line"/>
      <point x="258.9339706458153" y="679.93" type="line"/>
      <point x="256.63015922645275" y="671.93" type="line"/>
      <point x="100.6264541613942" y="108.0" type="line"/>
      <point x="96.24651060493008" y="95.0" type="line"/>
      <point x="36.98282870956201" y="-120.0" type="line"/>
      <point x="68.33282870956202" y="-120.0" type="line"/>
      <point x="120.8835292016831" y="72.93" type="line"/>
      <point x="124.14656704846595" y="81.93" type="line"/>
      <point x="290.4708763554965" y="683.93" type="line"/>
      <point x="292.6754613474387" y="690.93" type="line"/>
      <point x="320.98887766205013" y="790.0" type="line"/>
    </contour>
    <contour>
      <point x="406.73887766205013" y="790.0" type="line"/>
      <point x="377.1508763554965" y="683.93" type="line"/>
      <point x="374.94629136355434" y="676.93" type="line"/>
      <point x="197.12601925002983" y="31.07" type="line"/>
      <point x="195.85143425808758" y="24.07" type="line"/>
      <point x="154.08282870956202" y="-120.0" type="line"/>
      <point x="185.43282870956202" y="-120.0" type="line"/>
      <point x="225.2422078306673" y="23.0" type="line"/>
      <point x="227.38833996776887" y="28.07" type="line"/>
      <point x="402.8755742345105" y="664.93" type="line"/>
      <point x="405.0217063716121" y="670.0" type="line"/>
      <point x="439.0188776620501" y="790.0" type="line"/>
    </contour>
    <contour>
      <point x="235.21226427420316" y="10.0" type="curve" smooth="yes"/>
      <point x="329.7522642742031" y="10.0"/>
      <point x="402.06424633072686" y="85.07"/>
      <point x="444.55213475020867" y="217.07" type="curve"/>
      <point x="419.83898401635406" y="234.07" type="line"/>
      <point x="384.017171290438" y="120.07"/>
      <point x="322.59983066939236" y="39.07"/>
      <point x="236.05983066939234" y="39.07" type="curve" smooth="yes"/>
      <point x="134.09983066939236" y="39.07"/>
      <point x="71.03705840336622" y="145.93"/>
      <point x="75.83019250029814" y="309.93" type="curve" smooth="yes"/>
      <point x="77.64223100035775" y="371.93"/>
      <point x="86.57659021815644" y="430.86"/>
      <point x="103.24791158917226" y="480.86" type="curve" smooth="yes"/>
      <point x="139.27972431508834" y="594.86"/>
      <point x="211.76093279903242" y="670.93"/>
      <point x="313.5109327990324" y="670.93" type="curve" smooth="yes"/>
      <point x="397.77093279903244" y="670.93"/>
      <point x="459.51729071027756" y="623.86"/>
      <point x="474.365195766682" y="574.86" type="curve"/>
      <point x="481.79221436343505" y="553.07"/>
      <point x="483.001158573176" y="618.93"/>
      <point x="454.8618757022197" y="630.93" type="curve"/>
      <point x="436.7584593876084" y="531.86" type="line"/>
      <point x="481.03845938760844" y="531.86" type="line"/>
      <point x="495.703479290915" y="615.93" type="line"/>
      <point x="471.3709892425683" y="657.93"/>
      <point x="409.68849919422155" y="700.0"/>
      <point x="315.2884991942216" y="700.0" type="curve" smooth="yes"/>
      <point x="145.6984991942216" y="700.0"/>
      <point x="41.87464796824588" y="523.93"/>
      <point x="35.59096607287782" y="309.0" type="curve" smooth="yes"/>
      <point x="30.184077000119256" y="123.93"/>
      <point x="119.18226427420316" y="10.0"/>
    </contour>
  </outline>
</glyph>
<glyph name="lira" format="2">
  <advance width="460"/>
  <unicode hex="20A4"/>
  <outline>
    <contour>
      <point x="-16.110773572579685" y="0.9299999999999999" type="line"/>
      <point x="135.39226427420317" y="10.0"/>
      <point x="181.1263977178583" y="121.07"/>
      <point x="184.57511615345564" y="239.14" type="curve" smooth="yes"/>
      <point x="187.2931739035451" y="332.07"/>
      <point x="172.43896737943138" y="415.0"/>
      <point x="174.74785514563638" y="493.93" type="curve" smooth="yes"/>
      <point x="178.4303850005963" y="619.86"/>
      <point x="228.59623492001842" y="689.86"/>
      <point x="324.27623492001845" y="689.86" type="curve" smooth="yes"/>
      <point x="382.1162349200184" y="689.86"/>
      <point x="422.0386685248293" y="660.86"/>
      <point x="437.5295549844807" y="633.79" type="curve"/>
      <point x="436.58800783932134" y="635.93"/>
      <point x="433.131762815148" y="656.93"/>
      <point x="423.66938565387306" y="672.93" type="curve"/>
      <point x="403.4959693392617" y="573.86" type="line"/>
      <point x="447.7759693392617" y="573.86" type="line"/>
      <point x="465.56944209740897" y="660.0" type="line"/>
      <point x="444.82164992807617" y="683.0"/>
      <point x="400.2145748877873" y="718.0"/>
      <point x="325.0945748877873" y="718.0" type="curve" smooth="yes"/>
      <point x="195.99457488778728" y="718.0"/>
      <point x="137.173479290915" y="616.0"/>
      <point x="133.6370815730567" y="495.0" type="curve" smooth="yes"/>
      <point x="130.97747667780789" y="404.0"/>
      <point x="150.56864535513878" y="312.07"/>
      <point x="148.37666329861503" y="237.07" type="curve" smooth="yes"/>
      <point x="145.54169983884432" y="140.07"/>
      <point x="115.08215138713139" y="36.14"/>
      <point x="-9.22243360481082" y="29.07" type="curve"/>
    </contour>
    <contour>
      <point x="292.8415471451594" y="-2.0" type="curve" smooth="yes"/>
      <point x="357.82154714515934" y="-2.0"/>
      <point x="396.7144156613346" y="46.07"/>
      <point x="426.71788841948177" y="132.07" type="curve"/>
      <point x="404.08628483078655" y="147.14" type="line"/>
      <point x="377.59120848394406" y="76.14"/>
      <point x="351.0021513871314" y="36.14"/>
      <point x="297.0221513871314" y="36.14" type="curve" smooth="yes"/>
      <point x="249.04215138713138" y="36.14"/>
      <point x="207.25971778232056" y="65.14"/>
      <point x="155.6586055485256" y="144.07" type="curve"/>
      <point x="137.85794486301768" y="119.0" type="line"/>
      <point x="199.47060424197204" y="38.0"/>
      <point x="227.72154714515935" y="-2.0"/>
    </contour>
    <contour>
      <point x="34.43958825832611" y="272.07" type="line"/>
      <point x="28.551248290557243" y="243.93" type="line"/>
      <point x="320.2412482905572" y="243.93" type="line"/>
      <point x="326.12958825832607" y="272.07" type="line"/>
    </contour>
    <contour>
      <point x="60.38968450847517" y="427.07" type="line"/>
      <point x="55.501344540706306" y="398.93" type="line"/>
      <point x="347.1913445407063" y="398.93" type="line"/>
      <point x="353.0096845084752" y="427.07" type="line"/>
    </contour>
  </outline>
</glyph>
<glyph name="naira" format="2">
  <advance width="460"/>
  <unicode hex="20A6"/>
  <outline>
    <contour>
      <point x="-30.49" y="0.0" type="line"/>
      <point x="131.03" y="0.0" type="line"/>
      <point x="136.94756639518917" y="29.07" type="line"/>
      <point x="125.73756639518918" y="29.07" type="line" smooth="yes"/>
      <point x="100.31756639518919" y="29.07"/>
      <point x="64.85137781455171" y="37.07"/>
      <point x="66.05596280649394" y="44.07" type="curve" smooth="yes"/>
      <point x="180.1130841861638" y="706.93" type="line"/>
      <point x="168.89695204906224" y="702.0" type="line"/>
      <point x="302.46" y="0.0" type="line"/>
      <point x="342.74" y="0.0" type="line"/>
      <point x="453.9849135490026" y="639.93" type="line" smooth="yes"/>
      <point x="458.9024799441918" y="668.93"/>
      <point x="481.6031970732356" y="680.93"/>
      <point x="510.0931970732356" y="680.93" type="curve" smooth="yes"/>
      <point x="520.2331970732356" y="680.93" type="line"/>
      <point x="526.1507634684248" y="710.0" type="line"/>
      <point x="363.7007634684248" y="710.0" type="line"/>
      <point x="357.7831970732356" y="680.93" type="line"/>
      <point x="369.9231970732356" y="680.93" type="line"/>
      <point x="395.3431970732356" y="680.93"/>
      <point x="430.80938565387305" y="672.93"/>
      <point x="429.6048006619308" y="665.93" type="curve" smooth="yes"/>
      <point x="318.38911354034855" y="27.0" type="line"/>
      <point x="327.67596280649394" y="43.93" type="line"/>
      <point x="204.34076346842477" y="710.0" type="line"/>
      <point x="93.01076346842476" y="710.0" type="line"/>
      <point x="87.09319707323557" y="680.93" type="line"/>
      <point x="96.23319707323557" y="680.93" type="line" smooth="yes"/>
      <point x="124.72319707323558" y="680.93"/>
      <point x="143.86861208129338" y="673.93"/>
      <point x="139.8810456861042" y="644.93" type="curve" smooth="yes"/>
      <point x="40.67584991942216" y="70.07" type="line" smooth="yes"/>
      <point x="34.82828352423298" y="41.07"/>
      <point x="13.05756639518918" y="29.07"/>
      <point x="-15.43243360481082" y="29.07" type="curve" smooth="yes"/>
      <point x="-24.57243360481082" y="29.07" type="line"/>
    </contour>
    <contour>
      <point x="124.58040163751897" y="439.07" type="line"/>
      <point x="42.32040163751897" y="439.07" type="line"/>
      <point x="37.402835242329786" y="410.0" type="line"/>
      <point x="114.59283524232978" y="410.0" type="line"/>
    </contour>
    <contour>
      <point x="238.7628352423298" y="410.0" type="line"/>
      <point x="392.42283524232977" y="410.0" type="line"/>
      <point x="399.42283524232977" y="410.0" type="line"/>
      <point x="477.7528352423298" y="410.0" type="line"/>
      <point x="483.6004016375189" y="439.07" type="line"/>
      <point x="238.47040163751896" y="439.07" type="line"/>
    </contour>
    <contour>
      <point x="377.6358332824995" y="251.0" type="line"/>
      <point x="450.68583328249946" y="251.0" type="line"/>
      <point x="455.6033996776886" y="280.07" type="line"/>
      <point x="383.4833996776886" y="280.07" type="line"/>
    </contour>
    <contour>
      <point x="269.7333996776886" y="280.07" type="line"/>
      <point x="99.58339967768863" y="280.07" type="line"/>
      <point x="91.51339967768864" y="280.07" type="line"/>
      <point x="14.323399677688638" y="280.07" type="line"/>
      <point x="9.405833282499458" y="251.0" type="line"/>
      <point x="275.8858332824995" y="251.0" type="line"/>
    </contour>
  </outline>
</glyph>
<glyph name="peseta" format="2">
  <advance width="460"/>
  <unicode hex="20A7"/>
  <outline>
    <contour>
      <point x="-37.7" y="0.0" type="line"/>
      <point x="116.89" y="0.0" type="line"/>
      <point x="122.80756639518918" y="29.07" type="line"/>
      <point x="104.31756639518919" y="29.07" type="line" smooth="yes"/>
      <point x="80.82756639518918" y="29.07"/>
      <point x="55.56524567745013" y="32.07"/>
      <point x="56.76983066939234" y="39.07" type="curve" smooth="yes"/>
      <point x="97.44339967768863" y="279.93" type="line"/>
      <point x="123.93339967768864" y="279.93" type="line" smooth="yes"/>
      <point x="264.59339967768864" y="279.93"/>
      <point x="321.9351559600688" y="406.93"/>
      <point x="325.6761386698693" y="535.0" type="curve" smooth="yes"/>
      <point x="328.59878141190103" y="635.07"/>
      <point x="284.09076346842477" y="710.0"/>
      <point x="174.06076346842477" y="710.0" type="curve" smooth="yes"/>
      <point x="82.66076346842476" y="710.0" type="line"/>
      <point x="76.81319707323559" y="680.93" type="line"/>
      <point x="85.95319707323559" y="680.93" type="line" smooth="yes"/>
      <point x="113.51319707323557" y="680.93"/>
      <point x="128.72861208129336" y="673.93"/>
      <point x="124.74104568610419" y="644.93" type="curve" smooth="yes"/>
      <point x="24.389717782320577" y="65.07" type="line" smooth="yes"/>
      <point x="19.472151387131397" y="36.07"/>
      <point x="0.9175663951891803" y="29.07"/>
      <point x="-26.64243360481082" y="29.07" type="curve" smooth="yes"/>
      <point x="-31.78243360481082" y="29.07" type="line"/>
    </contour>
    <contour>
      <point x="174.28319707323558" y="680.93" type="line" smooth="yes"/>
      <point x="261.1031970732356" y="680.93"/>
      <point x="290.9796114280166" y="621.0"/>
      <point x="288.46613866986934" y="535.0" type="curve" smooth="yes"/>
      <point x="287.9985158311443" y="519.0"/>
      <point x="285.41398728273793" y="499.0"/>
      <point x="281.88791158917223" y="481.0" type="curve" smooth="yes"/>
      <point x="264.17687243583583" y="366.07"/>
      <point x="217.67096607287783" y="309.0"/>
      <point x="124.64096607287782" y="309.0" type="curve" smooth="yes"/>
      <point x="103.36096607287782" y="309.0" type="line"/>
      <point x="168.07319707323558" y="680.93" type="line"/>
    </contour>
    <contour>
      <point x="370.446308000477" y="496.0" type="line"/>
      <point x="312.9439076695116" y="163.0" type="line" smooth="yes"/>
      <point x="306.90943556464117" y="129.93"/>
      <point x="304.16722773397385" y="106.93"/>
      <point x="303.436567048466" y="82.0" type="curve" smooth="yes"/>
      <point x="301.4199435564641" y="13.0"/>
      <point x="330.20850929837655" y="-11.0"/>
      <point x="370.69850929837656" y="-11.0" type="curve" smooth="yes"/>
      <point x="395.1885092983765" y="-11.0"/>
      <point x="413.87154714515935" y="-2.0"/>
      <point x="426.3445849919422" y="6.93" type="curve"/>
      <point x="431.2621513871314" y="36.07" type="line"/>
      <point x="428.2621513871314" y="36.07"/>
      <point x="403.16452854840634" y="20.07"/>
      <point x="378.60452854840634" y="20.07" type="curve" smooth="yes"/>
      <point x="355.1845285484063" y="20.07"/>
      <point x="339.3021513871314" y="36.07"/>
      <point x="340.64656704846595" y="82.0" type="curve" smooth="yes"/>
      <point x="341.34800130655356" y="106.0"/>
      <point x="344.11943556464115" y="129.93"/>
      <point x="350.15390766951157" y="162.93" type="curve" smooth="yes"/>
      <point x="434.4487249683651" y="648.0" type="line"/>
      <point x="403.2387249683651" y="648.0" type="line"/>
      <point x="387.09453508117406" y="550.07" type="line" smooth="yes"/>
      <point x="378.7093458472599" y="505.07"/>
      <point x="358.23089299241923" y="503.0"/>
      <point x="317.60089299241923" y="503.0" type="curve" smooth="yes"/>
      <point x="303.39089299241925" y="503.0" type="line"/>
      <point x="298.6894587343316" y="478.93" type="line"/>
      <point x="501.1894587343316" y="478.93" type="line"/>
      <point x="507.0370251295208" y="508.0" type="line"/>
      <point x="405.2870251295208" y="508.0" type="line"/>
    </contour>
  </outline>
</glyph>
<glyph name="dong" format="2">
  <advance width="460"/>
  <unicode hex="20AB"/>
  <outline>
    <contour>
      <point x="151.2685092983765" y="-11.0" type="curve" smooth="yes"/>
      <point x="230.6685092983765" y="-11.0"/>
      <point x="291.23198205652375" y="74.93"/>
      <point x="349.0875497582665" y="209.93" type="curve"/>
      <point x="343.0227954357166" y="241.93" type="line"/>
      <point x="284.4418127259161" y="113.93"/>
      <point x="226.5160756935657" y="18.07"/>
      <point x="155.04607569356568" y="18.07" type="curve" smooth="yes"/>
      <point x="94.92607569356569" y="18.07"/>
      <point x="73.65728417750977" y="94.0"/>
      <point x="76.31688907275856" y="185.0" type="curve" smooth="yes"/>
      <point x="78.42119184702136" y="256.93"/>
      <point x="92.7178153390232" y="325.93"/>
      <point x="119.68681599229998" y="378.93" type="curve" smooth="yes"/>
      <point x="152.17576020204086" y="444.93"/>
      <point x="201.37172300853481" y="488.93"/>
      <point x="263.5617230085348" y="488.93" type="curve" smooth="yes"/>
      <point x="322.5417230085348" y="488.93"/>
      <point x="366.9204016375189" y="438.93"/>
      <point x="373.40079674227013" y="348.0" type="curve"/>
      <point x="394.3768159923" y="379.07" type="line"/>
      <point x="383.00719446012846" y="469.0"/>
      <point x="331.459289403724" y="518.0"/>
      <point x="265.33928940372397" y="518.0" type="curve" smooth="yes"/>
      <point x="133.16928940372398" y="518.0"/>
      <point x="40.32074029873428" y="361.0"/>
      <point x="35.17688907275856" y="185.0" type="curve" smooth="yes"/>
      <point x="31.99120848394406" y="75.93"/>
      <point x="66.86850929837651" y="-11.0"/>
    </contour>
    <contour>
      <point x="367.1654150080578" y="-7.0" type="curve" smooth="yes"/>
      <point x="390.37541500805776" y="-7.0"/>
      <point x="414.1169057096813" y="4.0"/>
      <point x="425.4499435564641" y="13.0" type="curve"/>
      <point x="430.27983066939237" y="39.14" type="line"/>
      <point x="424.08137781455173" y="37.14"/>
      <point x="400.362981403247" y="22.07"/>
      <point x="373.802981403247" y="22.07" type="curve" smooth="yes"/>
      <point x="355.522981403247" y="22.07"/>
      <point x="345.6052456774501" y="32.07"/>
      <point x="346.3066799355377" y="56.07" type="curve" smooth="yes"/>
      <point x="346.9204349113644" y="77.07"/>
      <point x="353.0425862984958" y="113.0"/>
      <point x="356.8140205565834" y="137.07" type="curve" smooth="yes"/>
      <point x="460.6914241539327" y="735.0" type="line"/>
      <point x="422.5514241539327" y="735.0" type="line"/>
      <point x="325.0123040808163" y="177.86" type="line"/>
      <point x="324.8546247985554" y="174.86" type="line"/>
      <point x="317.63324698400373" y="137.93"/>
      <point x="309.9442463307269" y="85.0"/>
      <point x="309.09667993553774" y="56.07" type="curve" smooth="yes"/>
      <point x="307.78149070162345" y="11.07"/>
      <point x="332.6054150080578" y="-7.0"/>
    </contour>
    <contour>
      <point x="39.54913017727125" y="-154.14" type="line"/>
      <point x="363.44913017727123" y="-154.14" type="line"/>
      <point x="369.33747014504013" y="-126.0" type="line"/>
      <point x="46.367470145040116" y="-126.0" type="line"/>
    </contour>
    <contour>
      <point x="245.94585645218996" y="599.93" type="line"/>
      <point x="512.72585645219" y="599.93" type="line"/>
      <point x="518.6434228473792" y="629.0" type="line"/>
      <point x="251.86342284737913" y="629.0" type="line"/>
    </contour>
  </outline>
</glyph>
<glyph name="kip" format="2">
  <advance width="460"/>
  <unicode hex="20AD"/>
  <outline>
    <contour>
      <point x="46.74217455682188" y="385.07" type="line"/>
      <point x="40.923834589053016" y="356.93" type="line"/>
      <point x="420.94383458905304" y="356.93" type="line"/>
      <point x="426.76217455682183" y="385.07" type="line"/>
    </contour>
    <contour>
      <point x="-19.49" y="0.0" type="line"/>
      <point x="169.66" y="0.0" type="line"/>
      <point x="175.5775663951892" y="29.07" type="line"/>
      <point x="167.50756639518917" y="29.07" type="line" smooth="yes"/>
      <point x="138.87756639518918" y="29.07"/>
      <point x="100.26524567745012" y="32.07"/>
      <point x="101.46983066939235" y="39.07" type="curve" smooth="yes"/>
      <point x="210.48093279903242" y="670.93" type="line" smooth="yes"/>
      <point x="211.68551779097461" y="677.93"/>
      <point x="249.54319707323558" y="680.93"/>
      <point x="279.1031970732356" y="680.93" type="curve" smooth="yes"/>
      <point x="287.1731970732356" y="680.93" type="line"/>
      <point x="293.09076346842477" y="710.0" type="line"/>
      <point x="104.01076346842476" y="710.0" type="line"/>
      <point x="98.09319707323557" y="680.93" type="line"/>
      <point x="107.23319707323557" y="680.93" type="line" smooth="yes"/>
      <point x="146.00319707323558" y="680.93"/>
      <point x="172.42861208129338" y="673.93"/>
      <point x="167.51104568610418" y="644.93" type="curve" smooth="yes"/>
      <point x="67.15971778232057" y="65.07" type="line" smooth="yes"/>
      <point x="63.1721513871314" y="36.07"/>
      <point x="33.407566395189185" y="29.07"/>
      <point x="-4.43243360481082" y="29.07" type="curve" smooth="yes"/>
      <point x="-13.57243360481082" y="29.07" type="line"/>
    </contour>
    <contour>
      <point x="251.34" y="0.0" type="line"/>
      <point x="425.86" y="0.0" type="line"/>
      <point x="431.7775663951892" y="29.07" type="line"/>
      <point x="421.70756639518913" y="29.07" type="line" smooth="yes"/>
      <point x="392.07756639518914" y="29.07"/>
      <point x="379.02524567745013" y="32.07"/>
      <point x="366.62203850005966" y="62.07" type="curve" smooth="yes"/>
      <point x="233.2852688471406" y="381.07" type="line"/>
      <point x="225.43228744389367" y="359.0" type="line"/>
      <point x="446.0556306780464" y="651.93" type="line" smooth="yes"/>
      <point x="464.0078385087137" y="674.93"/>
      <point x="480.4631970732356" y="680.93"/>
      <point x="504.8831970732356" y="680.93" type="curve" smooth="yes"/>
      <point x="517.1631970732356" y="680.93" type="line"/>
      <point x="523.0807634684247" y="710.0" type="line"/>
      <point x="360.35076346842476" y="710.0" type="line"/>
      <point x="354.4331970732356" y="680.93" type="line"/>
      <point x="361.57319707323563" y="680.93" type="line" smooth="yes"/>
      <point x="391.1331970732356" y="680.93"/>
      <point x="423.67551779097465" y="677.93"/>
      <point x="424.4709327990324" y="670.93" type="curve"/>
      <point x="196.4560988632562" y="367.0" type="line"/>
      <point x="202.58996672615459" y="362.0" type="line"/>
      <point x="332.9498306693923" y="39.07" type="line"/>
      <point x="332.6752456774501" y="32.07"/>
      <point x="294.88756639518914" y="29.07"/>
      <point x="265.32756639518914" y="29.07" type="curve" smooth="yes"/>
      <point x="258.1875663951892" y="29.07" type="line"/>
    </contour>
  </outline>
</glyph>
<glyph name="cedi" format="2">
  <advance width="460"/>
  <unicode hex="20B5"/>
  <outline>
    <contour>
      <point x="322.7209327990324" y="670.93" type="curve"/>
      <point x="400.1909327990324" y="670.93"/>
      <point x="448.7626492747994" y="629.86"/>
      <point x="463.8851393231461" y="587.86" type="curve"/>
      <point x="466.4173471538134" y="610.93"/>
      <point x="475.5795549844807" y="633.93"/>
      <point x="444.4694985409448" y="646.93" type="curve"/>
      <point x="426.12072366181155" y="541.86" type="line"/>
      <point x="470.4007236618116" y="541.86" type="line"/>
      <point x="485.09496999253844" y="627.0" type="line"/>
      <point x="464.61021566998863" y="658.93"/>
      <point x="404.8984991942216" y="700.0"/>
      <point x="324.49849919422155" y="700.0" type="curve"/>
      <point x="147.6284991942216" y="700.0"/>
      <point x="46.30166656499892" y="502.0"/>
      <point x="40.13489037931212" y="291.07" type="curve" smooth="yes"/>
      <point x="35.19562414527862" y="121.93"/>
      <point x="113.04226427420316" y="10.0"/>
      <point x="229.00226427420316" y="10.0" type="curve" smooth="yes"/>
      <point x="325.68226427420313" y="10.0"/>
      <point x="394.0296048952488" y="91.0"/>
      <point x="433.24290832278837" y="216.0" type="curve"/>
      <point x="407.55898401635403" y="234.07" type="line"/>
      <point x="374.83639771785835" y="121.07"/>
      <point x="318.43060424197205" y="38.14"/>
      <point x="230.75060424197204" y="38.14" type="curve" smooth="yes"/>
      <point x="133.00060424197204" y="38.14"/>
      <point x="75.72711484690211" y="133.0"/>
      <point x="80.37411680673243" y="292.0" type="curve" smooth="yes"/>
      <point x="81.10477749224034" y="317.0"/>
      <point x="85.18615530679206" y="354.0"/>
      <point x="90.31985383908282" y="387.93" type="curve" smooth="yes"/>
      <point x="122.57900718604455" y="582.79"/>
      <point x="209.8309327990324" y="670.93"/>
    </contour>
    <contour>
      <point x="319.0588776620501" y="790.0" type="line"/>
      <point x="300.83855563775745" y="687.0" type="line"/>
      <point x="299.6631970732356" y="680.93" type="line"/>
      <point x="187.95679282260951" y="30.07" type="line"/>
      <point x="186.7522078306673" y="23.07" type="line"/>
      <point x="161.292828709562" y="-120.0" type="line"/>
      <point x="193.572828709562" y="-120.0" type="line"/>
      <point x="219.18988711292823" y="26.0" type="line"/>
      <point x="219.3067928226095" y="30.07" type="line"/>
      <point x="331.9139706458153" y="679.93" type="line"/>
      <point x="333.1185556377575" y="686.93" type="line"/>
      <point x="351.3388776620501" y="790.0" type="line"/>
    </contour>
  </outline>
</glyph>
<glyph name="uni20B8" format="2">
  <advance width="460"/>
  <unicode hex="20B8"/>
  <outline>
    <contour>
      <point x="172.90971778232057" y="65.07" type="line" smooth="yes"/>
      <point x="167.9921513871314" y="36.07"/>
      <point x="135.22756639518917" y="29.07"/>
      <point x="95.52756639518918" y="29.07" type="curve" smooth="yes"/>
      <point x="84.38756639518918" y="29.07" type="line"/>
      <point x="78.47" y="0.0" type="line"/>
      <point x="281.41" y="0.0" type="line"/>
      <point x="287.32756639518914" y="29.07" type="line"/>
      <point x="272.97756639518917" y="29.07" type="line" smooth="yes"/>
      <point x="232.34756639518918" y="29.07"/>
      <point x="206.1321513871314" y="36.07"/>
      <point x="211.04971778232058" y="65.07" type="curve" smooth="yes"/>
      <point x="292.00536509728965" y="535.93" type="line"/>
      <point x="336.9853650972897" y="535.93" type="line" smooth="yes"/>
      <point x="406.24536509728966" y="535.93"/>
      <point x="434.46078010534745" y="528.93"/>
      <point x="430.4086287182161" y="492.93" type="curve" smooth="yes"/>
      <point x="420.40443883102506" y="394.93" type="line"/>
      <point x="444.54443883102505" y="394.93" type="line"/>
      <point x="474.8629314924789" y="565.0" type="line"/>
      <point x="83.77293149247886" y="565.0" type="line"/>
      <point x="53.454438831025044" y="394.93" type="line"/>
      <point x="77.59443883102504" y="394.93" type="line"/>
      <point x="102.80862871821606" y="492.93" type="line" smooth="yes"/>
      <point x="112.00078010534746" y="528.93"/>
      <point x="142.69536509728965" y="535.93"/>
      <point x="211.95536509728967" y="535.93" type="curve" smooth="yes"/>
      <point x="253.86536509728967" y="535.93" type="line"/>
    </contour>
    <contour>
      <point x="109.36076346842476" y="710.0" type="line"/>
      <point x="102.51319707323557" y="680.93" type="line"/>
      <point x="494.5331970732356" y="680.93" type="line"/>
      <point x="500.4507634684248" y="710.0" type="line"/>
    </contour>
  </outline>
</glyph>
<glyph name="manat" format="2">
  <advance width="460"/>
  <unicode hex="20BC"/>
  <outline>
    <contour>
      <point x="301.8030277426279" y="720.0" type="line"/>
      <point x="201.6678319759459" y="144.93" type="line"/>
      <point x="233.9478319759459" y="144.93" type="line"/>
      <point x="333.1530277426279" y="720.0" type="line"/>
    </contour>
    <contour>
      <point x="293.9335921779867" y="590.0" type="curve"/>
      <point x="154.76359217798677" y="590.0"/>
      <point x="49.06908026650314" y="388.93"/>
      <point x="-18.21" y="0.0" type="curve"/>
      <point x="22.0" y="0.0" type="line"/>
      <point x="87.09217455682189" y="385.0"/>
      <point x="175.98602578279758" y="560.93"/>
      <point x="290.0160257827976" y="560.93" type="curve"/>
      <point x="408.0460257827976" y="560.93"/>
      <point x="432.7714009842422" y="385.93"/>
      <point x="367.65" y="0.0" type="curve"/>
      <point x="407.86" y="0.0" type="line"/>
      <point x="472.89372170198124" y="382.93"/>
      <point x="430.96359217798675" y="590.0"/>
    </contour>
  </outline>
</glyph>
<glyph name="litre" format="2">
  <advance width="428"/>
  <unicode hex="2113"/>
  <outline>
    <contour>
      <point x="188.82588972603534" y="238.0" type="curve" smooth="yes"/>
      <point x="198.8213279037836" y="579.93"/>
      <point x="240.4031970732356" y="680.93"/>
      <point x="296.45319707323563" y="680.93" type="curve" smooth="yes"/>
      <point x="333.0831970732356" y="680.93"/>
      <point x="342.8611021296401" y="632.0"/>
      <point x="340.8152522102179" y="562.0" type="curve" smooth="yes"/>
      <point x="335.8467595487641" y="392.0"/>
      <point x="218.74185253252926" y="282.07"/>
      <point x="51.112134750208696" y="217.07" type="curve"/>
      <point x="56.492247637280464" y="191.0" type="line"/>
      <point x="232.02273899218073" y="255.0"/>
      <point x="370.14443883102507" y="395.0"/>
      <point x="375.0252522102179" y="562.0" type="curve" smooth="yes"/>
      <point x="377.24646069416195" y="638.0"/>
      <point x="358.0707634684248" y="710.0"/>
      <point x="298.23076346842475" y="710.0" type="curve" smooth="yes"/>
      <point x="215.11076346842475" y="710.0"/>
      <point x="159.5413279037836" y="580.0"/>
      <point x="149.54588972603534" y="238.0" type="curve" smooth="yes"/>
      <point x="144.1974535081174" y="55.0"/>
      <point x="182.92773572579682" y="-10.0"/>
      <point x="251.83773572579685" y="-10.0" type="curve" smooth="yes"/>
      <point x="311.7477357257969" y="-10.0"/>
      <point x="349.3243592177987" y="59.0"/>
      <point x="372.67943556464115" y="130.0" type="curve"/>
      <point x="351.0478319759459" y="145.0" type="line"/>
      <point x="333.21883132266913" y="92.0"/>
      <point x="303.595302120986" y="19.07"/>
      <point x="255.68530212098602" y="19.07" type="curve" smooth="yes"/>
      <point x="218.05530212098603" y="19.07"/>
      <point x="183.53590636295806" y="57.07"/>
    </contour>
  </outline>
</glyph>
<glyph name="numero" format="2">
  <advance width="978"/>
  <unicode hex="2116"/>
  <outline>
    <contour>
      <point x="657.8659461695712" y="225.07" type="line"/>
      <point x="929.2759461695713" y="225.07" type="line"/>
      <point x="922.4576062018024" y="196.93" type="line"/>
      <point x="651.0476062018024" y="196.93" type="line"/>
    </contour>
    <component base="N" yxScale="0.029226427420316562" xOffset="4.07"/>
    <component base="ordmasculine" yxScale="0.029226427420316562" xOffset="592.38"/>
  </outline>
</glyph>
<glyph name="estimated" format="2">
  <advance width="689"/>
  <unicode hex="212E"/>
  <outline>
    <contour>
      <point x="156.88700195983034" y="159.0" type="line"/>
      <point x="202.37734062104565" y="81.0"/>
      <point x="269.4451892339143" y="45.0"/>
      <point x="349.70518923391427" y="45.0" type="curve" smooth="yes"/>
      <point x="463.66518923391425" y="45.0"/>
      <point x="550.3156241452787" y="122.0"/>
      <point x="595.3474368711948" y="236.0" type="curve"/>
      <point x="645.1174368711947" y="236.0" type="line"/>
      <point x="599.384189887191" y="98.0"/>
      <point x="490.5477357257969" y="-10.0"/>
      <point x="348.09773572579684" y="-10.0" type="curve" smooth="yes"/>
      <point x="176.29773572579683" y="-10.0"/>
      <point x="48.803964113047485" y="150.0"/>
      <point x="54.795381734212384" y="355.0" type="curve" smooth="yes"/>
      <point x="60.786799355377276" y="560.0"/>
      <point x="197.63302774262792" y="720.0"/>
      <point x="369.4330277426279" y="720.0" type="curve" smooth="yes"/>
      <point x="540.3030277426279" y="720.0"/>
      <point x="667.7967993553773" y="560.0"/>
      <point x="661.8053817342123" y="355.0" type="curve"/>
      <point x="127.98538173421238" y="355.0" type="line"/>
      <point x="129.59283524232978" y="410.0" type="line"/>
      <point x="554.6628352423298" y="410.0" type="line"/>
      <point x="558.8714407908553" y="554.0" type="line"/>
      <point x="514.2234228473791" y="629.0"/>
      <point x="446.2255742345105" y="665.0"/>
      <point x="367.8255742345105" y="665.0" type="curve" smooth="yes"/>
      <point x="287.5655742345105" y="665.0"/>
      <point x="218.39342284737913" y="629.0"/>
      <point x="168.4314407908554" y="554.0" type="curve"/>
    </contour>
  </outline>
</glyph>
<glyph name="arrowleft" format="2">
  <advance width="606"/>
  <unicode hex="2190"/>
  <outline>
    <contour>
      <point x="359.0367993553773" y="560.0" type="line"/>
      <point x="59.36151387131397" y="360.0" type="line"/>
      <point x="58.952343887429535" y="346.0" type="line"/>
      <point x="346.9370584033662" y="146.0" type="line"/>
      <point x="355.45700195983034" y="159.0" type="line"/>
      <point x="245.45936248418255" y="324.0" type="line"/>
      <point x="573.8493624841825" y="324.0" type="line"/>
      <point x="575.544495274561" y="382.0" type="line"/>
      <point x="247.15449527456093" y="382.0" type="line"/>
      <point x="366.79685579891316" y="547.0" type="line"/>
    </contour>
  </outline>
</glyph>
